SplineFontDB: 3.0
FontName: RisingSun-Regular
FullName: Rising Sun Regular
FamilyName: Rising Sun
Weight: Book
Copyright: Copyright (c) 2010 - 2013, Matt McInerney (matt@pixelspread.com), Pablo Impallari (impallari@gmail.com), Rodrigo Fuenzalida (hello@rfuenzalida.com) with Reserved Font Name RALEWAY.\nCopyright (c) 2016, Cristiano Sobral (cssobral2013@gmail.com), with Reserved Font Name RISING SUN.
Version: 1.000
ItalicAngle: 0
UnderlinePosition: -100
UnderlineWidth: 50
Ascent: 800
Descent: 200
InvalidEm: 0
sfntRevision: 0x00010000
LayerCount: 2
Layer: 0 1 "Back" 1
Layer: 1 1 "Fore" 0
XUID: [1021 368 144034212 15208]
StyleMap: 0x0040
FSType: 4
OS2Version: 3
OS2_WeightWidthSlopeOnly: 0
OS2_UseTypoMetrics: 0
CreationTime: 1380014460
ModificationTime: 1466167047
PfmFamily: 17
TTFWeight: 400
TTFWidth: 5
LineGap: 0
VLineGap: 0
Panose: 2 11 5 3 3 1 1 6 0 3
OS2TypoAscent: 800
OS2TypoAOffset: 0
OS2TypoDescent: -200
OS2TypoDOffset: 0
OS2TypoLinegap: 0
OS2WinAscent: 933
OS2WinAOffset: 0
OS2WinDescent: 243
OS2WinDOffset: 0
HheadAscent: 933
HheadAOffset: 0
HheadDescent: -243
HheadDOffset: 0
OS2SubXSize: 700
OS2SubYSize: 650
OS2SubXOff: 0
OS2SubYOff: 140
OS2SupXSize: 700
OS2SupYSize: 650
OS2SupXOff: 0
OS2SupYOff: 477
OS2StrikeYSize: 50
OS2StrikeYPos: 250
OS2CapHeight: 710
OS2XHeight: 521
OS2Vendor: 'pyrs'
OS2CodePages: 20000097.00000000
OS2UnicodeRanges: a00002ff.5000205b.00000000.00000000
Lookup: 1 0 0 "'aalt' Access All Alternates in Latin lookup 0" { "'aalt' Access All Alternates in Latin lookup 0 subtable"  } ['aalt' ('latn' <'dflt' > ) ]
Lookup: 3 0 0 "'aalt' Access All Alternates in Latin lookup 1" { "'aalt' Access All Alternates in Latin lookup 1 subtable"  } ['aalt' ('latn' <'dflt' > ) ]
Lookup: 1 0 0 "'smcp' Lowercase to Small Capitals in Latin lookup 2" { "'smcp' Lowercase to Small Capitals in Latin lookup 2 subtable"  } ['smcp' ('latn' <'dflt' > ) ]

StartChar: exclam
Encoding: 33 33 5
Width: 252
GlyphClass: 2
Flags: W
LayerCount: 2
Fore
SplineSet
92 228 m 1,0,-1
 92 717 l 1,1,-1
 160 717 l 1,2,-1
 160 228 l 1,3,-1
 92 228 l 1,0,-1
92 0 m 1,4,-1
 92 112 l 1,5,-1
 160 112 l 1,6,-1
 160 0 l 1,7,-1
 92 0 l 1,4,-1
EndSplineSet
EndChar

StartChar: quotedbl
Encoding: 34 34 6
Width: 292
GlyphClass: 2
Flags: W
LayerCount: 2
Fore
SplineSet
69 522 m 1,0,-1
 69 716 l 1,1,-1
 128 716 l 1,2,-1
 128 522 l 1,3,-1
 69 522 l 1,0,-1
164 522 m 1,4,-1
 164 716 l 1,5,-1
 223 716 l 1,6,-1
 223 522 l 1,7,-1
 164 522 l 1,4,-1
EndSplineSet
EndChar

StartChar: numbersign
Encoding: 35 35 7
Width: 680
GlyphClass: 2
Flags: W
LayerCount: 2
Fore
SplineSet
642 457 m 1,0,-1
 513 457 l 1,1,-1
 466 261 l 1,2,-1
 600 261 l 1,3,-1
 600 207 l 1,4,-1
 453 207 l 1,5,-1
 403 0 l 1,6,-1
 345 0 l 1,7,-1
 396 207 l 1,8,-1
 207 207 l 1,9,-1
 157 0 l 1,10,-1
 99 0 l 1,11,-1
 150 207 l 1,12,-1
 37 207 l 1,13,-1
 37 261 l 1,14,-1
 163 261 l 1,15,-1
 210 457 l 1,16,-1
 80 457 l 1,17,-1
 80 508 l 1,18,-1
 223 508 l 1,19,-1
 272 710 l 1,20,-1
 330 710 l 1,21,-1
 280 508 l 1,22,-1
 469 508 l 1,23,-1
 518 710 l 1,24,-1
 576 710 l 1,25,-1
 526 508 l 1,26,-1
 642 508 l 1,27,-1
 642 457 l 1,0,-1
409 261 m 1,28,-1
 456 457 l 1,29,-1
 267 457 l 1,30,-1
 220 261 l 1,31,-1
 409 261 l 1,28,-1
EndSplineSet
EndChar

StartChar: dollar
Encoding: 36 36 8
Width: 619
GlyphClass: 2
Flags: W
LayerCount: 2
Fore
SplineSet
510 577 m 1,0,1
 481 609 481 609 433.5 630 c 128,-1,2
 386 651 386 651 326 653 c 1,3,-1
 326 386 l 2,4,5
 328 386 328 386 329.5 385.5 c 128,-1,6
 331 385 331 385 333 385 c 0,7,8
 390 373 390 373 435.5 358 c 128,-1,9
 481 343 481 343 513 320.5 c 128,-1,10
 545 298 545 298 562 266 c 128,-1,11
 579 234 579 234 579 186 c 256,12,13
 579 138 579 138 560.5 102 c 128,-1,14
 542 66 542 66 509 42.5 c 128,-1,15
 476 19 476 19 430.5 7 c 128,-1,16
 385 -5 385 -5 331 -6 c 1,17,-1
 331 -103 l 1,18,-1
 294 -103 l 1,19,-1
 294 -5 l 1,20,21
 148 2 148 2 38 97 c 1,22,-1
 73 154 l 1,23,24
 108 116 108 116 166.5 89 c 128,-1,25
 225 62 225 62 297 57 c 1,26,-1
 297 324 l 1,27,-1
 291 326 l 1,28,29
 235 339 235 339 193 353 c 128,-1,30
 151 367 151 367 122 388 c 128,-1,31
 93 409 93 409 78.5 438.5 c 128,-1,32
 64 468 64 468 64 511 c 0,33,34
 64 558 64 558 81 594.5 c 128,-1,35
 98 631 98 631 128 656.5 c 128,-1,36
 158 682 158 682 200.5 696.5 c 128,-1,37
 243 711 243 711 294 714 c 1,38,-1
 294 815 l 1,39,-1
 331 815 l 1,40,-1
 331 715 l 1,41,42
 397 713 397 713 449.5 691.5 c 128,-1,43
 502 670 502 670 544 633 c 1,44,-1
 510 577 l 1,0,1
505 179 m 0,45,46
 505 209 505 209 493.5 230 c 128,-1,47
 482 251 482 251 459.5 267 c 128,-1,48
 437 283 437 283 403.5 295 c 128,-1,49
 370 307 370 307 326 318 c 1,50,-1
 326 56 l 1,51,52
 411 56 411 56 458 86.5 c 128,-1,53
 505 117 505 117 505 179 c 0,45,46
136 521 m 0,54,55
 136 492 136 492 145.5 472.5 c 128,-1,56
 155 453 155 453 174.5 438.5 c 128,-1,57
 194 424 194 424 224.5 413.5 c 128,-1,58
 255 403 255 403 297 393 c 1,59,-1
 297 652 l 1,60,61
 212 648 212 648 174 613 c 128,-1,62
 136 578 136 578 136 521 c 0,54,55
EndSplineSet
EndChar

StartChar: percent
Encoding: 37 37 9
Width: 714
GlyphClass: 2
Flags: W
LayerCount: 2
Fore
SplineSet
190 433 m 256,0,1
 159 433 159 433 131.5 444 c 128,-1,2
 104 455 104 455 84 474.5 c 128,-1,3
 64 494 64 494 52 520 c 128,-1,4
 40 546 40 546 40 576 c 256,5,6
 40 606 40 606 52 632 c 128,-1,7
 64 658 64 658 84 677.5 c 128,-1,8
 104 697 104 697 131.5 708.5 c 128,-1,9
 159 720 159 720 190 720 c 256,10,11
 221 720 221 720 248 708.5 c 128,-1,12
 275 697 275 697 295.5 677.5 c 128,-1,13
 316 658 316 658 327.5 632 c 128,-1,14
 339 606 339 606 339 576 c 256,15,16
 339 546 339 546 327.5 520 c 128,-1,17
 316 494 316 494 295.5 474.5 c 128,-1,18
 275 455 275 455 248 444 c 128,-1,19
 221 433 221 433 190 433 c 256,0,1
190 472 m 256,20,21
 210 472 210 472 228 480.5 c 128,-1,22
 246 489 246 489 259.5 503.5 c 128,-1,23
 273 518 273 518 280.5 536.5 c 128,-1,24
 288 555 288 555 288 576 c 0,25,26
 288 598 288 598 280 617 c 128,-1,27
 272 636 272 636 258.5 650 c 128,-1,28
 245 664 245 664 227 672 c 128,-1,29
 209 680 209 680 190 680 c 0,30,31
 169 680 169 680 151 671.5 c 128,-1,32
 133 663 133 663 119.5 648.5 c 128,-1,33
 106 634 106 634 98.5 615.5 c 128,-1,34
 91 597 91 597 91 576 c 256,35,36
 91 555 91 555 99 536 c 128,-1,37
 107 517 107 517 120.5 502.5 c 128,-1,38
 134 488 134 488 152 480 c 128,-1,39
 170 472 170 472 190 472 c 256,20,21
525 -10 m 256,40,41
 494 -10 494 -10 467 1 c 128,-1,42
 440 12 440 12 419.5 31.5 c 128,-1,43
 399 51 399 51 387.5 77.5 c 128,-1,44
 376 104 376 104 376 134 c 256,45,46
 376 164 376 164 387.5 190 c 128,-1,47
 399 216 399 216 419.5 235.5 c 128,-1,48
 440 255 440 255 467 266 c 128,-1,49
 494 277 494 277 525 277 c 256,50,51
 556 277 556 277 583.5 266 c 128,-1,52
 611 255 611 255 631 235.5 c 128,-1,53
 651 216 651 216 663 190 c 128,-1,54
 675 164 675 164 675 134 c 256,55,56
 675 104 675 104 663 77.5 c 128,-1,57
 651 51 651 51 631 31.5 c 128,-1,58
 611 12 611 12 583.5 1 c 128,-1,59
 556 -10 556 -10 525 -10 c 256,40,41
525 30 m 0,60,61
 546 30 546 30 563.5 38.5 c 128,-1,62
 581 47 581 47 594.5 61 c 128,-1,63
 608 75 608 75 615.5 94 c 128,-1,64
 623 113 623 113 623 134 c 256,65,66
 623 155 623 155 615 174 c 128,-1,67
 607 193 607 193 593.5 207.5 c 128,-1,68
 580 222 580 222 562 230 c 128,-1,69
 544 238 544 238 525 238 c 0,70,71
 505 238 505 238 487 229.5 c 128,-1,72
 469 221 469 221 455.5 206.5 c 128,-1,73
 442 192 442 192 434.5 173.5 c 128,-1,74
 427 155 427 155 427 134 c 0,75,76
 427 112 427 112 435 93 c 128,-1,77
 443 74 443 74 456.5 60 c 128,-1,78
 470 46 470 46 487.5 38 c 128,-1,79
 505 30 505 30 525 30 c 0,60,61
65 27 m 1,80,-1
 344 367 l 1,81,-1
 616 714 l 1,82,-1
 651 684 l 1,83,-1
 372 344 l 1,84,-1
 99 -4 l 1,85,-1
 65 27 l 1,80,-1
EndSplineSet
EndChar

StartChar: ampersand
Encoding: 38 38 10
Width: 667
GlyphClass: 2
Flags: W
LayerCount: 2
Fore
SplineSet
571 0 m 1,0,-1
 489 86 l 1,1,2
 447 41 447 41 392.5 15.5 c 128,-1,3
 338 -10 338 -10 274 -10 c 0,4,5
 227 -10 227 -10 185.5 4 c 128,-1,6
 144 18 144 18 113.5 43.5 c 128,-1,7
 83 69 83 69 65 104.5 c 128,-1,8
 47 140 47 140 47 183 c 0,9,10
 47 219 47 219 59 249 c 128,-1,11
 71 279 71 279 92 304.5 c 128,-1,12
 113 330 113 330 140 352 c 128,-1,13
 167 374 167 374 197 394 c 1,14,15
 170 423 170 423 151.5 446 c 128,-1,16
 133 469 133 469 121.5 488.5 c 128,-1,17
 110 508 110 508 105 526 c 128,-1,18
 100 544 100 544 100 563 c 0,19,20
 100 596 100 596 113.5 624.5 c 128,-1,21
 127 653 127 653 151 674 c 128,-1,22
 175 695 175 695 207.5 707 c 128,-1,23
 240 719 240 719 278 719 c 0,24,25
 313 719 313 719 343 709 c 128,-1,26
 373 699 373 699 395.5 680.5 c 128,-1,27
 418 662 418 662 431 636 c 128,-1,28
 444 610 444 610 444 579 c 256,29,30
 444 548 444 548 431.5 522.5 c 128,-1,31
 419 497 419 497 398 474 c 128,-1,32
 377 451 377 451 349 430 c 128,-1,33
 321 409 321 409 289 388 c 1,34,-1
 488 180 l 1,35,36
 508 218 508 218 519.5 262.5 c 128,-1,37
 531 307 531 307 531 356 c 1,38,-1
 589 356 l 1,39,40
 588 294 588 294 572.5 239 c 128,-1,41
 557 184 557 184 528 138 c 1,42,-1
 661 0 l 1,43,-1
 571 0 l 1,0,-1
281 45 m 0,44,45
 332 45 332 45 375 66.5 c 128,-1,46
 418 88 418 88 451 126 c 1,47,-1
 236 353 l 1,48,49
 183 316 183 316 148 275.5 c 128,-1,50
 113 235 113 235 113 181 c 0,51,52
 113 148 113 148 127.5 122.5 c 128,-1,53
 142 97 142 97 166 79.5 c 128,-1,54
 190 62 190 62 220 53.5 c 128,-1,55
 250 45 250 45 281 45 c 0,44,45
163 565 m 0,56,57
 163 553 163 553 166.5 541 c 128,-1,58
 170 529 170 529 180 513.5 c 128,-1,59
 190 498 190 498 206.5 477.5 c 128,-1,60
 223 457 223 457 250 429 c 1,61,62
 308 467 308 467 344.5 500.5 c 128,-1,63
 381 534 381 534 381 577 c 0,64,65
 381 616 381 616 352 641 c 128,-1,66
 323 666 323 666 278 666 c 0,67,68
 253 666 253 666 232 658 c 128,-1,69
 211 650 211 650 195.5 636 c 128,-1,70
 180 622 180 622 171.5 604 c 128,-1,71
 163 586 163 586 163 565 c 0,56,57
EndSplineSet
EndChar

StartChar: quotesingle
Encoding: 39 39 11
Width: 197
GlyphClass: 2
Flags: W
LayerCount: 2
Fore
SplineSet
69 521 m 1,0,-1
 69 716 l 1,1,-1
 128 716 l 1,2,-1
 128 521 l 1,3,-1
 69 521 l 1,0,-1
EndSplineSet
EndChar

StartChar: parenleft
Encoding: 40 40 12
Width: 269
GlyphClass: 2
Flags: W
LayerCount: 2
Fore
SplineSet
44 346 m 0,0,1
 44 397 44 397 55 446.5 c 128,-1,2
 66 496 66 496 85 544.5 c 128,-1,3
 104 593 104 593 129.5 641.5 c 128,-1,4
 155 690 155 690 184 739 c 1,5,-1
 236 714 l 1,6,7
 216 684 216 684 193.5 640 c 128,-1,8
 171 596 171 596 152 546 c 128,-1,9
 133 496 133 496 120.5 443.5 c 128,-1,10
 108 391 108 391 108 343 c 0,11,12
 108 265 108 265 142 172.5 c 128,-1,13
 176 80 176 80 235 -10 c 1,14,-1
 184 -37 l 1,15,16
 121 57 121 57 82.5 153.5 c 128,-1,17
 44 250 44 250 44 346 c 0,0,1
EndSplineSet
EndChar

StartChar: parenright
Encoding: 41 41 13
Width: 268
GlyphClass: 2
Flags: W
LayerCount: 2
Fore
SplineSet
224 346 m 0,0,1
 224 250 224 250 186 153.5 c 128,-1,2
 148 57 148 57 84 -37 c 1,3,-1
 34 -10 l 1,4,5
 63 35 63 35 86.5 81 c 128,-1,6
 110 127 110 127 126.5 172.5 c 128,-1,7
 143 218 143 218 152 261 c 128,-1,8
 161 304 161 304 161 343 c 0,9,10
 161 391 161 391 148.5 443.5 c 128,-1,11
 136 496 136 496 117 546 c 128,-1,12
 98 596 98 596 75.5 640 c 128,-1,13
 53 684 53 684 32 714 c 1,14,-1
 85 739 l 1,15,16
 114 690 114 690 139.5 641.5 c 128,-1,17
 165 593 165 593 183.5 544.5 c 128,-1,18
 202 496 202 496 213 446.5 c 128,-1,19
 224 397 224 397 224 346 c 0,0,1
EndSplineSet
EndChar

StartChar: asterisk
Encoding: 42 42 14
Width: 321
GlyphClass: 2
Flags: W
LayerCount: 2
Fore
SplineSet
87 546 m 1,0,-1
 130 608 l 1,1,-1
 62 630 l 1,2,-1
 73 666 l 1,3,-1
 142 640 l 1,4,-1
 142 713 l 1,5,-1
 179 713 l 1,6,-1
 179 640 l 1,7,-1
 248 666 l 1,8,-1
 259 630 l 1,9,-1
 191 608 l 1,10,-1
 235 546 l 1,11,-1
 203 524 l 1,12,-1
 161 589 l 1,13,-1
 118 524 l 1,14,-1
 87 546 l 1,0,-1
EndSplineSet
EndChar

StartChar: plus
Encoding: 43 43 15
Width: 415
GlyphClass: 2
Flags: W
LayerCount: 2
Fore
SplineSet
363 383 m 1,0,-1
 363 327 l 1,1,-1
 239 327 l 1,2,-1
 239 192 l 1,3,-1
 176 192 l 1,4,-1
 176 327 l 1,5,-1
 52 327 l 1,6,-1
 52 383 l 1,7,-1
 176 383 l 1,8,-1
 176 518 l 1,9,-1
 239 518 l 1,10,-1
 239 383 l 1,11,-1
 363 383 l 1,0,-1
EndSplineSet
EndChar

StartChar: comma
Encoding: 44 44 16
Width: 225
GlyphClass: 2
Flags: W
LayerCount: 2
Fore
SplineSet
86 -81 m 1,0,-1
 103 3 l 1,1,-1
 80 3 l 1,2,-1
 80 98 l 1,3,-1
 146 98 l 1,4,-1
 146 3 l 1,5,-1
 121 -81 l 1,6,-1
 86 -81 l 1,0,-1
EndSplineSet
EndChar

StartChar: hyphen
Encoding: 45 45 17
Width: 422
GlyphClass: 2
Flags: W
LayerCount: 2
Fore
SplineSet
65 241 m 1,0,-1
 65 304 l 1,1,-1
 357 304 l 1,2,-1
 357 241 l 1,3,-1
 65 241 l 1,0,-1
EndSplineSet
EndChar

StartChar: period
Encoding: 46 46 18
Width: 189
GlyphClass: 2
Flags: W
LayerCount: 2
Fore
SplineSet
65 0 m 1,0,-1
 65 98 l 1,1,-1
 124 98 l 1,2,-1
 124 0 l 1,3,-1
 65 0 l 1,0,-1
EndSplineSet
EndChar

StartChar: slash
Encoding: 47 47 19
Width: 604
GlyphClass: 2
Flags: W
LayerCount: 2
Fore
SplineSet
576 710 m 1,0,-1
 104 0 l 1,1,-1
 27 0 l 1,2,-1
 499 710 l 1,3,-1
 576 710 l 1,0,-1
EndSplineSet
EndChar

StartChar: zero
Encoding: 48 48 20
Width: 684
GlyphClass: 2
Flags: W
LayerCount: 2
Fore
SplineSet
342 -10 m 0,0,1
 270 -8 270 -8 215 26 c 128,-1,2
 160 60 160 60 123 112 c 128,-1,3
 86 164 86 164 67 227 c 128,-1,4
 48 290 48 290 48 350 c 0,5,6
 48 414 48 414 68.5 478.5 c 128,-1,7
 89 543 89 543 127 594.5 c 128,-1,8
 165 646 165 646 219.5 678 c 128,-1,9
 274 710 274 710 342 710 c 0,10,11
 415 710 415 710 469.5 675.5 c 128,-1,12
 524 641 524 641 561 588 c 128,-1,13
 598 535 598 535 616.5 471.5 c 128,-1,14
 635 408 635 408 635 350 c 0,15,16
 635 285 635 285 614.5 221 c 128,-1,17
 594 157 594 157 556 106 c 128,-1,18
 518 55 518 55 464 23 c 128,-1,19
 410 -9 410 -9 342 -10 c 0,0,1
119 350 m 0,20,21
 120 298 120 298 135 245 c 128,-1,22
 150 192 150 192 177.5 149.5 c 128,-1,23
 205 107 205 107 246.5 80 c 128,-1,24
 288 53 288 53 342 53 c 0,25,26
 398 53 398 53 440 81.5 c 128,-1,27
 482 110 482 110 509.5 154 c 128,-1,28
 537 198 537 198 551 250.5 c 128,-1,29
 565 303 565 303 565 350 c 0,30,31
 565 402 565 402 550 455 c 128,-1,32
 535 508 535 508 506.5 550.5 c 128,-1,33
 478 593 478 593 436.5 620 c 128,-1,34
 395 647 395 647 342 647 c 0,35,36
 285 647 285 647 243.5 618 c 128,-1,37
 202 589 202 589 174 545 c 128,-1,38
 146 501 146 501 132.5 449 c 128,-1,39
 119 397 119 397 119 350 c 0,20,21
EndSplineSet
Substitution2: "'lnum' Lining Figures in Latin lookup 3 subtable" zero.lnum
Substitution2: "'aalt' Access All Alternates in Latin lookup 0 subtable" zero.lnum
EndChar

StartChar: one
Encoding: 49 49 21
Width: 416
GlyphClass: 2
Flags: W
LayerCount: 2
Fore
SplineSet
396 62 m 1,0,-1
 396 0 l 1,1,-1
 65 0 l 1,2,-1
 65 62 l 1,3,-1
 200 62 l 1,4,-1
 200 643 l 1,5,6
 192 631 192 631 173.5 616.5 c 128,-1,7
 155 602 155 602 132.5 588.5 c 128,-1,8
 110 575 110 575 86 566 c 128,-1,9
 62 557 62 557 42 557 c 1,10,-1
 42 621 l 1,11,12
 59 621 59 621 77.5 628 c 128,-1,13
 96 635 96 635 113.5 645.5 c 128,-1,14
 131 656 131 656 146.5 668.5 c 128,-1,15
 162 681 162 681 173.5 692 c 128,-1,16
 185 703 185 703 192 710.5 c 128,-1,17
 199 718 199 718 200 719 c 2,18,-1
 269 719 l 1,19,-1
 269 62 l 1,20,-1
 396 62 l 1,0,-1
EndSplineSet
Substitution2: "'lnum' Lining Figures in Latin lookup 3 subtable" one.lnum
Substitution2: "'aalt' Access All Alternates in Latin lookup 0 subtable" one.lnum
EndChar

StartChar: two
Encoding: 50 50 22
Width: 581
GlyphClass: 2
Flags: W
LayerCount: 2
Fore
SplineSet
48 0 m 1,0,-1
 48 14 l 2,1,2
 48 80 48 80 61 128.5 c 128,-1,3
 74 177 74 177 98.5 213.5 c 128,-1,4
 123 250 123 250 159 276.5 c 128,-1,5
 195 303 195 303 241 325 c 0,6,7
 275 341 275 341 312 356 c 128,-1,8
 349 371 349 371 380 391.5 c 128,-1,9
 411 412 411 412 431 441 c 128,-1,10
 451 470 451 470 451 514 c 0,11,12
 451 542 451 542 441.5 567.5 c 128,-1,13
 432 593 432 593 413.5 612.5 c 128,-1,14
 395 632 395 632 366 643.5 c 128,-1,15
 337 655 337 655 298 655 c 256,16,17
 259 655 259 655 227.5 644.5 c 128,-1,18
 196 634 196 634 171.5 619 c 128,-1,19
 147 604 147 604 129 586 c 128,-1,20
 111 568 111 568 99 553 c 1,21,-1
 54 597 l 1,22,23
 60 604 60 604 78.5 624 c 128,-1,24
 97 644 97 644 128.5 665 c 128,-1,25
 160 686 160 686 204 702.5 c 128,-1,26
 248 719 248 719 305 719 c 0,27,28
 360 719 360 719 401.5 702.5 c 128,-1,29
 443 686 443 686 470.5 658 c 128,-1,30
 498 630 498 630 512 593 c 128,-1,31
 526 556 526 556 526 515 c 0,32,33
 526 464 526 464 506.5 427.5 c 128,-1,34
 487 391 487 391 456 365 c 128,-1,35
 425 339 425 339 387 321 c 128,-1,36
 349 303 349 303 312 287 c 0,37,38
 256 263 256 263 219.5 237.5 c 128,-1,39
 183 212 183 212 161 184 c 128,-1,40
 139 156 139 156 130.5 125.5 c 128,-1,41
 122 95 122 95 122 62 c 1,42,-1
 527 62 l 1,43,-1
 527 0 l 1,44,-1
 48 0 l 1,0,-1
EndSplineSet
Substitution2: "'lnum' Lining Figures in Latin lookup 3 subtable" two.lnum
Substitution2: "'aalt' Access All Alternates in Latin lookup 0 subtable" two.lnum
EndChar

StartChar: three
Encoding: 51 51 23
Width: 584
GlyphClass: 2
Flags: W
LayerCount: 2
Fore
SplineSet
285 -9 m 0,0,1
 238 -9 238 -9 197 3 c 128,-1,2
 156 15 156 15 125 36.5 c 128,-1,3
 94 58 94 58 74 88.5 c 128,-1,4
 54 119 54 119 48 156 c 1,5,-1
 90 194 l 1,6,7
 92 168 92 168 106.5 143 c 128,-1,8
 121 118 121 118 146.5 98.5 c 128,-1,9
 172 79 172 79 207.5 67 c 128,-1,10
 243 55 243 55 285 55 c 0,11,12
 323 55 323 55 355.5 65 c 128,-1,13
 388 75 388 75 412 93 c 128,-1,14
 436 111 436 111 449.5 136.5 c 128,-1,15
 463 162 463 162 463 192 c 0,16,17
 463 225 463 225 447 251 c 128,-1,18
 431 277 431 277 401 295.5 c 128,-1,19
 371 314 371 314 329 323.5 c 128,-1,20
 287 333 287 333 235 333 c 2,21,-1
 201 333 l 1,22,-1
 201 392 l 1,23,-1
 235 392 l 2,24,25
 333 392 333 392 388.5 424 c 128,-1,26
 444 456 444 456 444 520 c 0,27,28
 444 551 444 551 431 576.5 c 128,-1,29
 418 602 418 602 395.5 620 c 128,-1,30
 373 638 373 638 343 648 c 128,-1,31
 313 658 313 658 280 658 c 0,32,33
 214 658 214 658 167 629 c 128,-1,34
 120 600 120 600 101 557 c 1,35,-1
 54 603 l 1,36,37
 68 630 68 630 91.5 651.5 c 128,-1,38
 115 673 115 673 144.5 688 c 128,-1,39
 174 703 174 703 208.5 711 c 128,-1,40
 243 719 243 719 279 719 c 0,41,42
 330 719 330 719 373 704 c 128,-1,43
 416 689 416 689 447.5 662.5 c 128,-1,44
 479 636 479 636 497 600 c 128,-1,45
 515 564 515 564 515 522 c 0,46,47
 515 461 515 461 479.5 421.5 c 128,-1,48
 444 382 444 382 376 365 c 1,49,50
 412 358 412 358 441 341.5 c 128,-1,51
 470 325 470 325 490.5 301 c 128,-1,52
 511 277 511 277 522 247 c 128,-1,53
 533 217 533 217 533 184 c 0,54,55
 533 139 533 139 513 103.5 c 128,-1,56
 493 68 493 68 459 43 c 128,-1,57
 425 18 425 18 380 4.5 c 128,-1,58
 335 -9 335 -9 285 -9 c 0,0,1
EndSplineSet
Substitution2: "'lnum' Lining Figures in Latin lookup 3 subtable" three.lnum
Substitution2: "'aalt' Access All Alternates in Latin lookup 0 subtable" three.lnum
EndChar

StartChar: four
Encoding: 52 52 24
Width: 569
GlyphClass: 2
Flags: W
LayerCount: 2
Fore
SplineSet
375 0 m 1,0,-1
 375 190 l 1,1,-1
 26 190 l 1,2,-1
 26 251 l 1,3,-1
 396 710 l 1,4,-1
 443 710 l 1,5,-1
 443 252 l 1,6,-1
 531 252 l 1,7,-1
 531 190 l 1,8,-1
 443 190 l 1,9,-1
 443 0 l 1,10,-1
 375 0 l 1,0,-1
99 252 m 1,11,-1
 381 252 l 1,12,-1
 381 604 l 1,13,-1
 99 252 l 1,11,-1
EndSplineSet
Substitution2: "'lnum' Lining Figures in Latin lookup 3 subtable" four.lnum
Substitution2: "'aalt' Access All Alternates in Latin lookup 0 subtable" four.lnum
EndChar

StartChar: five
Encoding: 53 53 25
Width: 556
GlyphClass: 2
Flags: W
LayerCount: 2
Fore
SplineSet
283 451 m 0,0,1
 331 451 331 451 373.5 434.5 c 128,-1,2
 416 418 416 418 447 388 c 128,-1,3
 478 358 478 358 496 316.5 c 128,-1,4
 514 275 514 275 514 225 c 0,5,6
 514 172 514 172 494.5 129 c 128,-1,7
 475 86 475 86 442 55 c 128,-1,8
 409 24 409 24 364 7 c 128,-1,9
 319 -10 319 -10 268 -10 c 0,10,11
 192 -10 192 -10 131.5 27 c 128,-1,12
 71 64 71 64 40 127 c 1,13,-1
 86 161 l 1,14,15
 113 111 113 111 162 81.5 c 128,-1,16
 211 52 211 52 269 52 c 0,17,18
 306 52 306 52 338 64.5 c 128,-1,19
 370 77 370 77 394 99.5 c 128,-1,20
 418 122 418 122 431.5 154 c 128,-1,21
 445 186 445 186 445 224 c 0,22,23
 445 261 445 261 432 291.5 c 128,-1,24
 419 322 419 322 396 344 c 128,-1,25
 373 366 373 366 342 378.5 c 128,-1,26
 311 391 311 391 275 391 c 0,27,28
 228 391 228 391 186.5 370 c 128,-1,29
 145 349 145 349 119 311 c 1,30,-1
 55 311 l 1,31,32
 56 317 56 317 60.5 337.5 c 128,-1,33
 65 358 65 358 71 387.5 c 128,-1,34
 77 417 77 417 84 452 c 128,-1,35
 91 487 91 487 98 523 c 0,36,37
 115 607 115 607 135 710 c 1,38,-1
 478 710 l 1,39,-1
 478 647 l 1,40,-1
 186 647 l 1,41,-1
 136 392 l 1,42,43
 162 421 162 421 200 436 c 128,-1,44
 238 451 238 451 283 451 c 0,0,1
EndSplineSet
Substitution2: "'lnum' Lining Figures in Latin lookup 3 subtable" five.lnum
Substitution2: "'aalt' Access All Alternates in Latin lookup 0 subtable" five.lnum
EndChar

StartChar: six
Encoding: 54 54 26
Width: 603
GlyphClass: 2
Flags: W
LayerCount: 2
Fore
SplineSet
559 234 m 0,0,1
 559 183 559 183 539.5 138.5 c 128,-1,2
 520 94 520 94 486 61 c 128,-1,3
 452 28 452 28 406 9 c 128,-1,4
 360 -10 360 -10 307 -10 c 0,5,6
 251 -10 251 -10 204 10.5 c 128,-1,7
 157 31 157 31 123.5 69 c 128,-1,8
 90 107 90 107 71 162.5 c 128,-1,9
 52 218 52 218 52 287 c 0,10,11
 52 395 52 395 71 475.5 c 128,-1,12
 90 556 90 556 124.5 609.5 c 128,-1,13
 159 663 159 663 207 689 c 128,-1,14
 255 715 255 715 314 715 c 0,15,16
 385 715 385 715 441 680 c 128,-1,17
 497 645 497 645 526 583 c 1,18,-1
 482 543 l 1,19,20
 461 594 461 594 416 624.5 c 128,-1,21
 371 655 371 655 314 655 c 0,22,23
 270 655 270 655 234 634 c 128,-1,24
 198 613 198 613 172.5 573.5 c 128,-1,25
 147 534 147 534 132.5 476 c 128,-1,26
 118 418 118 418 118 345 c 1,27,28
 140 404 140 404 193.5 439 c 128,-1,29
 247 474 247 474 315 474 c 0,30,31
 366 474 366 474 410.5 455.5 c 128,-1,32
 455 437 455 437 488 404.5 c 128,-1,33
 521 372 521 372 540 328 c 128,-1,34
 559 284 559 284 559 234 c 0,0,1
309 50 m 256,35,36
 347 50 347 50 380.5 64.5 c 128,-1,37
 414 79 414 79 439.5 104 c 128,-1,38
 465 129 465 129 479.5 162.5 c 128,-1,39
 494 196 494 196 494 234 c 256,40,41
 494 272 494 272 479 305.5 c 128,-1,42
 464 339 464 339 438.5 364 c 128,-1,43
 413 389 413 389 379.5 403.5 c 128,-1,44
 346 418 346 418 308 418 c 256,45,46
 270 418 270 418 236.5 403.5 c 128,-1,47
 203 389 203 389 177.5 364 c 128,-1,48
 152 339 152 339 137.5 305.5 c 128,-1,49
 123 272 123 272 123 234 c 256,50,51
 123 196 123 196 138 163 c 128,-1,52
 153 130 153 130 178.5 104.5 c 128,-1,53
 204 79 204 79 237.5 64.5 c 128,-1,54
 271 50 271 50 309 50 c 256,35,36
EndSplineSet
Substitution2: "'lnum' Lining Figures in Latin lookup 3 subtable" six.lnum
Substitution2: "'aalt' Access All Alternates in Latin lookup 0 subtable" six.lnum
EndChar

StartChar: seven
Encoding: 55 55 27
Width: 521
GlyphClass: 2
Flags: W
LayerCount: 2
Fore
SplineSet
414 647 m 1,0,-1
 31 647 l 1,1,-1
 31 710 l 1,2,-1
 522 710 l 1,3,-1
 162 0 l 1,4,-1
 86 0 l 1,5,-1
 414 647 l 1,0,-1
EndSplineSet
Substitution2: "'lnum' Lining Figures in Latin lookup 3 subtable" seven.lnum
Substitution2: "'aalt' Access All Alternates in Latin lookup 0 subtable" seven.lnum
EndChar

StartChar: eight
Encoding: 56 56 28
Width: 593
GlyphClass: 2
Flags: W
LayerCount: 2
Fore
SplineSet
543 197 m 0,0,1
 543 150 543 150 523 112.5 c 128,-1,2
 503 75 503 75 469 48 c 128,-1,3
 435 21 435 21 389.5 6.5 c 128,-1,4
 344 -8 344 -8 294 -8 c 0,5,6
 241 -8 241 -8 196 8.5 c 128,-1,7
 151 25 151 25 118.5 53.5 c 128,-1,8
 86 82 86 82 68 120 c 128,-1,9
 50 158 50 158 50 201 c 0,10,11
 50 235 50 235 62.5 264 c 128,-1,12
 75 293 75 293 95 315.5 c 128,-1,13
 115 338 115 338 140.5 354.5 c 128,-1,14
 166 371 166 371 192 380 c 1,15,16
 168 390 168 390 147 404.5 c 128,-1,17
 126 419 126 419 110 438 c 128,-1,18
 94 457 94 457 84.5 480 c 128,-1,19
 75 503 75 503 75 529 c 0,20,21
 75 573 75 573 95 606.5 c 128,-1,22
 115 640 115 640 146.5 663 c 128,-1,23
 178 686 178 686 217.5 698 c 128,-1,24
 257 710 257 710 297 710 c 256,25,26
 337 710 337 710 376.5 698 c 128,-1,27
 416 686 416 686 447.5 663.5 c 128,-1,28
 479 641 479 641 499 607 c 128,-1,29
 519 573 519 573 519 530 c 0,30,31
 519 504 519 504 509.5 481 c 128,-1,32
 500 458 500 458 483.5 438.5 c 128,-1,33
 467 419 467 419 445.5 404.5 c 128,-1,34
 424 390 424 390 400 380 c 1,35,36
 429 370 429 370 455 352.5 c 128,-1,37
 481 335 481 335 500.5 312 c 128,-1,38
 520 289 520 289 531.5 260 c 128,-1,39
 543 231 543 231 543 197 c 0,0,1
474 202 m 0,40,41
 474 238 474 238 458 265.5 c 128,-1,42
 442 293 442 293 416 312 c 128,-1,43
 390 331 390 331 358 341 c 128,-1,44
 326 351 326 351 295 351 c 0,45,46
 262 351 262 351 231 340.5 c 128,-1,47
 200 330 200 330 175 310.5 c 128,-1,48
 150 291 150 291 135 263 c 128,-1,49
 120 235 120 235 120 201 c 0,50,51
 120 166 120 166 136 138.5 c 128,-1,52
 152 111 152 111 177.5 92 c 128,-1,53
 203 73 203 73 234.5 63 c 128,-1,54
 266 53 266 53 298 53 c 256,55,56
 330 53 330 53 361.5 63.5 c 128,-1,57
 393 74 393 74 418 93.5 c 128,-1,58
 443 113 443 113 458.5 140.5 c 128,-1,59
 474 168 474 168 474 202 c 0,40,41
143 526 m 0,60,61
 143 497 143 497 157 474.5 c 128,-1,62
 171 452 171 452 193 436.5 c 128,-1,63
 215 421 215 421 242.5 413 c 128,-1,64
 270 405 270 405 296 405 c 0,65,66
 323 405 323 405 350 413 c 128,-1,67
 377 421 377 421 399.5 437 c 128,-1,68
 422 453 422 453 436 476 c 128,-1,69
 450 499 450 499 450 528 c 0,70,71
 450 556 450 556 437 578.5 c 128,-1,72
 424 601 424 601 402.5 616.5 c 128,-1,73
 381 632 381 632 353 640 c 128,-1,74
 325 648 325 648 295 648 c 0,75,76
 266 648 266 648 238.5 639.5 c 128,-1,77
 211 631 211 631 190 615.5 c 128,-1,78
 169 600 169 600 156 577 c 128,-1,79
 143 554 143 554 143 526 c 0,60,61
EndSplineSet
Substitution2: "'lnum' Lining Figures in Latin lookup 3 subtable" eight.lnum
Substitution2: "'aalt' Access All Alternates in Latin lookup 0 subtable" eight.lnum
EndChar

StartChar: nine
Encoding: 57 57 29
Width: 603
GlyphClass: 2
Flags: W
LayerCount: 2
Fore
SplineSet
44 471 m 0,0,1
 44 522 44 522 63.5 566.5 c 128,-1,2
 83 611 83 611 116.5 644 c 128,-1,3
 150 677 150 677 196 696 c 128,-1,4
 242 715 242 715 295 715 c 0,5,6
 351 715 351 715 398 695 c 128,-1,7
 445 675 445 675 478.5 636.5 c 128,-1,8
 512 598 512 598 531 543 c 128,-1,9
 550 488 550 488 550 419 c 0,10,11
 550 310 550 310 531 229.5 c 128,-1,12
 512 149 512 149 477.5 95.5 c 128,-1,13
 443 42 443 42 395 16 c 128,-1,14
 347 -10 347 -10 288 -10 c 0,15,16
 218 -10 218 -10 162 25 c 128,-1,17
 106 60 106 60 77 123 c 1,18,-1
 120 162 l 1,19,20
 141 111 141 111 186.5 81 c 128,-1,21
 232 51 232 51 289 51 c 0,22,23
 333 51 333 51 369 71.5 c 128,-1,24
 405 92 405 92 431 132 c 128,-1,25
 457 172 457 172 471 229 c 128,-1,26
 485 286 485 286 485 360 c 1,27,28
 463 301 463 301 409.5 266 c 128,-1,29
 356 231 356 231 288 231 c 0,30,31
 237 231 237 231 192.5 250 c 128,-1,32
 148 269 148 269 115 301.5 c 128,-1,33
 82 334 82 334 63 377.5 c 128,-1,34
 44 421 44 421 44 471 c 0,0,1
294 656 m 256,35,36
 256 656 256 656 222.5 641.5 c 128,-1,37
 189 627 189 627 164 601.5 c 128,-1,38
 139 576 139 576 124.5 542.5 c 128,-1,39
 110 509 110 509 110 472 c 0,40,41
 110 434 110 434 124.5 400.5 c 128,-1,42
 139 367 139 367 164.5 341.5 c 128,-1,43
 190 316 190 316 223.5 301.5 c 128,-1,44
 257 287 257 287 295 287 c 256,45,46
 333 287 333 287 366.5 301.5 c 128,-1,47
 400 316 400 316 425.5 341.5 c 128,-1,48
 451 367 451 367 466 400 c 128,-1,49
 481 433 481 433 481 471 c 0,50,51
 481 508 481 508 466 542 c 128,-1,52
 451 576 451 576 425.5 601 c 128,-1,53
 400 626 400 626 366 641 c 128,-1,54
 332 656 332 656 294 656 c 256,35,36
EndSplineSet
Substitution2: "'lnum' Lining Figures in Latin lookup 3 subtable" nine.lnum
Substitution2: "'aalt' Access All Alternates in Latin lookup 0 subtable" nine.lnum
EndChar

StartChar: colon
Encoding: 58 58 30
Width: 188
GlyphClass: 2
Flags: W
LayerCount: 2
Fore
SplineSet
65 420 m 1,0,-1
 65 518 l 1,1,-1
 123 518 l 1,2,-1
 123 420 l 1,3,-1
 65 420 l 1,0,-1
65 0 m 1,4,-1
 65 98 l 1,5,-1
 123 98 l 1,6,-1
 123 0 l 1,7,-1
 65 0 l 1,4,-1
EndSplineSet
EndChar

StartChar: semicolon
Encoding: 59 59 31
Width: 205
GlyphClass: 2
Flags: W
LayerCount: 2
Fore
SplineSet
70 420 m 1,0,-1
 70 518 l 1,1,-1
 128 518 l 1,2,-1
 128 420 l 1,3,-1
 70 420 l 1,0,-1
76 -81 m 1,4,-1
 93 3 l 1,5,-1
 70 3 l 1,6,-1
 70 98 l 1,7,-1
 136 98 l 1,8,-1
 136 3 l 1,9,-1
 111 -81 l 1,10,-1
 76 -81 l 1,4,-1
EndSplineSet
EndChar

StartChar: less
Encoding: 60 60 32
Width: 508
GlyphClass: 2
Flags: W
LayerCount: 2
Fore
SplineSet
33 276 m 1,0,-1
 452 528 l 1,1,-1
 452 455 l 1,2,-1
 132 259 l 1,3,-1
 452 64 l 1,4,-1
 452 -11 l 1,5,-1
 33 239 l 1,6,-1
 33 276 l 1,0,-1
EndSplineSet
EndChar

StartChar: equal
Encoding: 61 61 33
Width: 438
GlyphClass: 2
Flags: W
LayerCount: 2
Fore
SplineSet
68 194 m 1,0,-1
 68 243 l 1,1,-1
 370 243 l 1,2,-1
 370 194 l 1,3,-1
 68 194 l 1,0,-1
68 309 m 1,4,-1
 68 358 l 1,5,-1
 370 358 l 1,6,-1
 370 309 l 1,7,-1
 68 309 l 1,4,-1
EndSplineSet
EndChar

StartChar: greater
Encoding: 62 62 34
Width: 508
GlyphClass: 2
Flags: W
LayerCount: 2
Fore
SplineSet
474 239 m 1,0,-1
 55 -11 l 1,1,-1
 55 64 l 1,2,-1
 375 259 l 1,3,-1
 55 455 l 1,4,-1
 55 528 l 1,5,-1
 474 276 l 1,6,-1
 474 239 l 1,0,-1
EndSplineSet
EndChar

StartChar: question
Encoding: 63 63 35
Width: 476
GlyphClass: 2
Flags: W
LayerCount: 2
Fore
SplineSet
154 202 m 1,0,1
 154 268 154 268 174.5 307 c 128,-1,2
 195 346 195 346 239 372 c 0,3,4
 259 384 259 384 283 396.5 c 128,-1,5
 307 409 307 409 328 427 c 128,-1,6
 349 445 349 445 363.5 470 c 128,-1,7
 378 495 378 495 378 532 c 0,8,9
 378 565 378 565 366.5 589 c 128,-1,10
 355 613 355 613 336 629.5 c 128,-1,11
 317 646 317 646 292.5 654 c 128,-1,12
 268 662 268 662 242 662 c 0,13,14
 188 662 188 662 145.5 632.5 c 128,-1,15
 103 603 103 603 81 560 c 1,16,-1
 34 590 l 1,17,18
 48 621 48 621 70 645 c 128,-1,19
 92 669 92 669 119.5 685.5 c 128,-1,20
 147 702 147 702 178.5 710.5 c 128,-1,21
 210 719 210 719 243 719 c 0,22,23
 280 719 280 719 315 707.5 c 128,-1,24
 350 696 350 696 377.5 672 c 128,-1,25
 405 648 405 648 421.5 612 c 128,-1,26
 438 576 438 576 438 528 c 0,27,28
 438 488 438 488 426.5 460.5 c 128,-1,29
 415 433 415 433 396 413 c 128,-1,30
 377 393 377 393 352.5 378.5 c 128,-1,31
 328 364 328 364 303 350 c 0,32,33
 285 340 285 340 269 329.5 c 128,-1,34
 253 319 253 319 240 302.5 c 128,-1,35
 227 286 227 286 219.5 262 c 128,-1,36
 212 238 212 238 212 202 c 1,37,-1
 154 202 l 1,0,1
155 0 m 1,38,-1
 155 107 l 1,39,-1
 214 107 l 1,40,-1
 214 0 l 1,41,-1
 155 0 l 1,38,-1
EndSplineSet
EndChar

StartChar: at
Encoding: 64 64 36
Width: 837
GlyphClass: 2
Flags: W
LayerCount: 2
Fore
SplineSet
417 603 m 0,0,1
 491 603 491 603 557 575.5 c 128,-1,2
 623 548 623 548 673 497.5 c 128,-1,3
 723 447 723 447 752 377 c 128,-1,4
 781 307 781 307 781 222 c 0,5,6
 781 208 781 208 779.5 184.5 c 128,-1,7
 778 161 778 161 773 135 c 128,-1,8
 768 109 768 109 758.5 82 c 128,-1,9
 749 55 749 55 733 33 c 128,-1,10
 717 11 717 11 693 -2.5 c 128,-1,11
 669 -16 669 -16 635 -16 c 0,12,13
 610 -16 610 -16 594.5 -8.5 c 128,-1,14
 579 -1 579 -1 570 12 c 128,-1,15
 561 25 561 25 557 41.5 c 128,-1,16
 553 58 553 58 551 76 c 1,17,18
 523 47 523 47 479 26 c 128,-1,19
 435 5 435 5 382 5 c 0,20,21
 311 5 311 5 271.5 42.5 c 128,-1,22
 232 80 232 80 232 139 c 0,23,24
 232 177 232 177 248.5 203 c 128,-1,25
 265 229 265 229 291.5 244.5 c 128,-1,26
 318 260 318 260 351 266.5 c 128,-1,27
 384 273 384 273 417 273 c 0,28,29
 461 273 461 273 494 264.5 c 128,-1,30
 527 256 527 256 544 250 c 1,31,32
 544 286 544 286 538.5 315.5 c 128,-1,33
 533 345 533 345 519 366 c 128,-1,34
 505 387 505 387 481 399 c 128,-1,35
 457 411 457 411 420 411 c 0,36,37
 381 411 381 411 345 398.5 c 128,-1,38
 309 386 309 386 280 364 c 1,39,-1
 262 403 l 1,40,41
 298 427 298 427 338.5 441 c 128,-1,42
 379 455 379 455 426 455 c 0,43,44
 481 455 481 455 513.5 436.5 c 128,-1,45
 546 418 546 418 563 388.5 c 128,-1,46
 580 359 580 359 584.5 322.5 c 128,-1,47
 589 286 589 286 589 250 c 2,48,-1
 589 121 l 2,49,50
 589 99 589 99 590.5 80.5 c 128,-1,51
 592 62 592 62 597.5 49 c 128,-1,52
 603 36 603 36 613.5 28.5 c 128,-1,53
 624 21 624 21 641 21 c 0,54,55
 672 21 672 21 692 42.5 c 128,-1,56
 712 64 712 64 724 95 c 128,-1,57
 736 126 736 126 740.5 161.5 c 128,-1,58
 745 197 745 197 745 224 c 0,59,60
 745 296 745 296 720 359 c 128,-1,61
 695 422 695 422 650.5 468.5 c 128,-1,62
 606 515 606 515 546 542 c 128,-1,63
 486 569 486 569 416 569 c 0,64,65
 348 569 348 569 287.5 543.5 c 128,-1,66
 227 518 227 518 181.5 473 c 128,-1,67
 136 428 136 428 109.5 366 c 128,-1,68
 83 304 83 304 83 230 c 0,69,70
 83 159 83 159 108 96.5 c 128,-1,71
 133 34 133 34 176.5 -12.5 c 128,-1,72
 220 -59 220 -59 280 -85.5 c 128,-1,73
 340 -112 340 -112 411 -112 c 0,74,75
 454 -112 454 -112 490.5 -102 c 128,-1,76
 527 -92 527 -92 564 -74 c 1,77,-1
 577 -106 l 1,78,79
 536 -126 536 -126 494 -136 c 128,-1,80
 452 -146 452 -146 410 -146 c 0,81,82
 335 -146 335 -146 269 -118 c 128,-1,83
 203 -90 203 -90 153.5 -39.5 c 128,-1,84
 104 11 104 11 75.5 80 c 128,-1,85
 47 149 47 149 47 230 c 0,86,87
 47 315 47 315 77.5 383.5 c 128,-1,88
 108 452 108 452 159.5 501 c 128,-1,89
 211 550 211 550 278 576.5 c 128,-1,90
 345 603 345 603 417 603 c 0,0,1
478 70 m 0,91,92
 520 90 520 90 531.5 117 c 128,-1,93
 543 144 543 144 543 172 c 2,94,-1
 543 212 l 1,95,96
 530 214 530 214 496.5 224 c 128,-1,97
 463 234 463 234 415 234 c 0,98,99
 389 234 389 234 364 229.5 c 128,-1,100
 339 225 339 225 320 214 c 128,-1,101
 301 203 301 203 289.5 185.5 c 128,-1,102
 278 168 278 168 278 141 c 0,103,104
 278 99 278 99 308 73.5 c 128,-1,105
 338 48 338 48 385 48 c 0,106,107
 410 48 410 48 434.5 54.5 c 128,-1,108
 459 61 459 61 478 70 c 0,91,92
EndSplineSet
EndChar

StartChar: A
Encoding: 65 65 37
Width: 676
GlyphClass: 2
Flags: W
LayerCount: 2
Fore
SplineSet
309 710 m 1,0,-1
 368 710 l 1,1,-1
 663 0 l 1,2,-1
 589 0 l 1,3,-1
 497 222 l 1,4,-1
 178 222 l 1,5,-1
 87 0 l 1,6,-1
 12 0 l 1,7,-1
 309 710 l 1,0,-1
481 277 m 1,8,-1
 338 628 l 1,9,-1
 193 277 l 1,10,-1
 481 277 l 1,8,-1
EndSplineSet
EndChar

StartChar: B
Encoding: 66 66 38
Width: 666
GlyphClass: 2
Flags: W
LayerCount: 2
Fore
SplineSet
623 183 m 0,0,1
 623 143 623 143 607 109.5 c 128,-1,2
 591 76 591 76 564 51.5 c 128,-1,3
 537 27 537 27 501 13.5 c 128,-1,4
 465 0 465 0 424 0 c 2,5,-1
 89 0 l 1,6,-1
 89 710 l 1,7,-1
 431 710 l 2,8,9
 468 710 468 710 498 694 c 128,-1,10
 528 678 528 678 549 652.5 c 128,-1,11
 570 627 570 627 581.5 594.5 c 128,-1,12
 593 562 593 562 593 529 c 0,13,14
 593 475 593 475 566 430.5 c 128,-1,15
 539 386 539 386 491 364 c 1,16,17
 552 346 552 346 587.5 297 c 128,-1,18
 623 248 623 248 623 183 c 0,0,1
553 195 m 256,19,20
 553 221 553 221 544 245.5 c 128,-1,21
 535 270 535 270 518.5 288.5 c 128,-1,22
 502 307 502 307 479.5 318.5 c 128,-1,23
 457 330 457 330 431 330 c 2,24,-1
 159 330 l 1,25,-1
 159 61 l 1,26,-1
 424 61 l 2,27,28
 451 61 451 61 474.5 72 c 128,-1,29
 498 83 498 83 515.5 101.5 c 128,-1,30
 533 120 533 120 543 144.5 c 128,-1,31
 553 169 553 169 553 195 c 256,19,20
159 649 m 1,32,-1
 159 387 l 1,33,-1
 403 387 l 2,34,35
 429 387 429 387 451.5 398 c 128,-1,36
 474 409 474 409 490 427 c 128,-1,37
 506 445 506 445 515 468.5 c 128,-1,38
 524 492 524 492 524 518 c 0,39,40
 524 545 524 545 515.5 569 c 128,-1,41
 507 593 507 593 491.5 610.5 c 128,-1,42
 476 628 476 628 455 638.5 c 128,-1,43
 434 649 434 649 409 649 c 2,44,-1
 159 649 l 1,32,-1
EndSplineSet
EndChar

StartChar: C
Encoding: 67 67 39
Width: 686
GlyphClass: 2
Flags: W
LayerCount: 2
Fore
SplineSet
42 360 m 0,0,1
 42 424 42 424 64.5 487.5 c 128,-1,2
 87 551 87 551 130 601 c 128,-1,3
 173 651 173 651 236 682.5 c 128,-1,4
 299 714 299 714 379 714 c 0,5,6
 474 714 474 714 541.5 671 c 128,-1,7
 609 628 609 628 641 559 c 1,8,-1
 586 525 l 1,9,10
 569 560 569 560 544.5 584 c 128,-1,11
 520 608 520 608 492 623 c 128,-1,12
 464 638 464 638 434 644.5 c 128,-1,13
 404 651 404 651 375 651 c 0,14,15
 311 651 311 651 262 625 c 128,-1,16
 213 599 213 599 179.5 557 c 128,-1,17
 146 515 146 515 129 462.5 c 128,-1,18
 112 410 112 410 112 356 c 0,19,20
 112 297 112 297 132.5 243 c 128,-1,21
 153 189 153 189 188.5 147.5 c 128,-1,22
 224 106 224 106 272.5 81.5 c 128,-1,23
 321 57 321 57 378 57 c 0,24,25
 408 57 408 57 439.5 64.5 c 128,-1,26
 471 72 471 72 500.5 88.5 c 128,-1,27
 530 105 530 105 555 129.5 c 128,-1,28
 580 154 580 154 597 189 c 1,29,-1
 655 159 l 1,30,31
 638 119 638 119 607 88.5 c 128,-1,32
 576 58 576 58 538 37 c 128,-1,33
 500 16 500 16 457.5 5 c 128,-1,34
 415 -6 415 -6 374 -6 c 0,35,36
 301 -6 301 -6 240 26 c 128,-1,37
 179 58 179 58 135 109.5 c 128,-1,38
 91 161 91 161 66.5 226.5 c 128,-1,39
 42 292 42 292 42 360 c 0,0,1
EndSplineSet
EndChar

StartChar: D
Encoding: 68 68 40
Width: 715
GlyphClass: 2
Flags: W
LayerCount: 2
Fore
SplineSet
89 0 m 1,0,-1
 89 710 l 1,1,-1
 330 710 l 2,2,3
 415 710 415 710 478.5 682 c 128,-1,4
 542 654 542 654 584.5 606 c 128,-1,5
 627 558 627 558 648.5 493.5 c 128,-1,6
 670 429 670 429 670 356 c 0,7,8
 670 275 670 275 646 209.5 c 128,-1,9
 622 144 622 144 577.5 97.5 c 128,-1,10
 533 51 533 51 470.5 25.5 c 128,-1,11
 408 0 408 0 330 0 c 2,12,-1
 89 0 l 1,0,-1
600 356 m 0,13,14
 600 420 600 420 582 473.5 c 128,-1,15
 564 527 564 527 529.5 566 c 128,-1,16
 495 605 495 605 445 626.5 c 128,-1,17
 395 648 395 648 330 648 c 2,18,-1
 159 648 l 1,19,-1
 159 62 l 1,20,-1
 330 62 l 2,21,22
 396 62 396 62 446.5 84.5 c 128,-1,23
 497 107 497 107 531 146.5 c 128,-1,24
 565 186 565 186 582.5 239.5 c 128,-1,25
 600 293 600 293 600 356 c 0,13,14
EndSplineSet
EndChar

StartChar: E
Encoding: 69 69 41
Width: 609
GlyphClass: 2
Flags: W
LayerCount: 2
Fore
SplineSet
566 62 m 1,0,-1
 566 0 l 1,1,-1
 89 0 l 1,2,-1
 89 710 l 1,3,-1
 557 710 l 1,4,-1
 557 648 l 1,5,-1
 159 648 l 1,6,-1
 159 392 l 1,7,-1
 506 392 l 1,8,-1
 506 333 l 1,9,-1
 159 333 l 1,10,-1
 159 62 l 1,11,-1
 566 62 l 1,0,-1
EndSplineSet
EndChar

StartChar: F
Encoding: 70 70 42
Width: 589
GlyphClass: 2
Flags: W
LayerCount: 2
Fore
SplineSet
89 0 m 1,0,-1
 89 710 l 1,1,-1
 555 710 l 1,2,-1
 555 648 l 1,3,-1
 159 648 l 1,4,-1
 159 387 l 1,5,-1
 493 387 l 1,6,-1
 493 329 l 1,7,-1
 159 329 l 1,8,-1
 159 0 l 1,9,-1
 89 0 l 1,0,-1
EndSplineSet
EndChar

StartChar: G
Encoding: 71 71 43
Width: 716
GlyphClass: 2
Flags: W
LayerCount: 2
Fore
SplineSet
602 104 m 1,0,1
 503 -5 503 -5 374 -5 c 0,2,3
 302 -5 302 -5 241.5 26 c 128,-1,4
 181 57 181 57 136.5 108 c 128,-1,5
 92 159 92 159 67 223.5 c 128,-1,6
 42 288 42 288 42 356 c 0,7,8
 42 427 42 427 66.5 492 c 128,-1,9
 91 557 91 557 135 606.5 c 128,-1,10
 179 656 179 656 239 685.5 c 128,-1,11
 299 715 299 715 370 715 c 0,12,13
 422 715 422 715 465 703.5 c 128,-1,14
 508 692 508 692 541.5 671.5 c 128,-1,15
 575 651 575 651 599.5 622.5 c 128,-1,16
 624 594 624 594 641 560 c 1,17,-1
 587 524 l 1,18,19
 552 590 552 590 496 621 c 128,-1,20
 440 652 440 652 369 652 c 0,21,22
 310 652 310 652 262.5 627 c 128,-1,23
 215 602 215 602 181.5 560.5 c 128,-1,24
 148 519 148 519 130 465.5 c 128,-1,25
 112 412 112 412 112 355 c 0,26,27
 112 295 112 295 132.5 241 c 128,-1,28
 153 187 153 187 189 146.5 c 128,-1,29
 225 106 225 106 273.5 82 c 128,-1,30
 322 58 322 58 379 58 c 0,31,32
 440 58 440 58 495.5 86.5 c 128,-1,33
 551 115 551 115 602 177 c 1,34,-1
 602 295 l 1,35,-1
 444 295 l 1,36,-1
 444 349 l 1,37,-1
 661 349 l 1,38,-1
 661 0 l 1,39,-1
 602 0 l 1,40,-1
 602 104 l 1,0,1
EndSplineSet
Substitution2: "'ss01' Style Set 1 in Latin lookup 8 subtable" G.alt
Substitution2: "'salt' Stylistic Alternatives in Latin lookup 5 subtable" G.alt
Substitution2: "'aalt' Access All Alternates in Latin lookup 0 subtable" G.alt
EndChar

StartChar: H
Encoding: 72 72 44
Width: 738
GlyphClass: 2
Flags: W
LayerCount: 2
Fore
SplineSet
649 710 m 1,0,-1
 649 0 l 1,1,-1
 580 0 l 1,2,-1
 580 332 l 1,3,-1
 159 332 l 1,4,-1
 159 0 l 1,5,-1
 89 0 l 1,6,-1
 89 710 l 1,7,-1
 159 710 l 1,8,-1
 159 394 l 1,9,-1
 580 394 l 1,10,-1
 580 710 l 1,11,-1
 649 710 l 1,0,-1
EndSplineSet
EndChar

StartChar: I
Encoding: 73 73 45
Width: 248
GlyphClass: 2
Flags: W
LayerCount: 2
Fore
SplineSet
89 0 m 1,0,-1
 89 710 l 1,1,-1
 159 710 l 1,2,-1
 159 0 l 1,3,-1
 89 0 l 1,0,-1
EndSplineSet
EndChar

StartChar: J
Encoding: 74 74 46
Width: 481
GlyphClass: 2
Flags: W
LayerCount: 2
Fore
SplineSet
34 89 m 1,0,1
 56 74 56 74 90.5 63 c 128,-1,2
 125 52 125 52 168 52 c 0,3,4
 222 52 222 52 254.5 71.5 c 128,-1,5
 287 91 287 91 304 129 c 128,-1,6
 321 167 321 167 326 222.5 c 128,-1,7
 331 278 331 278 331 349 c 2,8,-1
 331 710 l 1,9,-1
 401 710 l 1,10,-1
 401 349 l 2,11,12
 401 268 401 268 393.5 201.5 c 128,-1,13
 386 135 386 135 362 88 c 128,-1,14
 338 41 338 41 292 15 c 128,-1,15
 246 -11 246 -11 168 -11 c 0,16,17
 78 -11 78 -11 14 33 c 1,18,-1
 34 89 l 1,0,1
EndSplineSet
EndChar

StartChar: K
Encoding: 75 75 47
Width: 643
GlyphClass: 2
Flags: W
LayerCount: 2
Fore
SplineSet
89 0 m 1,0,-1
 89 709 l 1,1,-1
 159 709 l 1,2,-1
 159 297 l 1,3,-1
 550 710 l 1,4,-1
 627 710 l 1,5,-1
 337 398 l 1,6,-1
 642 0 l 1,7,-1
 565 0 l 1,8,-1
 293 357 l 1,9,-1
 159 218 l 1,10,-1
 159 0 l 1,11,-1
 89 0 l 1,0,-1
EndSplineSet
EndChar

StartChar: L
Encoding: 76 76 48
Width: 583
GlyphClass: 2
Flags: W
LayerCount: 2
Fore
SplineSet
89 0 m 1,0,-1
 89 710 l 1,1,-1
 159 710 l 1,2,-1
 159 62 l 1,3,-1
 569 62 l 1,4,-1
 569 0 l 1,5,-1
 89 0 l 1,0,-1
EndSplineSet
EndChar

StartChar: M
Encoding: 77 77 49
Width: 877
GlyphClass: 2
Flags: W
LayerCount: 2
Fore
SplineSet
718 0 m 1,0,-1
 718 583 l 1,1,-1
 459 132 l 1,2,-1
 418 132 l 1,3,-1
 159 583 l 1,4,-1
 159 0 l 1,5,-1
 89 0 l 1,6,-1
 89 710 l 1,7,-1
 161 710 l 1,8,-1
 438 224 l 1,9,-1
 717 710 l 1,10,-1
 788 710 l 1,11,-1
 788 0 l 1,12,-1
 718 0 l 1,0,-1
EndSplineSet
EndChar

StartChar: N
Encoding: 78 78 50
Width: 772
GlyphClass: 2
Flags: W
LayerCount: 2
Fore
SplineSet
159 580 m 1,0,-1
 159 0 l 1,1,-1
 89 0 l 1,2,-1
 89 710 l 1,3,-1
 143 710 l 1,4,-1
 613 119 l 1,5,-1
 613 709 l 1,6,-1
 683 709 l 1,7,-1
 683 0 l 1,8,-1
 622 0 l 1,9,-1
 159 580 l 1,0,-1
EndSplineSet
EndChar

StartChar: O
Encoding: 79 79 51
Width: 751
GlyphClass: 2
Flags: W
LayerCount: 2
Fore
SplineSet
375 -5 m 0,0,1
 301 -5 301 -5 239.5 25.5 c 128,-1,2
 178 56 178 56 134 106.5 c 128,-1,3
 90 157 90 157 66 222 c 128,-1,4
 42 287 42 287 42 355 c 0,5,6
 42 426 42 426 67.5 491 c 128,-1,7
 93 556 93 556 138 606 c 128,-1,8
 183 656 183 656 244 685.5 c 128,-1,9
 305 715 305 715 376 715 c 0,10,11
 450 715 450 715 511.5 683.5 c 128,-1,12
 573 652 573 652 616.5 601 c 128,-1,13
 660 550 660 550 684 485.5 c 128,-1,14
 708 421 708 421 708 354 c 0,15,16
 708 283 708 283 682.5 218 c 128,-1,17
 657 153 657 153 612.5 103.5 c 128,-1,18
 568 54 568 54 507 24.5 c 128,-1,19
 446 -5 446 -5 375 -5 c 0,0,1
112 355 m 0,20,21
 112 297 112 297 131 243.5 c 128,-1,22
 150 190 150 190 185 148.5 c 128,-1,23
 220 107 220 107 268 82.5 c 128,-1,24
 316 58 316 58 375 58 c 0,25,26
 435 58 435 58 484 84 c 128,-1,27
 533 110 533 110 567 152 c 128,-1,28
 601 194 601 194 619.5 247 c 128,-1,29
 638 300 638 300 638 355 c 0,30,31
 638 413 638 413 618.5 466.5 c 128,-1,32
 599 520 599 520 564 561 c 128,-1,33
 529 602 529 602 481 626.5 c 128,-1,34
 433 651 433 651 375 651 c 0,35,36
 315 651 315 651 266 625.5 c 128,-1,37
 217 600 217 600 183 558 c 128,-1,38
 149 516 149 516 130.5 463 c 128,-1,39
 112 410 112 410 112 355 c 0,20,21
EndSplineSet
EndChar

StartChar: P
Encoding: 80 80 52
Width: 622
GlyphClass: 2
Flags: W
LayerCount: 2
Fore
SplineSet
89 0 m 1,0,-1
 89 710 l 1,1,-1
 383 710 l 2,2,3
 429 710 429 710 467.5 690.5 c 128,-1,4
 506 671 506 671 534 639.5 c 128,-1,5
 562 608 562 608 578 568 c 128,-1,6
 594 528 594 528 594 487 c 0,7,8
 594 443 594 443 579 402.5 c 128,-1,9
 564 362 564 362 537 331 c 128,-1,10
 510 300 510 300 472.5 281 c 128,-1,11
 435 262 435 262 389 262 c 2,12,-1
 159 262 l 1,13,-1
 159 0 l 1,14,-1
 89 0 l 1,0,-1
159 324 m 1,15,-1
 386 324 l 2,16,17
 417 324 417 324 442.5 337.5 c 128,-1,18
 468 351 468 351 486 373.5 c 128,-1,19
 504 396 504 396 514 425.5 c 128,-1,20
 524 455 524 455 524 487 c 0,21,22
 524 520 524 520 512.5 549.5 c 128,-1,23
 501 579 501 579 481.5 601 c 128,-1,24
 462 623 462 623 435.5 635.5 c 128,-1,25
 409 648 409 648 380 648 c 2,26,-1
 159 648 l 1,27,-1
 159 324 l 1,15,-1
EndSplineSet
EndChar

StartChar: Q
Encoding: 81 81 53
Width: 749
GlyphClass: 2
Flags: W
LayerCount: 2
Fore
SplineSet
569 63 m 1,0,1
 528 31 528 31 479.5 13 c 128,-1,2
 431 -5 431 -5 375 -5 c 0,3,4
 301 -5 301 -5 239.5 26 c 128,-1,5
 178 57 178 57 134 107 c 128,-1,6
 90 157 90 157 66 222 c 128,-1,7
 42 287 42 287 42 355 c 0,8,9
 42 426 42 426 67.5 491 c 128,-1,10
 93 556 93 556 138 606 c 128,-1,11
 183 656 183 656 244 685.5 c 128,-1,12
 305 715 305 715 376 715 c 0,13,14
 450 715 450 715 511.5 683.5 c 128,-1,15
 573 652 573 652 616.5 601 c 128,-1,16
 660 550 660 550 684 485.5 c 128,-1,17
 708 421 708 421 708 354 c 0,18,19
 708 281 708 281 681.5 215 c 128,-1,20
 655 149 655 149 608 99 c 1,21,-1
 692 0 l 1,22,-1
 623 0 l 1,23,-1
 569 63 l 1,0,1
375 58 m 0,24,25
 420 58 420 58 458 72.5 c 128,-1,26
 496 87 496 87 528 112 c 1,27,-1
 439 218 l 1,28,-1
 508 218 l 1,29,-1
 565 150 l 1,30,31
 600 192 600 192 619 245.5 c 128,-1,32
 638 299 638 299 638 355 c 0,33,34
 638 413 638 413 618.5 466.5 c 128,-1,35
 599 520 599 520 564 561 c 128,-1,36
 529 602 529 602 481 627 c 128,-1,37
 433 652 433 652 375 652 c 0,38,39
 315 652 315 652 266 626.5 c 128,-1,40
 217 601 217 601 183 559 c 128,-1,41
 149 517 149 517 130.5 463.5 c 128,-1,42
 112 410 112 410 112 355 c 0,43,44
 112 297 112 297 131 243.5 c 128,-1,45
 150 190 150 190 185 148.5 c 128,-1,46
 220 107 220 107 268 82.5 c 128,-1,47
 316 58 316 58 375 58 c 0,24,25
EndSplineSet
EndChar

StartChar: R
Encoding: 82 82 54
Width: 653
GlyphClass: 2
Flags: W
LayerCount: 2
Fore
SplineSet
89 0 m 1,0,-1
 89 710 l 1,1,-1
 389 710 l 2,2,3
 435 710 435 710 473.5 690.5 c 128,-1,4
 512 671 512 671 540 639.5 c 128,-1,5
 568 608 568 608 583.5 568 c 128,-1,6
 599 528 599 528 599 487 c 0,7,8
 599 448 599 448 587.5 412.5 c 128,-1,9
 576 377 576 377 555.5 348.5 c 128,-1,10
 535 320 535 320 506 300.5 c 128,-1,11
 477 281 477 281 441 274 c 1,12,-1
 615 0 l 1,13,-1
 536 0 l 1,14,-1
 369 262 l 1,15,-1
 159 262 l 1,16,-1
 159 0 l 1,17,-1
 89 0 l 1,0,-1
159 324 m 1,18,-1
 391 324 l 2,19,20
 422 324 422 324 447.5 337.5 c 128,-1,21
 473 351 473 351 491 374 c 128,-1,22
 509 397 509 397 519 426 c 128,-1,23
 529 455 529 455 529 487 c 256,24,25
 529 519 529 519 517.5 548.5 c 128,-1,26
 506 578 506 578 486.5 600 c 128,-1,27
 467 622 467 622 440.5 635 c 128,-1,28
 414 648 414 648 385 648 c 2,29,-1
 159 648 l 1,30,-1
 159 324 l 1,18,-1
EndSplineSet
EndChar

StartChar: S
Encoding: 83 83 55
Width: 607
GlyphClass: 2
Flags: W
LayerCount: 2
Fore
SplineSet
504 577 m 1,0,1
 474 611 474 611 424 632 c 128,-1,2
 374 653 374 653 310 653 c 0,3,4
 216 653 216 653 173 617.5 c 128,-1,5
 130 582 130 582 130 521 c 0,6,7
 130 489 130 489 141.5 468.5 c 128,-1,8
 153 448 153 448 177 433 c 128,-1,9
 201 418 201 418 238.5 407 c 128,-1,10
 276 396 276 396 327 385 c 0,11,12
 384 373 384 373 429.5 358 c 128,-1,13
 475 343 475 343 507 320.5 c 128,-1,14
 539 298 539 298 556 266 c 128,-1,15
 573 234 573 234 573 186 c 0,16,17
 573 137 573 137 554 101 c 128,-1,18
 535 65 535 65 501 41 c 128,-1,19
 467 17 467 17 420 5.5 c 128,-1,20
 373 -6 373 -6 317 -6 c 0,21,22
 152 -6 152 -6 32 97 c 1,23,-1
 67 154 l 1,24,25
 86 134 86 134 112.5 116 c 128,-1,26
 139 98 139 98 171.5 84.5 c 128,-1,27
 204 71 204 71 241 63.5 c 128,-1,28
 278 56 278 56 319 56 c 0,29,30
 404 56 404 56 451.5 86.5 c 128,-1,31
 499 117 499 117 499 179 c 0,32,33
 499 212 499 212 485.5 234.5 c 128,-1,34
 472 257 472 257 445 273.5 c 128,-1,35
 418 290 418 290 378 302 c 128,-1,36
 338 314 338 314 285 326 c 0,37,38
 229 339 229 339 187 353 c 128,-1,39
 145 367 145 367 116 388 c 128,-1,40
 87 409 87 409 72.5 438.5 c 128,-1,41
 58 468 58 468 58 511 c 0,42,43
 58 560 58 560 76.5 598.5 c 128,-1,44
 95 637 95 637 129 662.5 c 128,-1,45
 163 688 163 688 209 701.5 c 128,-1,46
 255 715 255 715 311 715 c 0,47,48
 382 715 382 715 437.5 693.5 c 128,-1,49
 493 672 493 672 538 633 c 1,50,-1
 504 577 l 1,0,1
EndSplineSet
EndChar

StartChar: T
Encoding: 84 84 56
Width: 610
GlyphClass: 2
Flags: W
LayerCount: 2
Fore
SplineSet
593 648 m 1,0,-1
 340 648 l 1,1,-1
 340 0 l 1,2,-1
 270 0 l 1,3,-1
 270 648 l 1,4,-1
 17 648 l 1,5,-1
 17 710 l 1,6,-1
 593 710 l 1,7,-1
 593 648 l 1,0,-1
EndSplineSet
EndChar

StartChar: U
Encoding: 85 85 57
Width: 755
GlyphClass: 2
Flags: W
LayerCount: 2
Fore
SplineSet
377 58 m 0,0,1
 444 58 444 58 488.5 83.5 c 128,-1,2
 533 109 533 109 559.5 150.5 c 128,-1,3
 586 192 586 192 596.5 245 c 128,-1,4
 607 298 607 298 607 352 c 2,5,-1
 607 710 l 1,6,-1
 677 710 l 1,7,-1
 677 352 l 2,8,9
 677 280 677 280 661 215.5 c 128,-1,10
 645 151 645 151 609.5 102 c 128,-1,11
 574 53 574 53 517 24 c 128,-1,12
 460 -5 460 -5 378 -5 c 0,13,14
 294 -5 294 -5 236.5 25.5 c 128,-1,15
 179 56 179 56 144 106 c 128,-1,16
 109 156 109 156 94 220 c 128,-1,17
 79 284 79 284 79 352 c 2,18,-1
 79 710 l 1,19,-1
 148 710 l 1,20,-1
 148 352 l 2,21,22
 148 296 148 296 159 243 c 128,-1,23
 170 190 170 190 196.5 149 c 128,-1,24
 223 108 223 108 267 83 c 128,-1,25
 311 58 311 58 377 58 c 0,0,1
EndSplineSet
EndChar

StartChar: V
Encoding: 86 86 58
Width: 679
GlyphClass: 2
Flags: W
LayerCount: 2
Fore
SplineSet
86 710 m 1,0,-1
 340 87 l 1,1,-1
 593 710 l 1,2,-1
 666 710 l 1,3,-1
 370 0 l 1,4,-1
 309 0 l 1,5,-1
 13 710 l 1,6,-1
 86 710 l 1,0,-1
EndSplineSet
EndChar

StartChar: W
Encoding: 87 87 59
Width: 1046
GlyphClass: 2
Flags: W
LayerCount: 2
Fore
SplineSet
356 705 m 1,0,-1
 422 705 l 1,1,-1
 522 453 l 1,2,-1
 623 705 l 1,3,-1
 690 705 l 1,4,-1
 566 402 l 1,5,-1
 702 81 l 1,6,-1
 959 710 l 1,7,-1
 1035 710 l 1,8,-1
 734 0 l 1,9,-1
 672 0 l 1,10,-1
 523 351 l 1,11,-1
 373 0 l 1,12,-1
 312 0 l 1,13,-1
 12 710 l 1,14,-1
 87 710 l 1,15,-1
 345 81 l 1,16,-1
 480 402 l 1,17,-1
 356 705 l 1,0,-1
EndSplineSet
Substitution2: "'ss01' Style Set 1 in Latin lookup 8 subtable" W.alt
Substitution2: "'salt' Stylistic Alternatives in Latin lookup 5 subtable" W.alt
Substitution2: "'aalt' Access All Alternates in Latin lookup 0 subtable" W.alt
EndChar

StartChar: X
Encoding: 88 88 60
Width: 632
GlyphClass: 2
Flags: W
LayerCount: 2
Fore
SplineSet
84 710 m 1,0,-1
 317 400 l 1,1,-1
 550 710 l 1,2,-1
 627 710 l 1,3,-1
 354 350 l 1,4,-1
 619 0 l 1,5,-1
 542 0 l 1,6,-1
 317 300 l 1,7,-1
 92 0 l 1,8,-1
 13 0 l 1,9,-1
 278 350 l 1,10,-1
 5 710 l 1,11,-1
 84 710 l 1,0,-1
EndSplineSet
EndChar

StartChar: Y
Encoding: 89 89 61
Width: 651
GlyphClass: 2
Flags: W
LayerCount: 2
Fore
SplineSet
93 710 m 1,0,-1
 325 328 l 1,1,-1
 559 710 l 1,2,-1
 635 710 l 1,3,-1
 360 264 l 1,4,-1
 360 0 l 1,5,-1
 290 0 l 1,6,-1
 290 266 l 1,7,-1
 16 710 l 1,8,-1
 93 710 l 1,0,-1
EndSplineSet
EndChar

StartChar: Z
Encoding: 90 90 62
Width: 629
GlyphClass: 2
Flags: W
LayerCount: 2
Fore
SplineSet
31 55 m 1,0,-1
 514 648 l 1,1,-1
 39 648 l 1,2,-1
 39 710 l 1,3,-1
 595 710 l 1,4,-1
 595 655 l 1,5,-1
 118 62 l 1,6,-1
 594 62 l 1,7,-1
 594 0 l 1,8,-1
 31 0 l 1,9,-1
 31 55 l 1,0,-1
EndSplineSet
EndChar

StartChar: bracketleft
Encoding: 91 91 63
Width: 258
GlyphClass: 2
Flags: W
LayerCount: 2
Fore
SplineSet
88 -40 m 1,0,-1
 88 740 l 1,1,-1
 207 740 l 1,2,-1
 207 683 l 1,3,-1
 152 683 l 1,4,-1
 152 17 l 1,5,-1
 207 17 l 1,6,-1
 207 -40 l 1,7,-1
 88 -40 l 1,0,-1
EndSplineSet
EndChar

StartChar: backslash
Encoding: 92 92 64
Width: 568
GlyphClass: 2
Flags: W
LayerCount: 2
Fore
SplineSet
105 710 m 1,0,-1
 540 0 l 1,1,-1
 464 0 l 1,2,-1
 28 710 l 1,3,-1
 105 710 l 1,0,-1
EndSplineSet
EndChar

StartChar: bracketright
Encoding: 93 93 65
Width: 258
GlyphClass: 2
Flags: W
LayerCount: 2
Fore
SplineSet
50 -40 m 1,0,-1
 50 17 l 1,1,-1
 106 17 l 1,2,-1
 106 683 l 1,3,-1
 50 683 l 1,4,-1
 50 740 l 1,5,-1
 170 740 l 1,6,-1
 170 -40 l 1,7,-1
 50 -40 l 1,0,-1
EndSplineSet
EndChar

StartChar: asciicircum
Encoding: 94 94 66
Width: 539
GlyphClass: 2
Flags: W
LayerCount: 2
Fore
SplineSet
43 303 m 1,0,-1
 241 710 l 1,1,-1
 299 710 l 1,2,-1
 496 303 l 1,3,-1
 436 303 l 1,4,-1
 270 646 l 1,5,-1
 101 303 l 1,6,-1
 43 303 l 1,0,-1
EndSplineSet
EndChar

StartChar: underscore
Encoding: 95 95 67
Width: 511
GlyphClass: 2
Flags: W
LayerCount: 2
Fore
SplineSet
65 -62 m 1,0,-1
 65 0 l 1,1,-1
 446 0 l 1,2,-1
 446 -62 l 1,3,-1
 65 -62 l 1,0,-1
EndSplineSet
EndChar

StartChar: grave
Encoding: 96 96 68
Width: 222
GlyphClass: 2
Flags: W
LayerCount: 2
Fore
SplineSet
49 730 m 1,0,-1
 120 730 l 1,1,-1
 180 637 l 1,2,-1
 136 620 l 1,3,-1
 49 730 l 1,0,-1
EndSplineSet
EndChar

StartChar: a
Encoding: 97 97 69
Width: 545
GlyphClass: 2
Flags: W
LayerCount: 2
Fore
SplineSet
206 -10 m 0,0,1
 169 -10 169 -10 137.5 2.5 c 128,-1,2
 106 15 106 15 82.5 37 c 128,-1,3
 59 59 59 59 46 88.5 c 128,-1,4
 33 118 33 118 33 152 c 256,5,6
 33 186 33 186 49 215 c 128,-1,7
 65 244 65 244 94 265 c 128,-1,8
 123 286 123 286 163 297.5 c 128,-1,9
 203 309 203 309 251 309 c 0,10,11
 291 309 291 309 332 302 c 128,-1,12
 373 295 373 295 405 282 c 1,13,-1
 405 329 l 2,14,15
 405 398 405 398 366 438.5 c 128,-1,16
 327 479 327 479 258 479 c 0,17,18
 218 479 218 479 176 463 c 128,-1,19
 134 447 134 447 91 417 c 1,20,-1
 67 462 l 1,21,22
 168 530 168 530 263 530 c 0,23,24
 361 530 361 530 417 475 c 128,-1,25
 473 420 473 420 473 323 c 2,26,-1
 473 88 l 2,27,28
 473 60 473 60 498 60 c 1,29,-1
 498 0 l 1,30,31
 481 -3 481 -3 472 -3 c 0,32,33
 446 -3 446 -3 431.5 10 c 128,-1,34
 417 23 417 23 416 46 c 2,35,-1
 414 87 l 1,36,37
 378 40 378 40 323.5 15 c 128,-1,38
 269 -10 269 -10 206 -10 c 0,0,1
222 42 m 0,39,40
 275 42 275 42 319.5 62 c 128,-1,41
 364 82 364 82 387 115 c 0,42,43
 396 124 396 124 400.5 134.5 c 128,-1,44
 405 145 405 145 405 154 c 2,45,-1
 405 239 l 1,46,47
 371 252 371 252 334.5 259 c 128,-1,48
 298 266 298 266 260 266 c 0,49,50
 188 266 188 266 143 236 c 128,-1,51
 98 206 98 206 98 157 c 0,52,53
 98 133 98 133 107.5 112 c 128,-1,54
 117 91 117 91 133.5 75.5 c 128,-1,55
 150 60 150 60 173 51 c 128,-1,56
 196 42 196 42 222 42 c 0,39,40
EndSplineSet
Substitution2: "'ss02' Style Set 2 in Latin lookup 9 subtable" a.alt2
Substitution2: "'ss01' Style Set 1 in Latin lookup 8 subtable" a.alt
Substitution2: "'salt' Stylistic Alternatives in Latin lookup 5 subtable" a.alt
Substitution2: "'smcp' Lowercase to Small Capitals in Latin lookup 2 subtable" A.sc
AlternateSubs2: "'aalt' Access All Alternates in Latin lookup 1 subtable" A.sc a.alt a.alt2
EndChar

StartChar: b
Encoding: 98 98 70
Width: 617
GlyphClass: 2
Flags: W
LayerCount: 2
Fore
SplineSet
330 -10 m 0,0,1
 268 -10 268 -10 216.5 21 c 128,-1,2
 165 52 165 52 136 101 c 1,3,-1
 136 0 l 1,4,-1
 75 0 l 1,5,-1
 75 730 l 1,6,-1
 143 730 l 1,7,-1
 143 412 l 1,8,9
 178 465 178 465 227 497.5 c 128,-1,10
 276 530 276 530 341 530 c 0,11,12
 396 530 396 530 439.5 507 c 128,-1,13
 483 484 483 484 513.5 445.5 c 128,-1,14
 544 407 544 407 560.5 358.5 c 128,-1,15
 577 310 577 310 577 259 c 0,16,17
 577 204 577 204 558 155 c 128,-1,18
 539 106 539 106 506 69.5 c 128,-1,19
 473 33 473 33 427.5 11.5 c 128,-1,20
 382 -10 382 -10 330 -10 c 0,0,1
314 50 m 0,21,22
 357 50 357 50 392.5 67.5 c 128,-1,23
 428 85 428 85 453.5 114.5 c 128,-1,24
 479 144 479 144 493.5 181.5 c 128,-1,25
 508 219 508 219 508 259 c 0,26,27
 508 300 508 300 494.5 338 c 128,-1,28
 481 376 481 376 456.5 405.5 c 128,-1,29
 432 435 432 435 397.5 452.5 c 128,-1,30
 363 470 363 470 322 470 c 0,31,32
 291 470 291 470 264 459.5 c 128,-1,33
 237 449 237 449 214 431 c 128,-1,34
 191 413 191 413 173 389.5 c 128,-1,35
 155 366 155 366 143 340 c 1,36,-1
 143 178 l 1,37,38
 147 151 147 151 164.5 127.5 c 128,-1,39
 182 104 182 104 206.5 87 c 128,-1,40
 231 70 231 70 259.5 60 c 128,-1,41
 288 50 288 50 314 50 c 0,21,22
EndSplineSet
Substitution2: "'smcp' Lowercase to Small Capitals in Latin lookup 2 subtable" B.sc
Substitution2: "'aalt' Access All Alternates in Latin lookup 0 subtable" B.sc
EndChar

StartChar: c
Encoding: 99 99 71
Width: 549
GlyphClass: 2
Flags: W
LayerCount: 2
Fore
SplineSet
39 262 m 0,0,1
 39 317 39 317 58 366 c 128,-1,2
 77 415 77 415 111.5 451.5 c 128,-1,3
 146 488 146 488 194 509 c 128,-1,4
 242 530 242 530 300 530 c 0,5,6
 374 530 374 530 429 496.5 c 128,-1,7
 484 463 484 463 512 406 c 1,8,-1
 446 385 l 1,9,10
 424 425 424 425 384.5 447.5 c 128,-1,11
 345 470 345 470 297 470 c 0,12,13
 257 470 257 470 222.5 454 c 128,-1,14
 188 438 188 438 162.5 410.5 c 128,-1,15
 137 383 137 383 122.5 345 c 128,-1,16
 108 307 108 307 108 262 c 0,17,18
 108 218 108 218 123 179 c 128,-1,19
 138 140 138 140 164 111.5 c 128,-1,20
 190 83 190 83 224.5 66.5 c 128,-1,21
 259 50 259 50 298 50 c 0,22,23
 323 50 323 50 347.5 57 c 128,-1,24
 372 64 372 64 393 76.5 c 128,-1,25
 414 89 414 89 429 105 c 128,-1,26
 444 121 444 121 450 139 c 1,27,-1
 517 119 l 1,28,29
 506 91 506 91 485 67.5 c 128,-1,30
 464 44 464 44 435.5 26.5 c 128,-1,31
 407 9 407 9 372.5 -0.5 c 128,-1,32
 338 -10 338 -10 301 -10 c 0,33,34
 244 -10 244 -10 196 11.5 c 128,-1,35
 148 33 148 33 113 70.5 c 128,-1,36
 78 108 78 108 58.5 157 c 128,-1,37
 39 206 39 206 39 262 c 0,0,1
EndSplineSet
Substitution2: "'smcp' Lowercase to Small Capitals in Latin lookup 2 subtable" C.sc
Substitution2: "'aalt' Access All Alternates in Latin lookup 0 subtable" C.sc
EndChar

StartChar: d
Encoding: 100 100 72
Width: 622
GlyphClass: 2
Flags: W
LayerCount: 2
Fore
SplineSet
289 -10 m 0,0,1
 235 -10 235 -10 189 12.5 c 128,-1,2
 143 35 143 35 110 72 c 128,-1,3
 77 109 77 109 58.5 157.5 c 128,-1,4
 40 206 40 206 40 259 c 0,5,6
 40 314 40 314 58 363.5 c 128,-1,7
 76 413 76 413 107.5 450 c 128,-1,8
 139 487 139 487 182.5 508.5 c 128,-1,9
 226 530 226 530 278 530 c 0,10,11
 344 530 344 530 395 495.5 c 128,-1,12
 446 461 446 461 475 412 c 1,13,-1
 475 730 l 1,14,-1
 543 730 l 1,15,-1
 543 88 l 2,16,17
 543 60 543 60 567 60 c 1,18,-1
 567 0 l 1,19,20
 552 -3 552 -3 543 -3 c 0,21,22
 519 -3 519 -3 501 12.5 c 128,-1,23
 483 28 483 28 483 50 c 2,24,-1
 483 101 l 1,25,26
 452 50 452 50 399 20 c 128,-1,27
 346 -10 346 -10 289 -10 c 0,0,1
304 50 m 0,28,29
 329 50 329 50 357.5 60 c 128,-1,30
 386 70 386 70 411 87.5 c 128,-1,31
 436 105 436 105 453.5 128.5 c 128,-1,32
 471 152 471 152 475 179 c 1,33,-1
 475 340 l 1,34,35
 465 367 465 367 446 390.5 c 128,-1,36
 427 414 427 414 402.5 432 c 128,-1,37
 378 450 378 450 350 460 c 128,-1,38
 322 470 322 470 295 470 c 0,39,40
 253 470 253 470 219 452 c 128,-1,41
 185 434 185 434 160.5 404.5 c 128,-1,42
 136 375 136 375 123 337 c 128,-1,43
 110 299 110 299 110 259 c 0,44,45
 110 217 110 217 125 179 c 128,-1,46
 140 141 140 141 166 112.5 c 128,-1,47
 192 84 192 84 227.5 67 c 128,-1,48
 263 50 263 50 304 50 c 0,28,29
EndSplineSet
Substitution2: "'ss01' Style Set 1 in Latin lookup 8 subtable" d.alt
Substitution2: "'salt' Stylistic Alternatives in Latin lookup 5 subtable" d.alt
Substitution2: "'smcp' Lowercase to Small Capitals in Latin lookup 2 subtable" D.sc
AlternateSubs2: "'aalt' Access All Alternates in Latin lookup 1 subtable" D.sc d.alt
EndChar

StartChar: e
Encoding: 101 101 73
Width: 587
GlyphClass: 2
Flags: W
LayerCount: 2
Fore
SplineSet
300 -10 m 0,0,1
 243 -10 243 -10 195.5 11.5 c 128,-1,2
 148 33 148 33 113 70.5 c 128,-1,3
 78 108 78 108 58.5 157 c 128,-1,4
 39 206 39 206 39 262 c 0,5,6
 39 317 39 317 58.5 365.5 c 128,-1,7
 78 414 78 414 112.5 450.5 c 128,-1,8
 147 487 147 487 195 508.5 c 128,-1,9
 243 530 243 530 299 530 c 0,10,11
 356 530 356 530 403.5 508.5 c 128,-1,12
 451 487 451 487 485 450 c 128,-1,13
 519 413 519 413 538 365 c 128,-1,14
 557 317 557 317 557 263 c 0,15,16
 557 255 557 255 557 247 c 128,-1,17
 557 239 557 239 556 236 c 2,18,-1
 110 236 l 1,19,20
 113 194 113 194 129.5 158.5 c 128,-1,21
 146 123 146 123 172 97 c 128,-1,22
 198 71 198 71 231.5 56.5 c 128,-1,23
 265 42 265 42 303 42 c 0,24,25
 328 42 328 42 353 49 c 128,-1,26
 378 56 378 56 399 68 c 128,-1,27
 420 80 420 80 437 97.5 c 128,-1,28
 454 115 454 115 463 136 c 1,29,-1
 522 120 l 1,30,31
 510 91 510 91 488 67.5 c 128,-1,32
 466 44 466 44 437 26.5 c 128,-1,33
 408 9 408 9 373 -0.5 c 128,-1,34
 338 -10 338 -10 300 -10 c 0,0,1
492 288 m 1,35,36
 489 330 489 330 472.5 364.5 c 128,-1,37
 456 399 456 399 430.5 424 c 128,-1,38
 405 449 405 449 371.5 463 c 128,-1,39
 338 477 338 477 300 477 c 256,40,41
 262 477 262 477 228 463 c 128,-1,42
 194 449 194 449 168.5 424 c 128,-1,43
 143 399 143 399 127.5 364 c 128,-1,44
 112 329 112 329 109 288 c 1,45,-1
 492 288 l 1,35,36
EndSplineSet
Substitution2: "'smcp' Lowercase to Small Capitals in Latin lookup 2 subtable" E.sc
Substitution2: "'aalt' Access All Alternates in Latin lookup 0 subtable" E.sc
EndChar

StartChar: f
Encoding: 102 102 74
Width: 330
GlyphClass: 2
Flags: W
LayerCount: 2
Fore
SplineSet
100 0 m 1,0,-1
 100 467 l 1,1,-1
 28 467 l 1,2,-1
 28 521 l 1,3,-1
 100 521 l 1,4,-1
 100 535 l 2,5,6
 100 631 100 631 141 685.5 c 128,-1,7
 182 740 182 740 253 740 c 0,8,9
 284 740 284 740 313 731 c 128,-1,10
 342 722 342 722 363 707 c 1,11,-1
 342 658 l 1,12,13
 328 669 328 669 307.5 675 c 128,-1,14
 287 681 287 681 266 681 c 0,15,16
 218 681 218 681 193 644 c 128,-1,17
 168 607 168 607 168 537 c 2,18,-1
 168 521 l 1,19,-1
 312 521 l 1,20,-1
 312 467 l 1,21,-1
 168 467 l 1,22,-1
 168 0 l 1,23,-1
 100 0 l 1,0,-1
EndSplineSet
Substitution2: "'smcp' Lowercase to Small Capitals in Latin lookup 2 subtable" F.sc
Substitution2: "'aalt' Access All Alternates in Latin lookup 0 subtable" F.sc
EndChar

StartChar: g
Encoding: 103 103 75
Width: 618
GlyphClass: 2
Flags: W
LayerCount: 2
Fore
SplineSet
284 -7 m 0,0,1
 230 -7 230 -7 185.5 15.5 c 128,-1,2
 141 38 141 38 108.5 75 c 128,-1,3
 76 112 76 112 58 160 c 128,-1,4
 40 208 40 208 40 259 c 0,5,6
 40 313 40 313 57.5 362.5 c 128,-1,7
 75 412 75 412 107 449 c 128,-1,8
 139 486 139 486 183.5 508 c 128,-1,9
 228 530 228 530 282 530 c 0,10,11
 349 530 349 530 398 496.5 c 128,-1,12
 447 463 447 463 482 412 c 1,13,-1
 482 521 l 1,14,-1
 543 521 l 1,15,-1
 543 -2 l 2,16,17
 543 -56 543 -56 522.5 -97.5 c 128,-1,18
 502 -139 502 -139 467.5 -167 c 128,-1,19
 433 -195 433 -195 386.5 -209 c 128,-1,20
 340 -223 340 -223 288 -223 c 0,21,22
 198 -223 198 -223 143 -191 c 128,-1,23
 88 -159 88 -159 54 -105 c 1,24,-1
 96 -72 l 1,25,26
 127 -122 127 -122 178 -145.5 c 128,-1,27
 229 -169 229 -169 288 -169 c 0,28,29
 326 -169 326 -169 360 -158.5 c 128,-1,30
 394 -148 394 -148 419.5 -127.5 c 128,-1,31
 445 -107 445 -107 460 -75.5 c 128,-1,32
 475 -44 475 -44 475 -2 c 2,33,-1
 475 101 l 1,34,35
 445 51 445 51 393 22 c 128,-1,36
 341 -7 341 -7 284 -7 c 0,0,1
303 50 m 0,37,38
 333 50 333 50 362 61 c 128,-1,39
 391 72 391 72 414.5 90.5 c 128,-1,40
 438 109 438 109 454 132 c 128,-1,41
 470 155 470 155 475 179 c 1,42,-1
 475 340 l 1,43,44
 464 368 464 368 445 392 c 128,-1,45
 426 416 426 416 402 433 c 128,-1,46
 378 450 378 450 350.5 460 c 128,-1,47
 323 470 323 470 295 470 c 0,48,49
 251 470 251 470 216.5 451.5 c 128,-1,50
 182 433 182 433 158 403 c 128,-1,51
 134 373 134 373 121.5 335 c 128,-1,52
 109 297 109 297 109 258 c 0,53,54
 109 216 109 216 124 178 c 128,-1,55
 139 140 139 140 165.5 111.5 c 128,-1,56
 192 83 192 83 227 66.5 c 128,-1,57
 262 50 262 50 303 50 c 0,37,38
EndSplineSet
Substitution2: "'smcp' Lowercase to Small Capitals in Latin lookup 2 subtable" G.sc
Substitution2: "'aalt' Access All Alternates in Latin lookup 0 subtable" G.sc
EndChar

StartChar: h
Encoding: 104 104 76
Width: 583
GlyphClass: 2
Flags: W
LayerCount: 2
Fore
SplineSet
513 0 m 1,0,-1
 445 0 l 1,1,-1
 445 291 l 2,2,3
 445 380 445 380 414.5 424 c 128,-1,4
 384 468 384 468 325 468 c 0,5,6
 296 468 296 468 267.5 456.5 c 128,-1,7
 239 445 239 445 214 425 c 128,-1,8
 189 405 189 405 170.5 378 c 128,-1,9
 152 351 152 351 143 319 c 1,10,-1
 143 0 l 1,11,-1
 75 0 l 1,12,-1
 75 730 l 1,13,-1
 143 730 l 1,14,-1
 143 403 l 1,15,16
 174 462 174 462 229 496 c 128,-1,17
 284 530 284 530 348 530 c 0,18,19
 393 530 393 530 424 513.5 c 128,-1,20
 455 497 455 497 475 467.5 c 128,-1,21
 495 438 495 438 504 396.5 c 128,-1,22
 513 355 513 355 513 305 c 2,23,-1
 513 0 l 1,0,-1
EndSplineSet
Substitution2: "'smcp' Lowercase to Small Capitals in Latin lookup 2 subtable" H.sc
Substitution2: "'aalt' Access All Alternates in Latin lookup 0 subtable" H.sc
EndChar

StartChar: i
Encoding: 105 105 77
Width: 218
GlyphClass: 2
Flags: W
LayerCount: 2
Fore
SplineSet
75 0 m 1,0,-1
 75 521 l 1,1,-1
 143 521 l 1,2,-1
 143 0 l 1,3,-1
 75 0 l 1,0,-1
75 630 m 1,4,-1
 75 730 l 1,5,-1
 143 730 l 1,6,-1
 143 630 l 1,7,-1
 75 630 l 1,4,-1
EndSplineSet
Substitution2: "'smcp' Lowercase to Small Capitals in Latin lookup 2 subtable" I.sc
Substitution2: "'aalt' Access All Alternates in Latin lookup 0 subtable" I.sc
EndChar

StartChar: j
Encoding: 106 106 78
Width: 225
GlyphClass: 2
Flags: W
LayerCount: 2
Fore
SplineSet
-3 -181 m 0,0,1
 -36 -181 -36 -181 -65 -172 c 128,-1,2
 -94 -163 -94 -163 -117 -142 c 1,3,-1
 -84 -96 l 1,4,5
 -68 -110 -68 -110 -49 -115 c 128,-1,6
 -30 -120 -30 -120 -11 -120 c 0,7,8
 7 -120 7 -120 23.5 -113 c 128,-1,9
 40 -106 40 -106 53 -93.5 c 128,-1,10
 66 -81 66 -81 74 -64 c 128,-1,11
 82 -47 82 -47 82 -27 c 2,12,-1
 82 521 l 1,13,-1
 150 521 l 1,14,-1
 150 -23 l 2,15,16
 150 -58 150 -58 137 -87 c 128,-1,17
 124 -116 124 -116 102.5 -137 c 128,-1,18
 81 -158 81 -158 53.5 -169.5 c 128,-1,19
 26 -181 26 -181 -3 -181 c 0,0,1
82 630 m 1,20,-1
 82 730 l 1,21,-1
 150 730 l 1,22,-1
 150 630 l 1,23,-1
 82 630 l 1,20,-1
EndSplineSet
Substitution2: "'ss01' Style Set 1 in Latin lookup 8 subtable" j.alt
Substitution2: "'salt' Stylistic Alternatives in Latin lookup 5 subtable" j.alt
Substitution2: "'smcp' Lowercase to Small Capitals in Latin lookup 2 subtable" J.sc
AlternateSubs2: "'aalt' Access All Alternates in Latin lookup 1 subtable" J.sc j.alt
EndChar

StartChar: k
Encoding: 107 107 79
Width: 530
GlyphClass: 2
Flags: W
LayerCount: 2
Fore
SplineSet
447 0 m 1,0,-1
 255 267 l 1,1,-1
 143 163 l 1,2,-1
 143 0 l 1,3,-1
 75 0 l 1,4,-1
 75 730 l 1,5,-1
 143 730 l 1,6,-1
 143 234 l 1,7,-1
 436 520 l 1,8,-1
 513 520 l 1,9,-1
 300 307 l 1,10,-1
 521 0 l 1,11,-1
 447 0 l 1,0,-1
EndSplineSet
Substitution2: "'smcp' Lowercase to Small Capitals in Latin lookup 2 subtable" K.sc
Substitution2: "'aalt' Access All Alternates in Latin lookup 0 subtable" K.sc
EndChar

StartChar: l
Encoding: 108 108 80
Width: 272
GlyphClass: 2
Flags: W
LayerCount: 2
Fore
SplineSet
78 730 m 1,0,-1
 146 730 l 1,1,-1
 146 118 l 2,2,3
 146 89 146 89 162 72.5 c 128,-1,4
 178 56 178 56 207 56 c 0,5,6
 218 56 218 56 233 59 c 128,-1,7
 248 62 248 62 261 67 c 1,8,-1
 273 12 l 1,9,10
 254 4 254 4 226.5 -1 c 128,-1,11
 199 -6 199 -6 179 -6 c 0,12,13
 132 -6 132 -6 105 20.5 c 128,-1,14
 78 47 78 47 78 95 c 2,15,-1
 78 730 l 1,0,-1
EndSplineSet
Substitution2: "'ss01' Style Set 1 in Latin lookup 8 subtable" l.alt
Substitution2: "'salt' Stylistic Alternatives in Latin lookup 5 subtable" l.alt
Substitution2: "'smcp' Lowercase to Small Capitals in Latin lookup 2 subtable" L.sc
AlternateSubs2: "'aalt' Access All Alternates in Latin lookup 1 subtable" L.sc l.alt
EndChar

StartChar: m
Encoding: 109 109 81
Width: 919
GlyphClass: 2
Flags: W
LayerCount: 2
Fore
SplineSet
850 0 m 1,0,-1
 782 0 l 1,1,-1
 782 291 l 2,2,3
 782 382 782 382 753 425 c 128,-1,4
 724 468 724 468 667 468 c 0,5,6
 637 468 637 468 610.5 457 c 128,-1,7
 584 446 584 446 561.5 426 c 128,-1,8
 539 406 539 406 522 378.5 c 128,-1,9
 505 351 505 351 496 318 c 1,10,-1
 496 0 l 1,11,-1
 428 0 l 1,12,-1
 428 291 l 2,13,14
 428 384 428 384 400 426 c 128,-1,15
 372 468 372 468 314 468 c 0,16,17
 255 468 255 468 209 427 c 128,-1,18
 163 386 163 386 143 319 c 1,19,-1
 143 0 l 1,20,-1
 75 0 l 1,21,-1
 75 521 l 1,22,-1
 137 521 l 1,23,-1
 137 403 l 1,24,25
 169 463 169 463 221 496.5 c 128,-1,26
 273 530 273 530 336 530 c 0,27,28
 402 530 402 530 441.5 493 c 128,-1,29
 481 456 481 456 490 396 c 1,30,31
 563 530 563 530 691 530 c 0,32,33
 735 530 735 530 765.5 514 c 128,-1,34
 796 498 796 498 814.5 468.5 c 128,-1,35
 833 439 833 439 841.5 397.5 c 128,-1,36
 850 356 850 356 850 305 c 2,37,-1
 850 0 l 1,0,-1
EndSplineSet
Substitution2: "'smcp' Lowercase to Small Capitals in Latin lookup 2 subtable" M.sc
Substitution2: "'aalt' Access All Alternates in Latin lookup 0 subtable" M.sc
EndChar

StartChar: n
Encoding: 110 110 82
Width: 583
GlyphClass: 2
Flags: W
LayerCount: 2
Fore
SplineSet
513 0 m 1,0,-1
 445 0 l 1,1,-1
 445 291 l 2,2,3
 445 384 445 384 417.5 426 c 128,-1,4
 390 468 390 468 333 468 c 0,5,6
 303 468 303 468 273 457 c 128,-1,7
 243 446 243 446 217.5 426 c 128,-1,8
 192 406 192 406 172 378.5 c 128,-1,9
 152 351 152 351 143 319 c 1,10,-1
 143 0 l 1,11,-1
 75 0 l 1,12,-1
 75 521 l 1,13,-1
 137 521 l 1,14,-1
 137 403 l 1,15,16
 169 460 169 460 228.5 495 c 128,-1,17
 288 530 288 530 358 530 c 0,18,19
 401 530 401 530 431 514 c 128,-1,20
 461 498 461 498 479 469 c 128,-1,21
 497 440 497 440 505 398 c 128,-1,22
 513 356 513 356 513 305 c 2,23,-1
 513 0 l 1,0,-1
EndSplineSet
Substitution2: "'smcp' Lowercase to Small Capitals in Latin lookup 2 subtable" N.sc
Substitution2: "'aalt' Access All Alternates in Latin lookup 0 subtable" N.sc
EndChar

StartChar: o
Encoding: 111 111 83
Width: 595
GlyphClass: 2
Flags: W
LayerCount: 2
Fore
SplineSet
297 -10 m 256,0,1
 240 -10 240 -10 193 11.5 c 128,-1,2
 146 33 146 33 111.5 70 c 128,-1,3
 77 107 77 107 58 156 c 128,-1,4
 39 205 39 205 39 259 c 0,5,6
 39 314 39 314 58.5 363 c 128,-1,7
 78 412 78 412 112.5 449 c 128,-1,8
 147 486 147 486 194 508 c 128,-1,9
 241 530 241 530 297 530 c 256,10,11
 353 530 353 530 400.5 508 c 128,-1,12
 448 486 448 486 482.5 449 c 128,-1,13
 517 412 517 412 536.5 363 c 128,-1,14
 556 314 556 314 556 259 c 0,15,16
 556 205 556 205 537 156 c 128,-1,17
 518 107 518 107 483.5 70 c 128,-1,18
 449 33 449 33 401.5 11.5 c 128,-1,19
 354 -10 354 -10 297 -10 c 256,0,1
108 258 m 256,20,21
 108 214 108 214 123 176.5 c 128,-1,22
 138 139 138 139 163.5 110.5 c 128,-1,23
 189 82 189 82 223.5 66 c 128,-1,24
 258 50 258 50 297 50 c 256,25,26
 336 50 336 50 370.5 66.5 c 128,-1,27
 405 83 405 83 431 111.5 c 128,-1,28
 457 140 457 140 472 178 c 128,-1,29
 487 216 487 216 487 260 c 0,30,31
 487 303 487 303 472 341.5 c 128,-1,32
 457 380 457 380 431 408.5 c 128,-1,33
 405 437 405 437 370.5 453.5 c 128,-1,34
 336 470 336 470 297 470 c 256,35,36
 258 470 258 470 224 453.5 c 128,-1,37
 190 437 190 437 164 408 c 128,-1,38
 138 379 138 379 123 340.5 c 128,-1,39
 108 302 108 302 108 258 c 256,20,21
EndSplineSet
Substitution2: "'smcp' Lowercase to Small Capitals in Latin lookup 2 subtable" O.sc
Substitution2: "'aalt' Access All Alternates in Latin lookup 0 subtable" O.sc
EndChar

StartChar: p
Encoding: 112 112 84
Width: 617
GlyphClass: 2
Flags: W
LayerCount: 2
Fore
SplineSet
341 -10 m 0,0,1
 275 -10 275 -10 224.5 23.5 c 128,-1,2
 174 57 174 57 143 108 c 1,3,-1
 143 -213 l 1,4,-1
 75 -213 l 1,5,-1
 75 521 l 1,6,-1
 136 521 l 1,7,-1
 136 420 l 1,8,9
 168 469 168 469 219 499.5 c 128,-1,10
 270 530 270 530 330 530 c 0,11,12
 384 530 384 530 429 507.5 c 128,-1,13
 474 485 474 485 507 447.5 c 128,-1,14
 540 410 540 410 558.5 361 c 128,-1,15
 577 312 577 312 577 260 c 0,16,17
 577 205 577 205 560 156 c 128,-1,18
 543 107 543 107 511.5 70 c 128,-1,19
 480 33 480 33 436.5 11.5 c 128,-1,20
 393 -10 393 -10 341 -10 c 0,0,1
322 50 m 0,21,22
 364 50 364 50 398.5 68 c 128,-1,23
 433 86 433 86 457.5 115.5 c 128,-1,24
 482 145 482 145 495 182.5 c 128,-1,25
 508 220 508 220 508 260 c 0,26,27
 508 302 508 302 493 340 c 128,-1,28
 478 378 478 378 452 407 c 128,-1,29
 426 436 426 436 390.5 453 c 128,-1,30
 355 470 355 470 314 470 c 0,31,32
 288 470 288 470 259.5 459.5 c 128,-1,33
 231 449 231 449 206.5 431.5 c 128,-1,34
 182 414 182 414 164.5 390.5 c 128,-1,35
 147 367 147 367 143 341 c 1,36,-1
 143 181 l 1,37,38
 155 153 155 153 173.5 129 c 128,-1,39
 192 105 192 105 215.5 87.5 c 128,-1,40
 239 70 239 70 266 60 c 128,-1,41
 293 50 293 50 322 50 c 0,21,22
EndSplineSet
Substitution2: "'smcp' Lowercase to Small Capitals in Latin lookup 2 subtable" P.sc
Substitution2: "'aalt' Access All Alternates in Latin lookup 0 subtable" P.sc
EndChar

StartChar: q
Encoding: 113 113 85
Width: 617
GlyphClass: 2
Flags: W
LayerCount: 2
Fore
SplineSet
276 -10 m 0,0,1
 223 -10 223 -10 179.5 12.5 c 128,-1,2
 136 35 136 35 105 72.5 c 128,-1,3
 74 110 74 110 57 158.5 c 128,-1,4
 40 207 40 207 40 260 c 0,5,6
 40 314 40 314 59 363 c 128,-1,7
 78 412 78 412 111.5 449 c 128,-1,8
 145 486 145 486 190.5 508 c 128,-1,9
 236 530 236 530 288 530 c 0,10,11
 318 530 318 530 346.5 521.5 c 128,-1,12
 375 513 375 513 400 498.5 c 128,-1,13
 425 484 425 484 445.5 463.5 c 128,-1,14
 466 443 466 443 481 419 c 1,15,-1
 481 521 l 1,16,-1
 542 521 l 1,17,-1
 542 -122 l 2,18,19
 542 -150 542 -150 567 -151 c 1,20,-1
 567 -210 l 1,21,22
 557 -212 557 -212 547.5 -212 c 128,-1,23
 538 -212 538 -212 529 -212 c 0,24,25
 506 -210 506 -210 490 -192.5 c 128,-1,26
 474 -175 474 -175 474 -151 c 2,27,-1
 474 108 l 1,28,29
 436 50 436 50 386 20 c 128,-1,30
 336 -10 336 -10 276 -10 c 0,0,1
297 50 m 0,31,32
 327 50 327 50 353.5 60 c 128,-1,33
 380 70 380 70 402.5 86.5 c 128,-1,34
 425 103 425 103 443 125.5 c 128,-1,35
 461 148 461 148 474 173 c 1,36,-1
 474 334 l 1,37,38
 470 361 470 361 453 385.5 c 128,-1,39
 436 410 436 410 411.5 429 c 128,-1,40
 387 448 387 448 358 459 c 128,-1,41
 329 470 329 470 301 470 c 0,42,43
 259 470 259 470 223.5 452 c 128,-1,44
 188 434 188 434 162.5 404.5 c 128,-1,45
 137 375 137 375 123 337 c 128,-1,46
 109 299 109 299 109 259 c 0,47,48
 109 217 109 217 123 179 c 128,-1,49
 137 141 137 141 162 112.5 c 128,-1,50
 187 84 187 84 221.5 67 c 128,-1,51
 256 50 256 50 297 50 c 0,31,32
EndSplineSet
Substitution2: "'ss01' Style Set 1 in Latin lookup 8 subtable" q.alt
Substitution2: "'salt' Stylistic Alternatives in Latin lookup 5 subtable" q.alt
Substitution2: "'smcp' Lowercase to Small Capitals in Latin lookup 2 subtable" Q.sc
AlternateSubs2: "'aalt' Access All Alternates in Latin lookup 1 subtable" Q.sc q.alt
EndChar

StartChar: r
Encoding: 114 114 86
Width: 351
GlyphClass: 2
Flags: W
LayerCount: 2
Fore
SplineSet
335 461 m 1,0,1
 266 459 266 459 215 423 c 128,-1,2
 164 387 164 387 143 324 c 1,3,-1
 143 0 l 1,4,-1
 75 0 l 1,5,-1
 75 521 l 1,6,-1
 139 521 l 1,7,-1
 139 396 l 1,8,9
 168 456 168 456 217 490 c 128,-1,10
 266 524 266 524 322 524 c 0,11,12
 330 524 330 524 335 523 c 1,13,-1
 335 461 l 1,0,1
EndSplineSet
Substitution2: "'smcp' Lowercase to Small Capitals in Latin lookup 2 subtable" R.sc
Substitution2: "'aalt' Access All Alternates in Latin lookup 0 subtable" R.sc
EndChar

StartChar: s
Encoding: 115 115 87
Width: 487
GlyphClass: 2
Flags: W
LayerCount: 2
Fore
SplineSet
248 -10 m 0,0,1
 187 -10 187 -10 129 10 c 128,-1,2
 71 30 71 30 29 68 c 1,3,-1
 60 114 l 1,4,5
 104 78 104 78 149.5 60 c 128,-1,6
 195 42 195 42 247 42 c 0,7,8
 310 42 310 42 347.5 67.5 c 128,-1,9
 385 93 385 93 385 140 c 0,10,11
 385 162 385 162 375 176.5 c 128,-1,12
 365 191 365 191 345.5 202 c 128,-1,13
 326 213 326 213 296.5 221.5 c 128,-1,14
 267 230 267 230 228 239 c 0,15,16
 183 250 183 250 150 261 c 128,-1,17
 117 272 117 272 95.5 286 c 128,-1,18
 74 300 74 300 63.5 320.5 c 128,-1,19
 53 341 53 341 53 372 c 0,20,21
 53 411 53 411 68.5 441 c 128,-1,22
 84 471 84 471 110.5 490.5 c 128,-1,23
 137 510 137 510 172.5 520 c 128,-1,24
 208 530 208 530 248 530 c 0,25,26
 308 530 308 530 357 510.5 c 128,-1,27
 406 491 406 491 436 459 c 1,28,-1
 403 419 l 1,29,30
 374 449 374 449 332.5 464 c 128,-1,31
 291 479 291 479 246 479 c 0,32,33
 219 479 219 479 196 473.5 c 128,-1,34
 173 468 173 468 155.5 456 c 128,-1,35
 138 444 138 444 128 425.5 c 128,-1,36
 118 407 118 407 118 382 c 0,37,38
 118 361 118 361 125 348 c 128,-1,39
 132 335 132 335 148 325.5 c 128,-1,40
 164 316 164 316 188.5 308.5 c 128,-1,41
 213 301 213 301 248 293 c 0,42,43
 298 281 298 281 336 269 c 128,-1,44
 374 257 374 257 399.5 241 c 128,-1,45
 425 225 425 225 438 202 c 128,-1,46
 451 179 451 179 451 146 c 0,47,48
 451 74 451 74 396 32 c 128,-1,49
 341 -10 341 -10 248 -10 c 0,0,1
EndSplineSet
Substitution2: "'smcp' Lowercase to Small Capitals in Latin lookup 2 subtable" S.sc
Substitution2: "'aalt' Access All Alternates in Latin lookup 0 subtable" S.sc
EndChar

StartChar: t
Encoding: 116 116 88
Width: 335
GlyphClass: 2
Flags: W
LayerCount: 2
Fore
SplineSet
325 25 m 1,0,1
 319 22 319 22 307.5 17 c 128,-1,2
 296 12 296 12 281 7 c 128,-1,3
 266 2 266 2 247 -2 c 128,-1,4
 228 -6 228 -6 207 -6 c 0,5,6
 185 -6 185 -6 165 0 c 128,-1,7
 145 6 145 6 130 18.5 c 128,-1,8
 115 31 115 31 106 50 c 128,-1,9
 97 69 97 69 97 94 c 2,10,-1
 97 467 l 1,11,-1
 25 467 l 1,12,-1
 25 521 l 1,13,-1
 97 521 l 1,14,-1
 97 697 l 1,15,-1
 165 697 l 1,16,-1
 165 521 l 1,17,-1
 285 521 l 1,18,-1
 285 467 l 1,19,-1
 165 467 l 1,20,-1
 165 113 l 2,21,22
 167 84 167 84 185.5 70.5 c 128,-1,23
 204 57 204 57 228 57 c 0,24,25
 257 57 257 57 279 66.5 c 128,-1,26
 301 76 301 76 307 80 c 1,27,-1
 325 25 l 1,0,1
EndSplineSet
Substitution2: "'ss01' Style Set 1 in Latin lookup 8 subtable" t.alt
Substitution2: "'salt' Stylistic Alternatives in Latin lookup 5 subtable" t.alt
Substitution2: "'smcp' Lowercase to Small Capitals in Latin lookup 2 subtable" T.sc
AlternateSubs2: "'aalt' Access All Alternates in Latin lookup 1 subtable" T.sc t.alt
EndChar

StartChar: u
Encoding: 117 117 89
Width: 594
GlyphClass: 2
Flags: W
LayerCount: 2
Fore
SplineSet
238 -10 m 0,0,1
 153 -10 153 -10 111.5 46.5 c 128,-1,2
 70 103 70 103 70 215 c 2,3,-1
 70 521 l 1,4,-1
 138 521 l 1,5,-1
 138 227 l 2,6,7
 138 50 138 50 259 50 c 0,8,9
 289 50 289 50 318 60 c 128,-1,10
 347 70 347 70 371.5 89 c 128,-1,11
 396 108 396 108 415.5 134 c 128,-1,12
 435 160 435 160 447 193 c 1,13,-1
 447 521 l 1,14,-1
 515 521 l 1,15,-1
 515 88 l 2,16,17
 515 60 515 60 539 60 c 1,18,-1
 539 0 l 1,19,20
 527 -2 527 -2 519.5 -2 c 128,-1,21
 512 -2 512 -2 509 -2 c 0,22,23
 485 -1 485 -1 470 15 c 128,-1,24
 455 31 455 31 455 58 c 2,25,-1
 455 118 l 1,26,27
 421 57 421 57 362.5 23.5 c 128,-1,28
 304 -10 304 -10 238 -10 c 0,0,1
EndSplineSet
Substitution2: "'smcp' Lowercase to Small Capitals in Latin lookup 2 subtable" U.sc
Substitution2: "'aalt' Access All Alternates in Latin lookup 0 subtable" U.sc
EndChar

StartChar: v
Encoding: 118 118 90
Width: 533
GlyphClass: 2
Flags: W
LayerCount: 2
Fore
SplineSet
231 0 m 1,0,-1
 19 521 l 1,1,-1
 89 521 l 1,2,-1
 268 63 l 1,3,-1
 448 521 l 1,4,-1
 514 521 l 1,5,-1
 302 0 l 1,6,-1
 231 0 l 1,0,-1
EndSplineSet
Substitution2: "'smcp' Lowercase to Small Capitals in Latin lookup 2 subtable" V.sc
Substitution2: "'aalt' Access All Alternates in Latin lookup 0 subtable" V.sc
EndChar

StartChar: w
Encoding: 119 119 91
Width: 813
GlyphClass: 2
Flags: W
LayerCount: 2
Fore
SplineSet
731 521 m 1,0,-1
 798 521 l 1,1,-1
 574 0 l 1,2,-1
 518 0 l 1,3,-1
 406 266 l 1,4,-1
 295 0 l 1,5,-1
 239 0 l 1,6,-1
 15 521 l 1,7,-1
 81 521 l 1,8,-1
 271 70 l 1,9,-1
 370 308 l 1,10,-1
 281 520 l 1,11,-1
 338 520 l 1,12,-1
 406 350 l 1,13,-1
 474 520 l 1,14,-1
 532 520 l 1,15,-1
 443 308 l 1,16,-1
 542 70 l 1,17,-1
 731 521 l 1,0,-1
EndSplineSet
Substitution2: "'ss01' Style Set 1 in Latin lookup 8 subtable" w.alt
Substitution2: "'salt' Stylistic Alternatives in Latin lookup 5 subtable" w.alt
Substitution2: "'smcp' Lowercase to Small Capitals in Latin lookup 2 subtable" W.sc
AlternateSubs2: "'aalt' Access All Alternates in Latin lookup 1 subtable" W.sc w.alt
EndChar

StartChar: x
Encoding: 120 120 92
Width: 504
GlyphClass: 2
Flags: W
LayerCount: 2
Fore
SplineSet
88 521 m 1,0,-1
 244 317 l 1,1,-1
 252 302 l 1,2,-1
 260 317 l 1,3,-1
 416 521 l 1,4,-1
 489 521 l 1,5,-1
 290 259 l 1,6,-1
 489 0 l 1,7,-1
 416 0 l 1,8,-1
 260 203 l 1,9,-1
 252 217 l 1,10,-1
 244 203 l 1,11,-1
 88 0 l 1,12,-1
 15 0 l 1,13,-1
 214 259 l 1,14,-1
 15 521 l 1,15,-1
 88 521 l 1,0,-1
EndSplineSet
Substitution2: "'smcp' Lowercase to Small Capitals in Latin lookup 2 subtable" X.sc
Substitution2: "'aalt' Access All Alternates in Latin lookup 0 subtable" X.sc
EndChar

StartChar: y
Encoding: 121 121 93
Width: 542
GlyphClass: 2
Flags: W
LayerCount: 2
Fore
SplineSet
105 -160 m 1,0,1
 113 -161 113 -161 120.5 -161.5 c 128,-1,2
 128 -162 128 -162 135 -162 c 0,3,4
 153 -162 153 -162 163.5 -157 c 128,-1,5
 174 -152 174 -152 184 -135 c 128,-1,6
 194 -118 194 -118 206.5 -86 c 128,-1,7
 219 -54 219 -54 242 0 c 1,8,-1
 15 521 l 1,9,-1
 85 521 l 1,10,-1
 278 63 l 1,11,-1
 457 521 l 1,12,-1
 522 521 l 1,13,-1
 252 -151 l 2,14,15
 241 -180 241 -180 215.5 -201.5 c 128,-1,16
 190 -223 190 -223 146 -223 c 0,17,18
 136 -223 136 -223 127 -222.5 c 128,-1,19
 118 -222 118 -222 105 -220 c 1,20,-1
 105 -160 l 1,0,1
EndSplineSet
Substitution2: "'ss01' Style Set 1 in Latin lookup 8 subtable" y.alt
Substitution2: "'salt' Stylistic Alternatives in Latin lookup 5 subtable" y.alt
Substitution2: "'smcp' Lowercase to Small Capitals in Latin lookup 2 subtable" Y.sc
AlternateSubs2: "'aalt' Access All Alternates in Latin lookup 1 subtable" Y.sc y.alt
EndChar

StartChar: z
Encoding: 122 122 94
Width: 492
GlyphClass: 2
Flags: W
LayerCount: 2
Fore
SplineSet
31 46 m 1,0,-1
 383 470 l 1,1,-1
 39 470 l 1,2,-1
 39 521 l 1,3,-1
 457 521 l 1,4,-1
 457 475 l 1,5,-1
 106 51 l 1,6,-1
 456 51 l 1,7,-1
 456 0 l 1,8,-1
 31 0 l 1,9,-1
 31 46 l 1,0,-1
EndSplineSet
Substitution2: "'smcp' Lowercase to Small Capitals in Latin lookup 2 subtable" Z.sc
Substitution2: "'aalt' Access All Alternates in Latin lookup 0 subtable" Z.sc
EndChar

StartChar: braceleft
Encoding: 123 123 95
Width: 259
GlyphClass: 2
Flags: W
LayerCount: 2
Fore
SplineSet
154 683 m 1,0,-1
 154 422 l 2,1,2
 154 410 154 410 148.5 392 c 128,-1,3
 143 374 143 374 127 360 c 1,4,5
 143 346 143 346 148.5 327.5 c 128,-1,6
 154 309 154 309 154 298 c 2,7,-1
 154 26 l 1,8,-1
 209 26 l 1,9,-1
 209 -31 l 1,10,-1
 115 -31 l 2,11,12
 107 -31 107 -31 99.5 -24.5 c 128,-1,13
 92 -18 92 -18 92 -1 c 2,14,-1
 92 280 l 2,15,16
 92 300 92 300 82 316.5 c 128,-1,17
 72 333 72 333 53 335 c 1,18,-1
 53 387 l 1,19,20
 63 387 63 387 70.5 393 c 128,-1,21
 78 399 78 399 83 407 c 128,-1,22
 88 415 88 415 90 424.5 c 128,-1,23
 92 434 92 434 92 440 c 2,24,-1
 92 710 l 2,25,26
 92 729 92 729 101 734.5 c 128,-1,27
 110 740 110 740 115 740 c 2,28,-1
 209 740 l 1,29,-1
 209 683 l 1,30,-1
 154 683 l 1,0,-1
EndSplineSet
EndChar

StartChar: bar
Encoding: 124 124 96
Width: 231
GlyphClass: 2
Flags: W
LayerCount: 2
Fore
SplineSet
86 -130 m 1,0,-1
 86 775 l 1,1,-1
 145 775 l 1,2,-1
 145 -130 l 1,3,-1
 86 -130 l 1,0,-1
EndSplineSet
EndChar

StartChar: braceright
Encoding: 125 125 97
Width: 259
GlyphClass: 2
Flags: W
LayerCount: 2
Fore
SplineSet
50 683 m 1,0,-1
 50 740 l 1,1,-1
 144 740 l 2,2,3
 149 740 149 740 158 734.5 c 128,-1,4
 167 729 167 729 167 710 c 2,5,-1
 167 440 l 2,6,7
 167 434 167 434 169 424.5 c 128,-1,8
 171 415 171 415 175.5 407 c 128,-1,9
 180 399 180 399 187 393 c 128,-1,10
 194 387 194 387 205 387 c 1,11,-1
 205 335 l 1,12,13
 186 333 186 333 176.5 316.5 c 128,-1,14
 167 300 167 300 167 280 c 2,15,-1
 167 -1 l 2,16,17
 167 -18 167 -18 159.5 -24.5 c 128,-1,18
 152 -31 152 -31 144 -31 c 2,19,-1
 50 -31 l 1,20,-1
 50 26 l 1,21,-1
 105 26 l 1,22,-1
 105 298 l 2,23,24
 105 309 105 309 110 327.5 c 128,-1,25
 115 346 115 346 131 360 c 1,26,27
 115 374 115 374 110 392 c 128,-1,28
 105 410 105 410 105 422 c 2,29,-1
 105 683 l 1,30,-1
 50 683 l 1,0,-1
EndSplineSet
EndChar

StartChar: asciitilde
Encoding: 126 126 98
Width: 511
GlyphClass: 2
Flags: W
LayerCount: 2
Fore
SplineSet
66 241 m 1,0,1
 66 246 66 246 72 262.5 c 128,-1,2
 78 279 78 279 90.5 297 c 128,-1,3
 103 315 103 315 123.5 329.5 c 128,-1,4
 144 344 144 344 174 344 c 0,5,6
 197 344 197 344 217 335 c 128,-1,7
 237 326 237 326 256 315 c 128,-1,8
 275 304 275 304 294 295 c 128,-1,9
 313 286 313 286 334 286 c 0,10,11
 353 286 353 286 366 293.5 c 128,-1,12
 379 301 379 301 387.5 310 c 128,-1,13
 396 319 396 319 399.5 327.5 c 128,-1,14
 403 336 403 336 403 338 c 2,15,-1
 446 338 l 2,16,17
 446 336 446 336 440.5 320.5 c 128,-1,18
 435 305 435 305 422 287.5 c 128,-1,19
 409 270 409 270 387 255.5 c 128,-1,20
 365 241 365 241 333 241 c 0,21,22
 308 241 308 241 287 250 c 128,-1,23
 266 259 266 259 246.5 270 c 128,-1,24
 227 281 227 281 209 290 c 128,-1,25
 191 299 191 299 173 299 c 256,26,27
 155 299 155 299 143 290 c 128,-1,28
 131 281 131 281 123.5 270.5 c 128,-1,29
 116 260 116 260 112.5 251 c 128,-1,30
 109 242 109 242 109 241 c 2,31,-1
 66 241 l 1,32,-1
 66 241 l 1,0,1
EndSplineSet
EndChar

StartChar: exclamdown
Encoding: 161 161 100
Width: 251
GlyphClass: 2
Flags: W
LayerCount: 2
Fore
SplineSet
159 487 m 1,0,-1
 159 -2 l 1,1,-1
 91 -2 l 1,2,-1
 91 487 l 1,3,-1
 159 487 l 1,0,-1
159 715 m 1,4,-1
 159 603 l 1,5,-1
 91 603 l 1,6,-1
 91 715 l 1,7,-1
 159 715 l 1,4,-1
EndSplineSet
EndChar

StartChar: cent
Encoding: 162 162 101
Width: 561
GlyphClass: 2
Flags: W
LayerCount: 2
Fore
SplineSet
276 -120 m 1,0,-1
 276 -9 l 1,1,2
 225 -5 225 -5 182 19.5 c 128,-1,3
 139 44 139 44 108.5 81 c 128,-1,4
 78 118 78 118 60.5 164 c 128,-1,5
 43 210 43 210 43 258 c 0,6,7
 43 309 43 309 59.5 355.5 c 128,-1,8
 76 402 76 402 106 439 c 128,-1,9
 136 476 136 476 179 500 c 128,-1,10
 222 524 222 524 276 529 c 1,11,-1
 276 645 l 1,12,-1
 313 645 l 1,13,-1
 313 529 l 1,14,15
 388 527 388 527 438 494.5 c 128,-1,16
 488 462 488 462 516 406 c 1,17,-1
 451 385 l 1,18,19
 428 426 428 426 392 446 c 128,-1,20
 356 466 356 466 313 468 c 1,21,-1
 313 51 l 1,22,23
 332 52 332 52 355 59 c 128,-1,24
 378 66 378 66 398.5 77 c 128,-1,25
 419 88 419 88 434.5 104 c 128,-1,26
 450 120 450 120 455 139 c 1,27,-1
 522 119 l 1,28,29
 510 87 510 87 486 62.5 c 128,-1,30
 462 38 462 38 432.5 22 c 128,-1,31
 403 6 403 6 371.5 -2 c 128,-1,32
 340 -10 340 -10 313 -10 c 1,33,-1
 313 -120 l 1,34,-1
 276 -120 l 1,0,-1
113 258 m 0,35,36
 113 221 113 221 125 186.5 c 128,-1,37
 137 152 137 152 159 124.5 c 128,-1,38
 181 97 181 97 211 78.5 c 128,-1,39
 241 60 241 60 276 54 c 1,40,-1
 276 466 l 1,41,42
 237 462 237 462 206.5 443 c 128,-1,43
 176 424 176 424 155.5 395 c 128,-1,44
 135 366 135 366 124 330 c 128,-1,45
 113 294 113 294 113 258 c 0,35,36
EndSplineSet
EndChar

StartChar: sterling
Encoding: 163 163 102
Width: 499
GlyphClass: 2
Flags: W
LayerCount: 2
Fore
SplineSet
52 372 m 1,0,-1
 146 372 l 1,1,2
 135 393 135 393 123 413.5 c 128,-1,3
 111 434 111 434 101 455 c 128,-1,4
 91 476 91 476 84.5 498 c 128,-1,5
 78 520 78 520 78 544 c 0,6,7
 78 580 78 580 92 611 c 128,-1,8
 106 642 106 642 131 665 c 128,-1,9
 156 688 156 688 188.5 701.5 c 128,-1,10
 221 715 221 715 259 715 c 0,11,12
 313 715 313 715 361.5 687 c 128,-1,13
 410 659 410 659 440 610 c 1,14,-1
 400 568 l 1,15,16
 376 610 376 610 337.5 634 c 128,-1,17
 299 658 299 658 257 658 c 0,18,19
 233 658 233 658 211.5 649 c 128,-1,20
 190 640 190 640 174.5 624 c 128,-1,21
 159 608 159 608 150 586.5 c 128,-1,22
 141 565 141 565 141 540 c 0,23,24
 141 518 141 518 148 497.5 c 128,-1,25
 155 477 155 477 165 456.5 c 128,-1,26
 175 436 175 436 187 415.5 c 128,-1,27
 199 395 199 395 210 372 c 1,28,-1
 388 372 l 1,29,-1
 388 318 l 1,30,-1
 230 318 l 1,31,32
 238 288 238 288 238 258 c 0,33,34
 238 208 238 208 215 161.5 c 128,-1,35
 192 115 192 115 135 54 c 1,36,37
 171 63 171 63 208 63 c 0,38,39
 229 63 229 63 247 60 c 128,-1,40
 265 57 265 57 282 54 c 128,-1,41
 299 51 299 51 315.5 48 c 128,-1,42
 332 45 332 45 350 45 c 0,43,44
 370 45 370 45 391 49.5 c 128,-1,45
 412 54 412 54 439 63 c 1,46,-1
 456 11 l 1,47,48
 430 -2 430 -2 402 -8.5 c 128,-1,49
 374 -15 374 -15 347 -15 c 0,50,51
 324 -15 324 -15 304 -11.5 c 128,-1,52
 284 -8 284 -8 264 -3.5 c 128,-1,53
 244 1 244 1 223.5 5 c 128,-1,54
 203 9 203 9 180 9 c 256,55,56
 157 9 157 9 127.5 4.5 c 128,-1,57
 98 0 98 0 72 -8 c 1,58,-1
 54 42 l 1,59,60
 88 76 88 76 112 104.5 c 128,-1,61
 136 133 136 133 150.5 158 c 128,-1,62
 165 183 165 183 171.5 206.5 c 128,-1,63
 178 230 178 230 178 254 c 0,64,65
 178 271 178 271 175.5 287 c 128,-1,66
 173 303 173 303 168 318 c 1,67,-1
 52 318 l 1,68,-1
 52 372 l 1,0,-1
EndSplineSet
EndChar

StartChar: currency
Encoding: 164 164 103
Width: 537
GlyphClass: 2
Flags: W
LayerCount: 2
Fore
SplineSet
156 480 m 1,0,1
 201 519 201 519 268 519 c 0,2,3
 301 519 301 519 329.5 508.5 c 128,-1,4
 358 498 358 498 381 480 c 1,5,-1
 451 551 l 1,6,-1
 485 518 l 1,7,-1
 413 446 l 1,8,9
 430 423 430 423 439 395 c 128,-1,10
 448 367 448 367 448 336 c 0,11,12
 448 306 448 306 438.5 277.5 c 128,-1,13
 429 249 429 249 412 226 c 1,14,-1
 485 154 l 1,15,-1
 455 125 l 1,16,-1
 381 194 l 1,17,18
 359 176 359 176 330.5 165.5 c 128,-1,19
 302 155 302 155 268 155 c 256,20,21
 234 155 234 155 205.5 165.5 c 128,-1,22
 177 176 177 176 154 194 c 1,23,-1
 83 125 l 1,24,-1
 53 154 l 1,25,-1
 124 225 l 1,26,27
 88 275 88 275 88 336 c 0,28,29
 88 400 88 400 123 447 c 1,30,-1
 53 518 l 1,31,-1
 86 551 l 1,32,-1
 156 480 l 1,0,1
145 335 m 0,33,34
 145 308 145 308 154.5 284 c 128,-1,35
 164 260 164 260 181 242 c 128,-1,36
 198 224 198 224 220 213.5 c 128,-1,37
 242 203 242 203 268 203 c 0,38,39
 293 203 293 203 315.5 213.5 c 128,-1,40
 338 224 338 224 355 242 c 128,-1,41
 372 260 372 260 381.5 284.5 c 128,-1,42
 391 309 391 309 391 337 c 256,43,44
 391 365 391 365 381.5 389.5 c 128,-1,45
 372 414 372 414 355 432 c 128,-1,46
 338 450 338 450 315.5 460 c 128,-1,47
 293 470 293 470 268 470 c 0,48,49
 242 470 242 470 220 459.5 c 128,-1,50
 198 449 198 449 181 431 c 128,-1,51
 164 413 164 413 154.5 388 c 128,-1,52
 145 363 145 363 145 335 c 0,33,34
EndSplineSet
EndChar

StartChar: yen
Encoding: 165 165 104
Width: 676
GlyphClass: 2
Flags: W
LayerCount: 2
Fore
SplineSet
432 366 m 1,0,-1
 516 366 l 1,1,-1
 516 318 l 1,2,-1
 405 318 l 1,3,-1
 372 264 l 1,4,-1
 372 237 l 1,5,-1
 517 237 l 1,6,-1
 517 189 l 1,7,-1
 372 189 l 1,8,-1
 372 0 l 1,9,-1
 302 0 l 1,10,-1
 302 189 l 1,11,-1
 159 189 l 1,12,-1
 159 237 l 1,13,-1
 302 237 l 1,14,-1
 302 266 l 1,15,-1
 271 318 l 1,16,-1
 159 318 l 1,17,-1
 159 366 l 1,18,-1
 245 366 l 1,19,-1
 29 710 l 1,20,-1
 105 710 l 1,21,-1
 337 328 l 1,22,-1
 571 710 l 1,23,-1
 648 710 l 1,24,-1
 432 366 l 1,0,-1
EndSplineSet
EndChar

StartChar: brokenbar
Encoding: 166 166 105
Width: 234
GlyphClass: 2
Flags: W
LayerCount: 2
Fore
SplineSet
147 277 m 1,0,-1
 147 -130 l 1,1,-1
 87 -130 l 1,2,-1
 87 277 l 1,3,-1
 147 277 l 1,0,-1
147 775 m 1,4,-1
 147 368 l 1,5,-1
 87 368 l 1,6,-1
 87 775 l 1,7,-1
 147 775 l 1,4,-1
EndSplineSet
EndChar

StartChar: section
Encoding: 167 167 106
Width: 506
GlyphClass: 2
Flags: W
LayerCount: 2
Fore
SplineSet
417 195 m 1,0,1
 440 181 440 181 451.5 154.5 c 128,-1,2
 463 128 463 128 463 93 c 0,3,4
 463 45 463 45 444 10.5 c 128,-1,5
 425 -24 425 -24 395 -45.5 c 128,-1,6
 365 -67 365 -67 328.5 -77.5 c 128,-1,7
 292 -88 292 -88 258 -88 c 0,8,9
 225 -88 225 -88 196 -79.5 c 128,-1,10
 167 -71 167 -71 142.5 -58 c 128,-1,11
 118 -45 118 -45 97.5 -29 c 128,-1,12
 77 -13 77 -13 62 3 c 1,13,-1
 107 45 l 1,14,15
 178 -23 178 -23 255 -23 c 0,16,17
 281 -23 281 -23 305.5 -16 c 128,-1,18
 330 -9 330 -9 349.5 5.5 c 128,-1,19
 369 20 369 20 381 41 c 128,-1,20
 393 62 393 62 393 90 c 0,21,22
 393 119 393 119 380.5 136 c 128,-1,23
 368 153 368 153 349 162 c 128,-1,24
 330 171 330 171 308 174 c 128,-1,25
 286 177 286 177 267 179 c 0,26,27
 173 187 173 187 122.5 225.5 c 128,-1,28
 72 264 72 264 72 338 c 0,29,30
 72 368 72 368 79.5 390.5 c 128,-1,31
 87 413 87 413 98 427 c 1,32,33
 77 442 77 442 62 473 c 128,-1,34
 47 504 47 504 47 542 c 0,35,36
 47 581 47 581 63.5 612.5 c 128,-1,37
 80 644 80 644 107.5 667 c 128,-1,38
 135 690 135 690 171.5 702.5 c 128,-1,39
 208 715 208 715 249 715 c 0,40,41
 313 715 313 715 357 686.5 c 128,-1,42
 401 658 401 658 427 620 c 1,43,-1
 373 595 l 1,44,45
 365 611 365 611 351 622 c 128,-1,46
 337 633 337 633 320 640 c 128,-1,47
 303 647 303 647 284.5 650 c 128,-1,48
 266 653 266 653 249 653 c 0,49,50
 223 653 223 653 198.5 646 c 128,-1,51
 174 639 174 639 155.5 624.5 c 128,-1,52
 137 610 137 610 126 589 c 128,-1,53
 115 568 115 568 115 540 c 0,54,55
 115 508 115 508 128.5 489.5 c 128,-1,56
 142 471 142 471 161.5 461 c 128,-1,57
 181 451 181 451 204 447 c 128,-1,58
 227 443 227 443 247 442 c 0,59,60
 282 439 282 439 317.5 431 c 128,-1,61
 353 423 353 423 382 406 c 128,-1,62
 411 389 411 389 429 361 c 128,-1,63
 447 333 447 333 447 289 c 0,64,65
 447 258 447 258 438.5 233.5 c 128,-1,66
 430 209 430 209 417 195 c 1,0,1
138 329 m 0,67,68
 138 284 138 284 162.5 264.5 c 128,-1,69
 187 245 187 245 221.5 237 c 128,-1,70
 256 229 256 229 292.5 226.5 c 128,-1,71
 329 224 329 224 353 215 c 1,72,73
 367 226 367 226 374.5 246 c 128,-1,74
 382 266 382 266 382 287 c 0,75,76
 382 316 382 316 369.5 334.5 c 128,-1,77
 357 353 357 353 337.5 364.5 c 128,-1,78
 318 376 318 376 294.5 380.5 c 128,-1,79
 271 385 271 385 249 386 c 0,80,81
 226 387 226 387 206 389 c 128,-1,82
 186 391 186 391 163 400 c 1,83,84
 152 389 152 389 145 370.5 c 128,-1,85
 138 352 138 352 138 329 c 0,67,68
EndSplineSet
EndChar

StartChar: dieresis
Encoding: 168 168 107
Width: 329
GlyphClass: 2
Flags: W
LayerCount: 2
Fore
SplineSet
61 633 m 1,0,-1
 61 727 l 1,1,-1
 119 727 l 1,2,-1
 119 633 l 1,3,-1
 61 633 l 1,0,-1
210 633 m 1,4,-1
 210 727 l 1,5,-1
 268 727 l 1,6,-1
 268 633 l 1,7,-1
 210 633 l 1,4,-1
EndSplineSet
EndChar

StartChar: copyright
Encoding: 169 169 108
Width: 832
GlyphClass: 2
Flags: W
LayerCount: 2
Fore
SplineSet
415 -7 m 256,0,1
 336 -7 336 -7 268.5 20.5 c 128,-1,2
 201 48 201 48 152 96.5 c 128,-1,3
 103 145 103 145 75.5 211 c 128,-1,4
 48 277 48 277 48 355 c 0,5,6
 48 432 48 432 75.5 498 c 128,-1,7
 103 564 103 564 152 612 c 128,-1,8
 201 660 201 660 268.5 687.5 c 128,-1,9
 336 715 336 715 415 715 c 256,10,11
 494 715 494 715 562 687.5 c 128,-1,12
 630 660 630 660 679 612 c 128,-1,13
 728 564 728 564 756 498 c 128,-1,14
 784 432 784 432 784 355 c 0,15,16
 784 277 784 277 756 211 c 128,-1,17
 728 145 728 145 679 96.5 c 128,-1,18
 630 48 630 48 562 20.5 c 128,-1,19
 494 -7 494 -7 415 -7 c 256,0,1
415 26 m 0,20,21
 485 26 485 26 546 50 c 128,-1,22
 607 74 607 74 652 117 c 128,-1,23
 697 160 697 160 723 220 c 128,-1,24
 749 280 749 280 749 353 c 0,25,26
 749 424 749 424 724 484 c 128,-1,27
 699 544 699 544 654 588 c 128,-1,28
 609 632 609 632 548 657 c 128,-1,29
 487 682 487 682 415 682 c 0,30,31
 344 682 344 682 283 657 c 128,-1,32
 222 632 222 632 177.5 588.5 c 128,-1,33
 133 545 133 545 108 484.5 c 128,-1,34
 83 424 83 424 83 354 c 256,35,36
 83 284 83 284 108 224 c 128,-1,37
 133 164 133 164 177.5 120 c 128,-1,38
 222 76 222 76 282.5 51 c 128,-1,39
 343 26 343 26 415 26 c 0,20,21
423 123 m 0,40,41
 377 123 377 123 335 139.5 c 128,-1,42
 293 156 293 156 260.5 186 c 128,-1,43
 228 216 228 216 208.5 259 c 128,-1,44
 189 302 189 302 189 355 c 0,45,46
 189 397 189 397 203 439 c 128,-1,47
 217 481 217 481 245 514 c 128,-1,48
 273 547 273 547 316 568 c 128,-1,49
 359 589 359 589 417 589 c 0,50,51
 483 589 483 589 534.5 560.5 c 128,-1,52
 586 532 586 532 609 478 c 1,53,-1
 543 457 l 1,54,55
 533 479 533 479 517.5 493 c 128,-1,56
 502 507 502 507 484.5 515 c 128,-1,57
 467 523 467 523 449.5 526 c 128,-1,58
 432 529 432 529 417 529 c 0,59,60
 377 529 377 529 347.5 513.5 c 128,-1,61
 318 498 318 498 298.5 473.5 c 128,-1,62
 279 449 279 449 269 417.5 c 128,-1,63
 259 386 259 386 259 355 c 0,64,65
 259 314 259 314 274 281.5 c 128,-1,66
 289 249 289 249 312 227 c 128,-1,67
 335 205 335 205 363.5 193.5 c 128,-1,68
 392 182 392 182 419 182 c 0,69,70
 457 182 457 182 495 202.5 c 128,-1,71
 533 223 533 223 550 258 c 1,72,-1
 616 239 l 1,73,74
 609 221 609 221 592 200.5 c 128,-1,75
 575 180 575 180 550 162.5 c 128,-1,76
 525 145 525 145 493 134 c 128,-1,77
 461 123 461 123 423 123 c 0,40,41
EndSplineSet
EndChar

StartChar: ordfeminine
Encoding: 170 170 109
Width: 434
GlyphClass: 2
Flags: W
LayerCount: 2
Fore
SplineSet
166 346 m 0,0,1
 141 346 141 346 119.5 354.5 c 128,-1,2
 98 363 98 363 82 378 c 128,-1,3
 66 393 66 393 57 413 c 128,-1,4
 48 433 48 433 48 456 c 0,5,6
 48 480 48 480 59 500 c 128,-1,7
 70 520 70 520 90 534.5 c 128,-1,8
 110 549 110 549 137 557 c 128,-1,9
 164 565 164 565 197 565 c 0,10,11
 224 565 224 565 251 560.5 c 128,-1,12
 278 556 278 556 298 547 c 1,13,-1
 298 575 l 2,14,15
 298 618 298 618 273 643 c 128,-1,16
 248 668 248 668 203 668 c 0,17,18
 150 668 150 668 89 627 c 1,19,-1
 69 664 l 1,20,21
 139 710 139 710 208 710 c 0,22,23
 278 710 278 710 318 673.5 c 128,-1,24
 358 637 358 637 358 569 c 2,25,-1
 358 426 l 2,26,27
 358 405 358 405 377 404 c 1,28,-1
 377 352 l 1,29,30
 368 351 368 351 362 350.5 c 128,-1,31
 356 350 356 350 349 350 c 0,32,33
 331 351 331 351 320.5 361 c 128,-1,34
 310 371 310 371 308 386 c 2,35,-1
 307 411 l 1,36,37
 282 379 282 379 245 362.5 c 128,-1,38
 208 346 208 346 166 346 c 0,0,1
182 391 m 0,39,40
 214 391 214 391 242.5 402.5 c 128,-1,41
 271 414 271 414 286 434 c 0,42,43
 298 446 298 446 298 460 c 2,44,-1
 298 512 l 1,45,46
 278 521 278 521 254 524.5 c 128,-1,47
 230 528 230 528 206 528 c 0,48,49
 160 528 160 528 132 509.5 c 128,-1,50
 104 491 104 491 104 460 c 0,51,52
 104 431 104 431 126.5 411 c 128,-1,53
 149 391 149 391 182 391 c 0,39,40
EndSplineSet
EndChar

StartChar: guillemotleft
Encoding: 171 171 110
Width: 573
GlyphClass: 2
Flags: W
LayerCount: 2
Fore
SplineSet
41 276 m 1,0,-1
 289 454 l 1,1,-1
 289 395 l 1,2,-1
 96 259 l 1,3,-1
 289 125 l 1,4,-1
 289 66 l 1,5,-1
 41 239 l 1,6,-1
 41 276 l 1,0,-1
261 276 m 1,7,-1
 510 454 l 1,8,-1
 510 395 l 1,9,-1
 317 259 l 1,10,-1
 510 125 l 1,11,-1
 510 66 l 1,12,-1
 261 239 l 1,13,-1
 261 276 l 1,7,-1
EndSplineSet
EndChar

StartChar: logicalnot
Encoding: 172 172 111
Width: 582
GlyphClass: 2
Flags: W
LayerCount: 2
Fore
SplineSet
512 364 m 1,0,-1
 512 126 l 1,1,-1
 452 126 l 1,2,-1
 452 302 l 1,3,-1
 73 302 l 1,4,-1
 73 364 l 1,5,-1
 512 364 l 1,0,-1
EndSplineSet
EndChar

StartChar: uni00AD
Encoding: 173 173 112
Width: 570
GlyphClass: 2
Flags: W
LayerCount: 2
Fore
SplineSet
65 241 m 1,0,-1
 65 304 l 1,1,-1
 504 304 l 1,2,-1
 504 241 l 1,3,-1
 65 241 l 1,0,-1
EndSplineSet
EndChar

StartChar: registered
Encoding: 174 174 113
Width: 832
GlyphClass: 2
Flags: W
LayerCount: 2
Fore
SplineSet
416 -7 m 0,0,1
 336 -7 336 -7 269 20.5 c 128,-1,2
 202 48 202 48 152.5 96.5 c 128,-1,3
 103 145 103 145 75.5 211 c 128,-1,4
 48 277 48 277 48 355 c 0,5,6
 48 432 48 432 75.5 498 c 128,-1,7
 103 564 103 564 152.5 612 c 128,-1,8
 202 660 202 660 269 687.5 c 128,-1,9
 336 715 336 715 416 715 c 0,10,11
 495 715 495 715 562.5 687.5 c 128,-1,12
 630 660 630 660 679 612 c 128,-1,13
 728 564 728 564 756 498 c 128,-1,14
 784 432 784 432 784 355 c 0,15,16
 784 277 784 277 756 211 c 128,-1,17
 728 145 728 145 679 96.5 c 128,-1,18
 630 48 630 48 562.5 20.5 c 128,-1,19
 495 -7 495 -7 416 -7 c 0,0,1
416 25 m 0,20,21
 486 25 486 25 546.5 49 c 128,-1,22
 607 73 607 73 652 116 c 128,-1,23
 697 159 697 159 722.5 219.5 c 128,-1,24
 748 280 748 280 748 354 c 0,25,26
 748 424 748 424 723 484 c 128,-1,27
 698 544 698 544 653.5 588 c 128,-1,28
 609 632 609 632 548.5 657 c 128,-1,29
 488 682 488 682 416 682 c 256,30,31
 344 682 344 682 283 657 c 128,-1,32
 222 632 222 632 178 588 c 128,-1,33
 134 544 134 544 109 484.5 c 128,-1,34
 84 425 84 425 84 355 c 0,35,36
 84 284 84 284 109 224 c 128,-1,37
 134 164 134 164 178 119.5 c 128,-1,38
 222 75 222 75 283 50 c 128,-1,39
 344 25 344 25 416 25 c 0,20,21
263 580 m 1,40,-1
 454 580 l 2,41,42
 483 580 483 580 508 567.5 c 128,-1,43
 533 555 533 555 551 534.5 c 128,-1,44
 569 514 569 514 579 488.5 c 128,-1,45
 589 463 589 463 589 437 c 0,46,47
 589 388 589 388 560.5 349.5 c 128,-1,48
 532 311 532 311 486 302 c 1,49,-1
 597 127 l 1,50,-1
 539 127 l 1,51,-1
 433 295 l 1,52,-1
 316 295 l 1,53,-1
 316 127 l 1,54,-1
 263 127 l 1,55,-1
 263 580 l 1,40,-1
454 341 m 2,56,57
 495 341 495 341 516 368.5 c 128,-1,58
 537 396 537 396 537 437 c 0,59,60
 537 479 537 479 512.5 505.5 c 128,-1,61
 488 532 488 532 450 532 c 2,62,-1
 316 532 l 1,63,-1
 316 341 l 1,64,-1
 454 341 l 2,56,57
EndSplineSet
EndChar

StartChar: macron
Encoding: 175 175 114
Width: 396
GlyphClass: 2
Flags: W
LayerCount: 2
Fore
SplineSet
54 663 m 1,0,-1
 54 710 l 1,1,-1
 343 710 l 1,2,-1
 343 663 l 1,3,-1
 54 663 l 1,0,-1
EndSplineSet
EndChar

StartChar: degree
Encoding: 176 176 115
Width: 266
GlyphClass: 2
Flags: W
LayerCount: 2
Fore
SplineSet
50 642 m 0,0,1
 50 677 50 677 74 700.5 c 128,-1,2
 98 724 98 724 133 724 c 256,3,4
 168 724 168 724 192 700.5 c 128,-1,5
 216 677 216 677 216 642 c 0,6,7
 216 606 216 606 192 582 c 128,-1,8
 168 558 168 558 133 558 c 256,9,10
 98 558 98 558 74 582 c 128,-1,11
 50 606 50 606 50 642 c 0,0,1
102 672 m 0,12,13
 89 659 89 659 89 641 c 256,14,15
 89 623 89 623 102 610 c 256,16,17
 115 597 115 597 133 597 c 0,18,19
 152 597 152 597 165 610 c 0,20,21
 177 624 177 624 177 641 c 256,22,23
 177 658 177 658 165 672 c 0,24,25
 153 685 153 685 133 685 c 0,26,27
 114 685 114 685 102 672 c 0,12,13
EndSplineSet
EndChar

StartChar: plusminus
Encoding: 177 177 116
Width: 467
GlyphClass: 2
Flags: W
LayerCount: 2
Fore
SplineSet
72 61 m 1,0,-1
 72 118 l 1,1,-1
 395 118 l 1,2,-1
 395 61 l 1,3,-1
 72 61 l 1,0,-1
395 393 m 1,4,-1
 395 336 l 1,5,-1
 265 336 l 1,6,-1
 265 196 l 1,7,-1
 202 196 l 1,8,-1
 202 336 l 1,9,-1
 72 336 l 1,10,-1
 72 393 l 1,11,-1
 202 393 l 1,12,-1
 202 533 l 1,13,-1
 265 533 l 1,14,-1
 265 393 l 1,15,-1
 395 393 l 1,4,-1
EndSplineSet
EndChar

StartChar: twosuperior
Encoding: 178 178 117
Width: 388
GlyphClass: 2
Flags: W
LayerCount: 2
Fore
SplineSet
36 407 m 1,0,1
 36 446 36 446 43.5 474.5 c 128,-1,2
 51 503 51 503 67 524.5 c 128,-1,3
 83 546 83 546 106.5 562 c 128,-1,4
 130 578 130 578 162 590 c 0,5,6
 185 599 185 599 209 607.5 c 128,-1,7
 233 616 233 616 253 627 c 128,-1,8
 273 638 273 638 286 654 c 128,-1,9
 299 670 299 670 299 693 c 0,10,11
 299 724 299 724 273.5 745.5 c 128,-1,12
 248 767 248 767 197 767 c 0,13,14
 172 767 172 767 152 761.5 c 128,-1,15
 132 756 132 756 116 747.5 c 128,-1,16
 100 739 100 739 88.5 729.5 c 128,-1,17
 77 720 77 720 70 712 c 1,18,-1
 40 743 l 1,19,20
 44 748 44 748 56 759.5 c 128,-1,21
 68 771 68 771 88.5 782.5 c 128,-1,22
 109 794 109 794 137.5 802.5 c 128,-1,23
 166 811 166 811 203 811 c 0,24,25
 276 811 276 811 312.5 777 c 128,-1,26
 349 743 349 743 349 692 c 0,27,28
 349 661 349 661 334.5 639.5 c 128,-1,29
 320 618 320 618 299 603 c 128,-1,30
 278 588 278 588 253.5 579 c 128,-1,31
 229 570 229 570 208 563 c 0,32,33
 175 552 175 552 152.5 538 c 128,-1,34
 130 524 130 524 116.5 509 c 128,-1,35
 103 494 103 494 97 479 c 128,-1,36
 91 464 91 464 91 450 c 1,37,-1
 344 450 l 1,38,-1
 344 407 l 1,39,-1
 36 407 l 1,0,1
EndSplineSet
EndChar

StartChar: threesuperior
Encoding: 179 179 118
Width: 390
GlyphClass: 2
Flags: W
LayerCount: 2
Fore
SplineSet
190 401 m 0,0,1
 127 401 127 401 85 425 c 128,-1,2
 43 449 43 449 35 490 c 1,3,-1
 62 519 l 1,4,5
 63 507 63 507 73 494 c 128,-1,6
 83 481 83 481 99.5 470.5 c 128,-1,7
 116 460 116 460 139 453 c 128,-1,8
 162 446 162 446 189 446 c 0,9,10
 238 446 238 446 272 465.5 c 128,-1,11
 306 485 306 485 306 517 c 0,12,13
 306 552 306 552 265.5 571.5 c 128,-1,14
 225 591 225 591 157 591 c 2,15,-1
 134 591 l 1,16,-1
 134 632 l 1,17,-1
 157 632 l 2,18,19
 220 632 220 632 256 648.5 c 128,-1,20
 292 665 292 665 292 698 c 256,21,22
 292 731 292 731 260.5 750.5 c 128,-1,23
 229 770 229 770 186 770 c 0,24,25
 144 770 144 770 114 754.5 c 128,-1,26
 84 739 84 739 69 714 c 1,27,-1
 39 748 l 1,28,29
 57 777 57 777 97.5 794 c 128,-1,30
 138 811 138 811 186 811 c 0,31,32
 219 811 219 811 247 802.5 c 128,-1,33
 275 794 275 794 296 779.5 c 128,-1,34
 317 765 317 765 328.5 745 c 128,-1,35
 340 725 340 725 340 701 c 0,36,37
 340 632 340 632 249 613 c 1,38,39
 296 606 296 606 323.5 577.5 c 128,-1,40
 351 549 351 549 351 511 c 0,41,42
 351 485 351 485 338 464.5 c 128,-1,43
 325 444 325 444 303 430 c 128,-1,44
 281 416 281 416 251.5 408.5 c 128,-1,45
 222 401 222 401 190 401 c 0,0,1
EndSplineSet
EndChar

StartChar: acute
Encoding: 180 180 119
Width: 222
GlyphClass: 2
Flags: W
LayerCount: 2
Fore
SplineSet
94 620 m 1,0,-1
 49 637 l 1,1,-1
 108 730 l 1,2,-1
 180 730 l 1,3,-1
 94 620 l 1,0,-1
EndSplineSet
EndChar

StartChar: mu
Encoding: 181 181 120
Width: 620
GlyphClass: 2
Flags: W
LayerCount: 2
Fore
SplineSet
82 521 m 1,0,-1
 150 521 l 1,1,-1
 150 227 l 2,2,3
 150 50 150 50 273 50 c 0,4,5
 303 50 303 50 331.5 60 c 128,-1,6
 360 70 360 70 384.5 89 c 128,-1,7
 409 108 409 108 428.5 134 c 128,-1,8
 448 160 448 160 460 193 c 1,9,-1
 460 521 l 1,10,-1
 528 521 l 1,11,-1
 528 88 l 2,12,13
 528 60 528 60 552 60 c 1,14,-1
 552 0 l 1,15,16
 540 -2 540 -2 533 -2 c 128,-1,17
 526 -2 526 -2 519 -2 c 0,18,19
 496 0 496 0 482 16 c 128,-1,20
 468 32 468 32 468 52 c 2,21,-1
 468 118 l 1,22,23
 455 91 455 91 434 68 c 128,-1,24
 413 45 413 45 386.5 27.5 c 128,-1,25
 360 10 360 10 330 0 c 128,-1,26
 300 -10 300 -10 269 -10 c 0,27,28
 221 -10 221 -10 190.5 13.5 c 128,-1,29
 160 37 160 37 146 75 c 1,30,-1
 146 -212 l 1,31,-1
 82 -212 l 1,32,-1
 82 521 l 1,0,-1
EndSplineSet
EndChar

StartChar: paragraph
Encoding: 182 182 121
Width: 602
GlyphClass: 2
Flags: W
LayerCount: 2
Fore
SplineSet
34 469 m 0,0,1
 34 583 34 583 108 646.5 c 128,-1,2
 182 710 182 710 316 710 c 2,3,-1
 557 710 l 1,4,-1
 557 656 l 1,5,-1
 487 656 l 1,6,-1
 487 -80 l 1,7,-1
 427 -80 l 1,8,-1
 427 231 l 1,9,-1
 353 231 l 1,10,-1
 353 -80 l 1,11,-1
 294 -80 l 1,12,-1
 294 231 l 1,13,14
 234 232 234 232 186 248.5 c 128,-1,15
 138 265 138 265 104 296 c 128,-1,16
 70 327 70 327 52 370.5 c 128,-1,17
 34 414 34 414 34 469 c 0,0,1
93 471 m 0,18,19
 93 424 93 424 109 390 c 128,-1,20
 125 356 125 356 152.5 333.5 c 128,-1,21
 180 311 180 311 216.5 299 c 128,-1,22
 253 287 253 287 294 285 c 1,23,-1
 294 656 l 1,24,25
 196 655 196 655 144.5 605.5 c 128,-1,26
 93 556 93 556 93 471 c 0,18,19
427 656 m 1,27,-1
 353 656 l 1,28,-1
 353 285 l 1,29,-1
 427 285 l 1,30,-1
 427 656 l 1,27,-1
EndSplineSet
EndChar

StartChar: periodcentered
Encoding: 183 183 122
Width: 189
GlyphClass: 2
Flags: W
LayerCount: 2
Fore
SplineSet
65 246 m 1,0,-1
 65 358 l 1,1,-1
 124 358 l 1,2,-1
 124 246 l 1,3,-1
 65 246 l 1,0,-1
EndSplineSet
EndChar

StartChar: cedilla
Encoding: 184 184 123
Width: 283
GlyphClass: 2
Flags: W
LayerCount: 2
Fore
SplineSet
39 -126 m 1,0,1
 53 -133 53 -133 77 -138.5 c 128,-1,2
 101 -144 101 -144 127 -144 c 0,3,4
 184 -144 184 -144 184 -109 c 0,5,6
 184 -89 184 -89 170.5 -81 c 128,-1,7
 157 -73 157 -73 134 -73 c 0,8,9
 113 -73 113 -73 90 -77.5 c 128,-1,10
 67 -82 67 -82 54 -87 c 1,11,-1
 111 18 l 1,12,-1
 144 5 l 1,13,-1
 109 -51 l 1,14,15
 118 -47 118 -47 128.5 -46 c 128,-1,16
 139 -45 139 -45 147 -45 c 0,17,18
 182 -45 182 -45 202.5 -60.5 c 128,-1,19
 223 -76 223 -76 223 -106 c 0,20,21
 223 -140 223 -140 197 -158 c 128,-1,22
 171 -176 171 -176 121 -176 c 0,23,24
 92 -176 92 -176 67 -170.5 c 128,-1,25
 42 -165 42 -165 22 -157 c 1,26,-1
 39 -126 l 1,0,1
EndSplineSet
EndChar

StartChar: onesuperior
Encoding: 185 185 124
Width: 272
GlyphClass: 2
Flags: W
LayerCount: 2
Fore
SplineSet
250 451 m 1,0,-1
 250 406 l 1,1,-1
 49 406 l 1,2,-1
 49 451 l 1,3,-1
 130 451 l 1,4,-1
 130 760 l 1,5,6
 125 754 125 754 114 745.5 c 128,-1,7
 103 737 103 737 89.5 729.5 c 128,-1,8
 76 722 76 722 61 716.5 c 128,-1,9
 46 711 46 711 34 711 c 1,10,-1
 34 756 l 1,11,12
 50 756 50 756 67 764 c 128,-1,13
 84 772 84 772 98 782 c 128,-1,14
 112 792 112 792 121 801 c 128,-1,15
 130 810 130 810 130 811 c 2,16,-1
 175 811 l 1,17,-1
 175 451 l 1,18,-1
 250 451 l 1,0,-1
EndSplineSet
EndChar

StartChar: ordmasculine
Encoding: 186 186 125
Width: 449
GlyphClass: 2
Flags: W
LayerCount: 2
Fore
SplineSet
224 346 m 256,0,1
 184 346 184 346 151 361 c 128,-1,2
 118 376 118 376 94 401 c 128,-1,3
 70 426 70 426 57 459 c 128,-1,4
 44 492 44 492 44 528 c 0,5,6
 44 565 44 565 57 598 c 128,-1,7
 70 631 70 631 94 656 c 128,-1,8
 118 681 118 681 151 695.5 c 128,-1,9
 184 710 184 710 224 710 c 256,10,11
 264 710 264 710 297 695.5 c 128,-1,12
 330 681 330 681 354 656 c 128,-1,13
 378 631 378 631 391.5 598 c 128,-1,14
 405 565 405 565 405 528 c 0,15,16
 405 492 405 492 392 459 c 128,-1,17
 379 426 379 426 355 401 c 128,-1,18
 331 376 331 376 297.5 361 c 128,-1,19
 264 346 264 346 224 346 c 256,0,1
101 527 m 256,20,21
 101 499 101 499 110.5 475 c 128,-1,22
 120 451 120 451 137 433 c 128,-1,23
 154 415 154 415 176 405 c 128,-1,24
 198 395 198 395 224 395 c 0,25,26
 249 395 249 395 271.5 405.5 c 128,-1,27
 294 416 294 416 311 434 c 128,-1,28
 328 452 328 452 337.5 476.5 c 128,-1,29
 347 501 347 501 347 529 c 256,30,31
 347 557 347 557 337.5 581 c 128,-1,32
 328 605 328 605 311 623 c 128,-1,33
 294 641 294 641 271.5 651 c 128,-1,34
 249 661 249 661 224 661 c 256,35,36
 199 661 199 661 176.5 650.5 c 128,-1,37
 154 640 154 640 137.5 622 c 128,-1,38
 121 604 121 604 111 579.5 c 128,-1,39
 101 555 101 555 101 527 c 256,20,21
EndSplineSet
EndChar

StartChar: guillemotright
Encoding: 187 187 126
Width: 573
GlyphClass: 2
Flags: W
LayerCount: 2
Fore
SplineSet
532 239 m 1,0,-1
 284 66 l 1,1,-1
 284 125 l 1,2,-1
 477 259 l 1,3,-1
 284 395 l 1,4,-1
 284 454 l 1,5,-1
 532 276 l 1,6,-1
 532 239 l 1,0,-1
312 239 m 1,7,-1
 63 66 l 1,8,-1
 63 125 l 1,9,-1
 256 259 l 1,10,-1
 63 395 l 1,11,-1
 63 454 l 1,12,-1
 312 276 l 1,13,-1
 312 239 l 1,7,-1
EndSplineSet
EndChar

StartChar: onequarter
Encoding: 188 188 127
Width: 825
GlyphClass: 2
Flags: W
LayerCount: 2
Fore
SplineSet
687 0 m 1,0,-1
 687 103 l 1,1,-1
 459 103 l 1,2,-1
 459 145 l 1,3,-1
 701 399 l 1,4,-1
 732 399 l 1,5,-1
 732 147 l 1,6,-1
 789 147 l 1,7,-1
 789 103 l 1,8,-1
 732 103 l 1,9,-1
 732 0 l 1,10,-1
 687 0 l 1,0,-1
507 147 m 1,11,-1
 688 147 l 1,12,-1
 688 338 l 1,13,-1
 507 147 l 1,11,-1
133 27 m 1,14,-1
 412 367 l 1,15,-1
 684 714 l 1,16,-1
 719 684 l 1,17,-1
 440 344 l 1,18,-1
 167 -4 l 1,19,-1
 133 27 l 1,14,-1
260 371 m 1,20,-1
 260 326 l 1,21,-1
 59 326 l 1,22,-1
 59 371 l 1,23,-1
 140 371 l 1,24,-1
 140 680 l 1,25,26
 135 674 135 674 124 665.5 c 128,-1,27
 113 657 113 657 99.5 649.5 c 128,-1,28
 86 642 86 642 71 636.5 c 128,-1,29
 56 631 56 631 44 631 c 1,30,-1
 44 676 l 1,31,32
 60 676 60 676 77 684 c 128,-1,33
 94 692 94 692 108 702 c 128,-1,34
 122 712 122 712 131 721 c 128,-1,35
 140 730 140 730 140 731 c 2,36,-1
 185 731 l 1,37,-1
 185 371 l 1,38,-1
 260 371 l 1,20,-1
EndSplineSet
EndChar

StartChar: onehalf
Encoding: 189 189 128
Width: 864
GlyphClass: 2
Flags: W
LayerCount: 2
Fore
SplineSet
516 0 m 1,0,1
 516 39 516 39 523.5 67.5 c 128,-1,2
 531 96 531 96 546.5 118 c 128,-1,3
 562 140 562 140 585 156 c 128,-1,4
 608 172 608 172 639 184 c 0,5,6
 661 193 661 193 684.5 201 c 128,-1,7
 708 209 708 209 727.5 220.5 c 128,-1,8
 747 232 747 232 759.5 247.5 c 128,-1,9
 772 263 772 263 772 286 c 0,10,11
 772 317 772 317 747.5 339 c 128,-1,12
 723 361 723 361 673 361 c 0,13,14
 649 361 649 361 629 355.5 c 128,-1,15
 609 350 609 350 594 341.5 c 128,-1,16
 579 333 579 333 567.5 323 c 128,-1,17
 556 313 556 313 549 305 c 1,18,-1
 520 337 l 1,19,20
 524 342 524 342 536 353 c 128,-1,21
 548 364 548 364 567.5 375.5 c 128,-1,22
 587 387 587 387 615 395.5 c 128,-1,23
 643 404 643 404 679 404 c 0,24,25
 750 404 750 404 785.5 370 c 128,-1,26
 821 336 821 336 821 285 c 0,27,28
 821 254 821 254 807 232.5 c 128,-1,29
 793 211 793 211 772.5 197 c 128,-1,30
 752 183 752 183 728.5 174 c 128,-1,31
 705 165 705 165 685 158 c 0,32,33
 652 147 652 147 630.5 132.5 c 128,-1,34
 609 118 609 118 596.5 103 c 128,-1,35
 584 88 584 88 579 72.5 c 128,-1,36
 574 57 574 57 574 44 c 1,37,-1
 822 44 l 1,38,-1
 822 0 l 1,39,-1
 516 0 l 1,0,1
99 27 m 1,40,-1
 378 367 l 1,41,-1
 650 714 l 1,42,-1
 685 684 l 1,43,-1
 406 344 l 1,44,-1
 133 -4 l 1,45,-1
 99 27 l 1,40,-1
261 371 m 1,46,-1
 261 326 l 1,47,-1
 60 326 l 1,48,-1
 60 371 l 1,49,-1
 141 371 l 1,50,-1
 141 680 l 1,51,52
 136 674 136 674 125 665.5 c 128,-1,53
 114 657 114 657 100.5 649.5 c 128,-1,54
 87 642 87 642 72 636.5 c 128,-1,55
 57 631 57 631 45 631 c 1,56,-1
 45 676 l 1,57,58
 61 676 61 676 78 684 c 128,-1,59
 95 692 95 692 109 702 c 128,-1,60
 123 712 123 712 132 721 c 128,-1,61
 141 730 141 730 141 731 c 2,62,-1
 186 731 l 1,63,-1
 186 371 l 1,64,-1
 261 371 l 1,46,-1
EndSplineSet
EndChar

StartChar: threequarters
Encoding: 190 190 129
Width: 837
GlyphClass: 2
Flags: W
LayerCount: 2
Fore
SplineSet
197 321 m 0,0,1
 134 321 134 321 92 345 c 128,-1,2
 50 369 50 369 42 410 c 1,3,-1
 69 439 l 1,4,5
 70 427 70 427 80 414 c 128,-1,6
 90 401 90 401 106.5 390.5 c 128,-1,7
 123 380 123 380 146 373 c 128,-1,8
 169 366 169 366 196 366 c 0,9,10
 245 366 245 366 279 385.5 c 128,-1,11
 313 405 313 405 313 437 c 0,12,13
 313 472 313 472 272.5 491.5 c 128,-1,14
 232 511 232 511 164 511 c 2,15,-1
 141 511 l 1,16,-1
 141 552 l 1,17,-1
 164 552 l 2,18,19
 227 552 227 552 263 568.5 c 128,-1,20
 299 585 299 585 299 618 c 256,21,22
 299 651 299 651 267.5 670.5 c 128,-1,23
 236 690 236 690 193 690 c 0,24,25
 151 690 151 690 121 674.5 c 128,-1,26
 91 659 91 659 76 634 c 1,27,-1
 46 668 l 1,28,29
 64 697 64 697 104.5 714 c 128,-1,30
 145 731 145 731 193 731 c 0,31,32
 226 731 226 731 254 722.5 c 128,-1,33
 282 714 282 714 303 699.5 c 128,-1,34
 324 685 324 685 335.5 665 c 128,-1,35
 347 645 347 645 347 621 c 0,36,37
 347 552 347 552 256 533 c 1,38,39
 303 526 303 526 330.5 497.5 c 128,-1,40
 358 469 358 469 358 431 c 0,41,42
 358 405 358 405 345 384.5 c 128,-1,43
 332 364 332 364 310 350 c 128,-1,44
 288 336 288 336 258.5 328.5 c 128,-1,45
 229 321 229 321 197 321 c 0,0,1
696 0 m 1,46,-1
 696 103 l 1,47,-1
 468 103 l 1,48,-1
 468 145 l 1,49,-1
 710 399 l 1,50,-1
 741 399 l 1,51,-1
 741 147 l 1,52,-1
 798 147 l 1,53,-1
 798 103 l 1,54,-1
 741 103 l 1,55,-1
 741 0 l 1,56,-1
 696 0 l 1,46,-1
516 147 m 1,57,-1
 697 147 l 1,58,-1
 697 338 l 1,59,-1
 516 147 l 1,57,-1
166 27 m 1,60,-1
 445 367 l 1,61,-1
 717 714 l 1,62,-1
 752 684 l 1,63,-1
 473 344 l 1,64,-1
 200 -4 l 1,65,-1
 166 27 l 1,60,-1
EndSplineSet
EndChar

StartChar: questiondown
Encoding: 191 191 130
Width: 469
GlyphClass: 2
Flags: W
LayerCount: 2
Fore
SplineSet
318 304 m 1,0,1
 318 238 318 238 297.5 199 c 128,-1,2
 277 160 277 160 233 134 c 0,3,4
 213 122 213 122 189 109.5 c 128,-1,5
 165 97 165 97 144 79 c 128,-1,6
 123 61 123 61 108.5 36 c 128,-1,7
 94 11 94 11 94 -26 c 0,8,9
 94 -59 94 -59 105.5 -83 c 128,-1,10
 117 -107 117 -107 136 -123.5 c 128,-1,11
 155 -140 155 -140 179.5 -148 c 128,-1,12
 204 -156 204 -156 230 -156 c 0,13,14
 284 -156 284 -156 326.5 -126.5 c 128,-1,15
 369 -97 369 -97 391 -54 c 1,16,-1
 438 -84 l 1,17,18
 424 -115 424 -115 402 -139 c 128,-1,19
 380 -163 380 -163 352.5 -179.5 c 128,-1,20
 325 -196 325 -196 293.5 -204.5 c 128,-1,21
 262 -213 262 -213 229 -213 c 0,22,23
 192 -213 192 -213 157 -201.5 c 128,-1,24
 122 -190 122 -190 94.5 -166 c 128,-1,25
 67 -142 67 -142 50.5 -106 c 128,-1,26
 34 -70 34 -70 34 -22 c 0,27,28
 34 18 34 18 45.5 45.5 c 128,-1,29
 57 73 57 73 76 93 c 128,-1,30
 95 113 95 113 119 127.5 c 128,-1,31
 143 142 143 142 169 156 c 0,32,33
 187 166 187 166 203 176.5 c 128,-1,34
 219 187 219 187 232 203.5 c 128,-1,35
 245 220 245 220 252.5 244 c 128,-1,36
 260 268 260 268 260 304 c 1,37,-1
 318 304 l 1,0,1
317 506 m 1,38,-1
 317 399 l 1,39,-1
 258 399 l 1,40,-1
 258 506 l 1,41,-1
 317 506 l 1,38,-1
EndSplineSet
EndChar

StartChar: Agrave
Encoding: 192 192 131
Width: 676
GlyphClass: 2
Flags: W
LayerCount: 2
Fore
SplineSet
309 710 m 1,0,-1
 368 710 l 1,1,-1
 663 0 l 1,2,-1
 589 0 l 1,3,-1
 497 222 l 1,4,-1
 178 222 l 1,5,-1
 87 0 l 1,6,-1
 12 0 l 1,7,-1
 309 710 l 1,0,-1
481 277 m 1,8,-1
 338 628 l 1,9,-1
 193 277 l 1,10,-1
 481 277 l 1,8,-1
245 917 m 1,11,-1
 316 917 l 1,12,-1
 376 824 l 1,13,-1
 332 807 l 1,14,-1
 245 917 l 1,11,-1
EndSplineSet
EndChar

StartChar: Aacute
Encoding: 193 193 132
Width: 676
GlyphClass: 2
Flags: W
LayerCount: 2
Fore
SplineSet
309 710 m 1,0,-1
 368 710 l 1,1,-1
 663 0 l 1,2,-1
 589 0 l 1,3,-1
 497 222 l 1,4,-1
 178 222 l 1,5,-1
 87 0 l 1,6,-1
 12 0 l 1,7,-1
 309 710 l 1,0,-1
481 277 m 1,8,-1
 338 628 l 1,9,-1
 193 277 l 1,10,-1
 481 277 l 1,8,-1
345 807 m 1,11,-1
 300 824 l 1,12,-1
 359 917 l 1,13,-1
 431 917 l 1,14,-1
 345 807 l 1,11,-1
EndSplineSet
EndChar

StartChar: Acircumflex
Encoding: 194 194 133
Width: 676
GlyphClass: 2
Flags: W
LayerCount: 2
Fore
SplineSet
309 710 m 1,0,-1
 368 710 l 1,1,-1
 663 0 l 1,2,-1
 589 0 l 1,3,-1
 497 222 l 1,4,-1
 178 222 l 1,5,-1
 87 0 l 1,6,-1
 12 0 l 1,7,-1
 309 710 l 1,0,-1
481 277 m 1,8,-1
 338 628 l 1,9,-1
 193 277 l 1,10,-1
 481 277 l 1,8,-1
215 832 m 1,11,-1
 313 917 l 1,12,-1
 363 917 l 1,13,-1
 462 832 l 1,14,-1
 423 811 l 1,15,-1
 338 874 l 1,16,-1
 253 811 l 1,17,-1
 215 832 l 1,11,-1
EndSplineSet
EndChar

StartChar: Atilde
Encoding: 195 195 134
Width: 676
GlyphClass: 2
Flags: W
LayerCount: 2
Fore
SplineSet
309 710 m 1,0,-1
 368 710 l 1,1,-1
 663 0 l 1,2,-1
 589 0 l 1,3,-1
 497 222 l 1,4,-1
 178 222 l 1,5,-1
 87 0 l 1,6,-1
 12 0 l 1,7,-1
 309 710 l 1,0,-1
481 277 m 1,8,-1
 338 628 l 1,9,-1
 193 277 l 1,10,-1
 481 277 l 1,8,-1
400 825 m 0,11,12
 377 825 377 825 360.5 831 c 128,-1,13
 344 837 344 837 329.5 844.5 c 128,-1,14
 315 852 315 852 301.5 858.5 c 128,-1,15
 288 865 288 865 272 865 c 0,16,17
 255 865 255 865 245.5 858 c 128,-1,18
 236 851 236 851 230.5 842.5 c 128,-1,19
 225 834 225 834 223.5 826.5 c 128,-1,20
 222 819 222 819 222 817 c 2,21,-1
 180 817 l 1,22,23
 180 822 180 822 183.5 837.5 c 128,-1,24
 187 853 187 853 197 869 c 128,-1,25
 207 885 207 885 225 897.5 c 128,-1,26
 243 910 243 910 271 910 c 0,27,28
 292 910 292 910 307.5 903.5 c 128,-1,29
 323 897 323 897 337 889 c 128,-1,30
 351 881 351 881 365.5 874.5 c 128,-1,31
 380 868 380 868 399 868 c 256,32,33
 418 868 418 868 429.5 875 c 128,-1,34
 441 882 441 882 447 891 c 128,-1,35
 453 900 453 900 454.5 907.5 c 128,-1,36
 456 915 456 915 456 917 c 2,37,-1
 498 917 l 1,38,39
 498 912 498 912 494 897 c 128,-1,40
 490 882 490 882 479.5 866 c 128,-1,41
 469 850 469 850 449.5 837.5 c 128,-1,42
 430 825 430 825 400 825 c 0,11,12
EndSplineSet
EndChar

StartChar: Adieresis
Encoding: 196 196 135
Width: 676
GlyphClass: 2
Flags: W
LayerCount: 2
Fore
SplineSet
309 710 m 1,0,-1
 368 710 l 1,1,-1
 663 0 l 1,2,-1
 589 0 l 1,3,-1
 497 222 l 1,4,-1
 178 222 l 1,5,-1
 87 0 l 1,6,-1
 12 0 l 1,7,-1
 309 710 l 1,0,-1
481 277 m 1,8,-1
 338 628 l 1,9,-1
 193 277 l 1,10,-1
 481 277 l 1,8,-1
235 820 m 1,11,-1
 235 914 l 1,12,-1
 293 914 l 1,13,-1
 293 820 l 1,14,-1
 235 820 l 1,11,-1
384 820 m 1,15,-1
 384 914 l 1,16,-1
 442 914 l 1,17,-1
 442 820 l 1,18,-1
 384 820 l 1,15,-1
EndSplineSet
EndChar

StartChar: Aring
Encoding: 197 197 136
Width: 676
GlyphClass: 2
Flags: W
LayerCount: 2
Fore
SplineSet
309 710 m 1,0,-1
 368 710 l 1,1,-1
 663 0 l 1,2,-1
 589 0 l 1,3,-1
 497 222 l 1,4,-1
 178 222 l 1,5,-1
 87 0 l 1,6,-1
 12 0 l 1,7,-1
 309 710 l 1,0,-1
481 277 m 1,8,-1
 338 628 l 1,9,-1
 193 277 l 1,10,-1
 481 277 l 1,8,-1
264 852 m 0,11,12
 264 881 264 881 285 899 c 128,-1,13
 306 917 306 917 338 917 c 256,14,15
 370 917 370 917 391 899 c 128,-1,16
 412 881 412 881 412 852 c 0,17,18
 412 822 412 822 391 804 c 128,-1,19
 370 786 370 786 338 786 c 256,20,21
 306 786 306 786 285 804 c 128,-1,22
 264 822 264 822 264 852 c 0,11,12
338 890 m 256,23,24
 321 890 321 890 309.5 879.5 c 128,-1,25
 298 869 298 869 298 852 c 256,26,27
 298 835 298 835 309.5 824 c 128,-1,28
 321 813 321 813 338 813 c 0,29,30
 354 813 354 813 366.5 824 c 128,-1,31
 379 835 379 835 379 852 c 256,32,33
 379 869 379 869 367 879.5 c 128,-1,34
 355 890 355 890 338 890 c 256,23,24
EndSplineSet
EndChar

StartChar: AE
Encoding: 198 198 137
Width: 961
GlyphClass: 2
Flags: W
LayerCount: 2
Fore
SplineSet
431 710 m 1,0,-1
 912 710 l 1,1,-1
 912 648 l 1,2,-1
 518 648 l 1,3,-1
 518 393 l 1,4,-1
 858 393 l 1,5,-1
 858 331 l 1,6,-1
 518 331 l 1,7,-1
 518 62 l 1,8,-1
 921 62 l 1,9,-1
 921 0 l 1,10,-1
 450 0 l 1,11,-1
 450 222 l 1,12,-1
 191 222 l 1,13,-1
 50 0 l 1,14,-1
 -26 0 l 1,15,-1
 431 710 l 1,0,-1
445 284 m 1,16,-1
 445 626 l 1,17,-1
 223 284 l 1,18,-1
 445 284 l 1,16,-1
EndSplineSet
EndChar

StartChar: Ccedilla
Encoding: 199 199 138
Width: 683
GlyphClass: 2
Flags: W
LayerCount: 2
Fore
SplineSet
294 -126 m 1,0,1
 308 -133 308 -133 332 -138.5 c 128,-1,2
 356 -144 356 -144 382 -144 c 0,3,4
 439 -144 439 -144 439 -109 c 0,5,6
 439 -89 439 -89 425.5 -81 c 128,-1,7
 412 -73 412 -73 389 -73 c 0,8,9
 368 -73 368 -73 345 -77.5 c 128,-1,10
 322 -82 322 -82 309 -87 c 1,11,-1
 353 -5 l 1,12,13
 284 -1 284 -1 226 32 c 128,-1,14
 168 65 168 65 126.5 116 c 128,-1,15
 85 167 85 167 62 230.5 c 128,-1,16
 39 294 39 294 39 360 c 0,17,18
 39 424 39 424 61.5 487.5 c 128,-1,19
 84 551 84 551 127 601 c 128,-1,20
 170 651 170 651 233 682.5 c 128,-1,21
 296 714 296 714 376 714 c 0,22,23
 471 714 471 714 538.5 671 c 128,-1,24
 606 628 606 628 638 559 c 1,25,-1
 583 525 l 1,26,27
 566 560 566 560 541.5 584 c 128,-1,28
 517 608 517 608 489 623 c 128,-1,29
 461 638 461 638 431 644.5 c 128,-1,30
 401 651 401 651 372 651 c 0,31,32
 308 651 308 651 259 625 c 128,-1,33
 210 599 210 599 176.5 557 c 128,-1,34
 143 515 143 515 126 462.5 c 128,-1,35
 109 410 109 410 109 356 c 0,36,37
 109 297 109 297 129.5 243 c 128,-1,38
 150 189 150 189 185.5 147.5 c 128,-1,39
 221 106 221 106 269.5 81.5 c 128,-1,40
 318 57 318 57 375 57 c 0,41,42
 405 57 405 57 436.5 64.5 c 128,-1,43
 468 72 468 72 497.5 88.5 c 128,-1,44
 527 105 527 105 552 129.5 c 128,-1,45
 577 154 577 154 594 189 c 1,46,-1
 652 159 l 1,47,48
 636 122 636 122 608 92.5 c 128,-1,49
 580 63 580 63 545 42.5 c 128,-1,50
 510 22 510 22 470.5 10 c 128,-1,51
 431 -2 431 -2 392 -5 c 1,52,-1
 364 -51 l 1,53,54
 373 -47 373 -47 383.5 -46 c 128,-1,55
 394 -45 394 -45 402 -45 c 0,56,57
 437 -45 437 -45 457.5 -60.5 c 128,-1,58
 478 -76 478 -76 478 -106 c 0,59,60
 478 -140 478 -140 452 -158 c 128,-1,61
 426 -176 426 -176 376 -176 c 0,62,63
 347 -176 347 -176 322 -170.5 c 128,-1,64
 297 -165 297 -165 277 -157 c 1,65,-1
 294 -126 l 1,0,1
EndSplineSet
EndChar

StartChar: Egrave
Encoding: 200 200 139
Width: 609
GlyphClass: 2
Flags: W
LayerCount: 2
Fore
SplineSet
566 62 m 1,0,-1
 566 0 l 1,1,-1
 89 0 l 1,2,-1
 89 710 l 1,3,-1
 557 710 l 1,4,-1
 557 648 l 1,5,-1
 159 648 l 1,6,-1
 159 392 l 1,7,-1
 506 392 l 1,8,-1
 506 333 l 1,9,-1
 159 333 l 1,10,-1
 159 62 l 1,11,-1
 566 62 l 1,0,-1
244 917 m 1,12,-1
 315 917 l 1,13,-1
 375 824 l 1,14,-1
 331 807 l 1,15,-1
 244 917 l 1,12,-1
EndSplineSet
EndChar

StartChar: Eacute
Encoding: 201 201 140
Width: 609
GlyphClass: 2
Flags: W
LayerCount: 2
Fore
SplineSet
343 807 m 1,0,-1
 298 824 l 1,1,-1
 357 917 l 1,2,-1
 429 917 l 1,3,-1
 343 807 l 1,0,-1
566 62 m 1,4,-1
 566 0 l 1,5,-1
 89 0 l 1,6,-1
 89 710 l 1,7,-1
 557 710 l 1,8,-1
 557 648 l 1,9,-1
 159 648 l 1,10,-1
 159 392 l 1,11,-1
 506 392 l 1,12,-1
 506 333 l 1,13,-1
 159 333 l 1,14,-1
 159 62 l 1,15,-1
 566 62 l 1,4,-1
EndSplineSet
EndChar

StartChar: Ecircumflex
Encoding: 202 202 141
Width: 609
GlyphClass: 2
Flags: W
LayerCount: 2
Fore
SplineSet
214 832 m 1,0,-1
 312 917 l 1,1,-1
 362 917 l 1,2,-1
 461 832 l 1,3,-1
 422 811 l 1,4,-1
 337 874 l 1,5,-1
 252 811 l 1,6,-1
 214 832 l 1,0,-1
566 62 m 1,7,-1
 566 0 l 1,8,-1
 89 0 l 1,9,-1
 89 710 l 1,10,-1
 557 710 l 1,11,-1
 557 648 l 1,12,-1
 159 648 l 1,13,-1
 159 392 l 1,14,-1
 506 392 l 1,15,-1
 506 333 l 1,16,-1
 159 333 l 1,17,-1
 159 62 l 1,18,-1
 566 62 l 1,7,-1
EndSplineSet
EndChar

StartChar: Edieresis
Encoding: 203 203 142
Width: 609
GlyphClass: 2
Flags: W
LayerCount: 2
Fore
SplineSet
233 820 m 1,0,-1
 233 914 l 1,1,-1
 291 914 l 1,2,-1
 291 820 l 1,3,-1
 233 820 l 1,0,-1
382 820 m 1,4,-1
 382 914 l 1,5,-1
 440 914 l 1,6,-1
 440 820 l 1,7,-1
 382 820 l 1,4,-1
566 62 m 1,8,-1
 566 0 l 1,9,-1
 89 0 l 1,10,-1
 89 710 l 1,11,-1
 557 710 l 1,12,-1
 557 648 l 1,13,-1
 159 648 l 1,14,-1
 159 392 l 1,15,-1
 506 392 l 1,16,-1
 506 333 l 1,17,-1
 159 333 l 1,18,-1
 159 62 l 1,19,-1
 566 62 l 1,8,-1
EndSplineSet
EndChar

StartChar: Igrave
Encoding: 204 204 143
Width: 248
GlyphClass: 2
Flags: W
LayerCount: 2
Fore
SplineSet
89 0 m 1,0,-1
 89 710 l 1,1,-1
 159 710 l 1,2,-1
 159 0 l 1,3,-1
 89 0 l 1,0,-1
31 917 m 1,4,-1
 102 917 l 1,5,-1
 162 824 l 1,6,-1
 118 807 l 1,7,-1
 31 917 l 1,4,-1
EndSplineSet
EndChar

StartChar: Iacute
Encoding: 205 205 144
Width: 248
GlyphClass: 2
Flags: W
LayerCount: 2
Fore
SplineSet
89 0 m 1,0,-1
 89 710 l 1,1,-1
 159 710 l 1,2,-1
 159 0 l 1,3,-1
 89 0 l 1,0,-1
130 807 m 1,4,-1
 85 824 l 1,5,-1
 144 917 l 1,6,-1
 216 917 l 1,7,-1
 130 807 l 1,4,-1
EndSplineSet
EndChar

StartChar: Icircumflex
Encoding: 206 206 145
Width: 248
GlyphClass: 2
Flags: W
LayerCount: 2
Fore
SplineSet
89 0 m 1,0,-1
 89 710 l 1,1,-1
 159 710 l 1,2,-1
 159 0 l 1,3,-1
 89 0 l 1,0,-1
1 832 m 1,4,-1
 99 917 l 1,5,-1
 149 917 l 1,6,-1
 248 832 l 1,7,-1
 209 811 l 1,8,-1
 124 874 l 1,9,-1
 39 811 l 1,10,-1
 1 832 l 1,4,-1
EndSplineSet
EndChar

StartChar: Idieresis
Encoding: 207 207 146
Width: 248
GlyphClass: 2
Flags: W
LayerCount: 2
Fore
SplineSet
89 0 m 1,0,-1
 89 710 l 1,1,-1
 159 710 l 1,2,-1
 159 0 l 1,3,-1
 89 0 l 1,0,-1
20 820 m 1,4,-1
 20 914 l 1,5,-1
 78 914 l 1,6,-1
 78 820 l 1,7,-1
 20 820 l 1,4,-1
169 820 m 1,8,-1
 169 914 l 1,9,-1
 227 914 l 1,10,-1
 227 820 l 1,11,-1
 169 820 l 1,8,-1
EndSplineSet
EndChar

StartChar: Eth
Encoding: 208 208 147
Width: 721
GlyphClass: 2
Flags: W
LayerCount: 2
Fore
SplineSet
95 0 m 1,0,-1
 95 330 l 1,1,-1
 34 330 l 1,2,-1
 34 384 l 1,3,-1
 95 384 l 1,4,-1
 95 710 l 1,5,-1
 336 710 l 2,6,7
 421 710 421 710 484.5 682 c 128,-1,8
 548 654 548 654 590.5 606 c 128,-1,9
 633 558 633 558 654.5 493.5 c 128,-1,10
 676 429 676 429 676 356 c 0,11,12
 676 275 676 275 652 209.5 c 128,-1,13
 628 144 628 144 583.5 97.5 c 128,-1,14
 539 51 539 51 476.5 25.5 c 128,-1,15
 414 0 414 0 336 0 c 2,16,-1
 95 0 l 1,0,-1
606 356 m 0,17,18
 606 420 606 420 588 473.5 c 128,-1,19
 570 527 570 527 535.5 566 c 128,-1,20
 501 605 501 605 451 626.5 c 128,-1,21
 401 648 401 648 336 648 c 2,22,-1
 165 648 l 1,23,-1
 165 384 l 1,24,-1
 335 384 l 1,25,-1
 335 330 l 1,26,-1
 165 330 l 1,27,-1
 165 62 l 1,28,-1
 336 62 l 2,29,30
 402 62 402 62 452.5 84.5 c 128,-1,31
 503 107 503 107 537 146.5 c 128,-1,32
 571 186 571 186 588.5 239.5 c 128,-1,33
 606 293 606 293 606 356 c 0,17,18
EndSplineSet
EndChar

StartChar: Ntilde
Encoding: 209 209 148
Width: 772
GlyphClass: 2
Flags: W
LayerCount: 2
Fore
SplineSet
159 580 m 1,0,-1
 159 0 l 1,1,-1
 89 0 l 1,2,-1
 89 710 l 1,3,-1
 143 710 l 1,4,-1
 613 119 l 1,5,-1
 613 709 l 1,6,-1
 683 709 l 1,7,-1
 683 0 l 1,8,-1
 622 0 l 1,9,-1
 159 580 l 1,0,-1
451 825 m 0,10,11
 428 825 428 825 411.5 831 c 128,-1,12
 395 837 395 837 380.5 844.5 c 128,-1,13
 366 852 366 852 352.5 858.5 c 128,-1,14
 339 865 339 865 323 865 c 0,15,16
 306 865 306 865 296.5 858 c 128,-1,17
 287 851 287 851 281.5 842.5 c 128,-1,18
 276 834 276 834 274.5 826.5 c 128,-1,19
 273 819 273 819 273 817 c 2,20,-1
 231 817 l 1,21,22
 231 822 231 822 234.5 837.5 c 128,-1,23
 238 853 238 853 248 869 c 128,-1,24
 258 885 258 885 276 897.5 c 128,-1,25
 294 910 294 910 322 910 c 0,26,27
 343 910 343 910 358.5 903.5 c 128,-1,28
 374 897 374 897 388 889 c 128,-1,29
 402 881 402 881 416.5 874.5 c 128,-1,30
 431 868 431 868 450 868 c 256,31,32
 469 868 469 868 480.5 875 c 128,-1,33
 492 882 492 882 498 891 c 128,-1,34
 504 900 504 900 505.5 907.5 c 128,-1,35
 507 915 507 915 507 917 c 2,36,-1
 549 917 l 1,37,38
 549 912 549 912 545 897 c 128,-1,39
 541 882 541 882 530.5 866 c 128,-1,40
 520 850 520 850 500.5 837.5 c 128,-1,41
 481 825 481 825 451 825 c 0,10,11
EndSplineSet
EndChar

StartChar: Ograve
Encoding: 210 210 149
Width: 751
GlyphClass: 2
Flags: W
LayerCount: 2
Fore
SplineSet
375 -5 m 0,0,1
 301 -5 301 -5 239.5 25.5 c 128,-1,2
 178 56 178 56 134 106.5 c 128,-1,3
 90 157 90 157 66 222 c 128,-1,4
 42 287 42 287 42 355 c 0,5,6
 42 426 42 426 67.5 491 c 128,-1,7
 93 556 93 556 138 606 c 128,-1,8
 183 656 183 656 244 685.5 c 128,-1,9
 305 715 305 715 376 715 c 0,10,11
 450 715 450 715 511.5 683.5 c 128,-1,12
 573 652 573 652 616.5 601 c 128,-1,13
 660 550 660 550 684 485.5 c 128,-1,14
 708 421 708 421 708 354 c 0,15,16
 708 283 708 283 682.5 218 c 128,-1,17
 657 153 657 153 612.5 103.5 c 128,-1,18
 568 54 568 54 507 24.5 c 128,-1,19
 446 -5 446 -5 375 -5 c 0,0,1
112 355 m 0,20,21
 112 297 112 297 131 243.5 c 128,-1,22
 150 190 150 190 185 148.5 c 128,-1,23
 220 107 220 107 268 82.5 c 128,-1,24
 316 58 316 58 375 58 c 0,25,26
 435 58 435 58 484 84 c 128,-1,27
 533 110 533 110 567 152 c 128,-1,28
 601 194 601 194 619.5 247 c 128,-1,29
 638 300 638 300 638 355 c 0,30,31
 638 413 638 413 618.5 466.5 c 128,-1,32
 599 520 599 520 564 561 c 128,-1,33
 529 602 529 602 481 626.5 c 128,-1,34
 433 651 433 651 375 651 c 0,35,36
 315 651 315 651 266 625.5 c 128,-1,37
 217 600 217 600 183 558 c 128,-1,38
 149 516 149 516 130.5 463 c 128,-1,39
 112 410 112 410 112 355 c 0,20,21
283 917 m 1,40,-1
 354 917 l 1,41,-1
 414 824 l 1,42,-1
 370 807 l 1,43,-1
 283 917 l 1,40,-1
EndSplineSet
EndChar

StartChar: Oacute
Encoding: 211 211 150
Width: 751
GlyphClass: 2
Flags: W
LayerCount: 2
Fore
SplineSet
382 807 m 1,0,-1
 337 824 l 1,1,-1
 396 917 l 1,2,-1
 468 917 l 1,3,-1
 382 807 l 1,0,-1
375 -5 m 0,4,5
 301 -5 301 -5 239.5 25.5 c 128,-1,6
 178 56 178 56 134 106.5 c 128,-1,7
 90 157 90 157 66 222 c 128,-1,8
 42 287 42 287 42 355 c 0,9,10
 42 426 42 426 67.5 491 c 128,-1,11
 93 556 93 556 138 606 c 128,-1,12
 183 656 183 656 244 685.5 c 128,-1,13
 305 715 305 715 376 715 c 0,14,15
 450 715 450 715 511.5 683.5 c 128,-1,16
 573 652 573 652 616.5 601 c 128,-1,17
 660 550 660 550 684 485.5 c 128,-1,18
 708 421 708 421 708 354 c 0,19,20
 708 283 708 283 682.5 218 c 128,-1,21
 657 153 657 153 612.5 103.5 c 128,-1,22
 568 54 568 54 507 24.5 c 128,-1,23
 446 -5 446 -5 375 -5 c 0,4,5
112 355 m 0,24,25
 112 297 112 297 131 243.5 c 128,-1,26
 150 190 150 190 185 148.5 c 128,-1,27
 220 107 220 107 268 82.5 c 128,-1,28
 316 58 316 58 375 58 c 0,29,30
 435 58 435 58 484 84 c 128,-1,31
 533 110 533 110 567 152 c 128,-1,32
 601 194 601 194 619.5 247 c 128,-1,33
 638 300 638 300 638 355 c 0,34,35
 638 413 638 413 618.5 466.5 c 128,-1,36
 599 520 599 520 564 561 c 128,-1,37
 529 602 529 602 481 626.5 c 128,-1,38
 433 651 433 651 375 651 c 0,39,40
 315 651 315 651 266 625.5 c 128,-1,41
 217 600 217 600 183 558 c 128,-1,42
 149 516 149 516 130.5 463 c 128,-1,43
 112 410 112 410 112 355 c 0,24,25
EndSplineSet
EndChar

StartChar: Ocircumflex
Encoding: 212 212 151
Width: 751
GlyphClass: 2
Flags: W
LayerCount: 2
Fore
SplineSet
253 832 m 1,0,-1
 351 917 l 1,1,-1
 401 917 l 1,2,-1
 500 832 l 1,3,-1
 461 811 l 1,4,-1
 376 874 l 1,5,-1
 291 811 l 1,6,-1
 253 832 l 1,0,-1
375 -5 m 0,7,8
 301 -5 301 -5 239.5 25.5 c 128,-1,9
 178 56 178 56 134 106.5 c 128,-1,10
 90 157 90 157 66 222 c 128,-1,11
 42 287 42 287 42 355 c 0,12,13
 42 426 42 426 67.5 491 c 128,-1,14
 93 556 93 556 138 606 c 128,-1,15
 183 656 183 656 244 685.5 c 128,-1,16
 305 715 305 715 376 715 c 0,17,18
 450 715 450 715 511.5 683.5 c 128,-1,19
 573 652 573 652 616.5 601 c 128,-1,20
 660 550 660 550 684 485.5 c 128,-1,21
 708 421 708 421 708 354 c 0,22,23
 708 283 708 283 682.5 218 c 128,-1,24
 657 153 657 153 612.5 103.5 c 128,-1,25
 568 54 568 54 507 24.5 c 128,-1,26
 446 -5 446 -5 375 -5 c 0,7,8
112 355 m 0,27,28
 112 297 112 297 131 243.5 c 128,-1,29
 150 190 150 190 185 148.5 c 128,-1,30
 220 107 220 107 268 82.5 c 128,-1,31
 316 58 316 58 375 58 c 0,32,33
 435 58 435 58 484 84 c 128,-1,34
 533 110 533 110 567 152 c 128,-1,35
 601 194 601 194 619.5 247 c 128,-1,36
 638 300 638 300 638 355 c 0,37,38
 638 413 638 413 618.5 466.5 c 128,-1,39
 599 520 599 520 564 561 c 128,-1,40
 529 602 529 602 481 626.5 c 128,-1,41
 433 651 433 651 375 651 c 0,42,43
 315 651 315 651 266 625.5 c 128,-1,44
 217 600 217 600 183 558 c 128,-1,45
 149 516 149 516 130.5 463 c 128,-1,46
 112 410 112 410 112 355 c 0,27,28
EndSplineSet
EndChar

StartChar: Otilde
Encoding: 213 213 152
Width: 751
GlyphClass: 2
Flags: W
LayerCount: 2
Fore
SplineSet
375 -5 m 0,0,1
 301 -5 301 -5 239.5 25.5 c 128,-1,2
 178 56 178 56 134 106.5 c 128,-1,3
 90 157 90 157 66 222 c 128,-1,4
 42 287 42 287 42 355 c 0,5,6
 42 426 42 426 67.5 491 c 128,-1,7
 93 556 93 556 138 606 c 128,-1,8
 183 656 183 656 244 685.5 c 128,-1,9
 305 715 305 715 376 715 c 0,10,11
 450 715 450 715 511.5 683.5 c 128,-1,12
 573 652 573 652 616.5 601 c 128,-1,13
 660 550 660 550 684 485.5 c 128,-1,14
 708 421 708 421 708 354 c 0,15,16
 708 283 708 283 682.5 218 c 128,-1,17
 657 153 657 153 612.5 103.5 c 128,-1,18
 568 54 568 54 507 24.5 c 128,-1,19
 446 -5 446 -5 375 -5 c 0,0,1
112 355 m 0,20,21
 112 297 112 297 131 243.5 c 128,-1,22
 150 190 150 190 185 148.5 c 128,-1,23
 220 107 220 107 268 82.5 c 128,-1,24
 316 58 316 58 375 58 c 0,25,26
 435 58 435 58 484 84 c 128,-1,27
 533 110 533 110 567 152 c 128,-1,28
 601 194 601 194 619.5 247 c 128,-1,29
 638 300 638 300 638 355 c 0,30,31
 638 413 638 413 618.5 466.5 c 128,-1,32
 599 520 599 520 564 561 c 128,-1,33
 529 602 529 602 481 626.5 c 128,-1,34
 433 651 433 651 375 651 c 0,35,36
 315 651 315 651 266 625.5 c 128,-1,37
 217 600 217 600 183 558 c 128,-1,38
 149 516 149 516 130.5 463 c 128,-1,39
 112 410 112 410 112 355 c 0,20,21
438 825 m 0,40,41
 415 825 415 825 398.5 831 c 128,-1,42
 382 837 382 837 367.5 844.5 c 128,-1,43
 353 852 353 852 339.5 858.5 c 128,-1,44
 326 865 326 865 310 865 c 0,45,46
 293 865 293 865 283.5 858 c 128,-1,47
 274 851 274 851 268.5 842.5 c 128,-1,48
 263 834 263 834 261.5 826.5 c 128,-1,49
 260 819 260 819 260 817 c 2,50,-1
 218 817 l 1,51,52
 218 822 218 822 221.5 837.5 c 128,-1,53
 225 853 225 853 235 869 c 128,-1,54
 245 885 245 885 263 897.5 c 128,-1,55
 281 910 281 910 309 910 c 0,56,57
 330 910 330 910 345.5 903.5 c 128,-1,58
 361 897 361 897 375 889 c 128,-1,59
 389 881 389 881 403.5 874.5 c 128,-1,60
 418 868 418 868 437 868 c 256,61,62
 456 868 456 868 467.5 875 c 128,-1,63
 479 882 479 882 485 891 c 128,-1,64
 491 900 491 900 492.5 907.5 c 128,-1,65
 494 915 494 915 494 917 c 2,66,-1
 536 917 l 1,67,68
 536 912 536 912 532 897 c 128,-1,69
 528 882 528 882 517.5 866 c 128,-1,70
 507 850 507 850 487.5 837.5 c 128,-1,71
 468 825 468 825 438 825 c 0,40,41
EndSplineSet
EndChar

StartChar: Odieresis
Encoding: 214 214 153
Width: 751
GlyphClass: 2
Flags: W
LayerCount: 2
Fore
SplineSet
273 820 m 1,0,-1
 273 914 l 1,1,-1
 331 914 l 1,2,-1
 331 820 l 1,3,-1
 273 820 l 1,0,-1
422 820 m 1,4,-1
 422 914 l 1,5,-1
 480 914 l 1,6,-1
 480 820 l 1,7,-1
 422 820 l 1,4,-1
375 -5 m 0,8,9
 301 -5 301 -5 239.5 25.5 c 128,-1,10
 178 56 178 56 134 106.5 c 128,-1,11
 90 157 90 157 66 222 c 128,-1,12
 42 287 42 287 42 355 c 0,13,14
 42 426 42 426 67.5 491 c 128,-1,15
 93 556 93 556 138 606 c 128,-1,16
 183 656 183 656 244 685.5 c 128,-1,17
 305 715 305 715 376 715 c 0,18,19
 450 715 450 715 511.5 683.5 c 128,-1,20
 573 652 573 652 616.5 601 c 128,-1,21
 660 550 660 550 684 485.5 c 128,-1,22
 708 421 708 421 708 354 c 0,23,24
 708 283 708 283 682.5 218 c 128,-1,25
 657 153 657 153 612.5 103.5 c 128,-1,26
 568 54 568 54 507 24.5 c 128,-1,27
 446 -5 446 -5 375 -5 c 0,8,9
112 355 m 0,28,29
 112 297 112 297 131 243.5 c 128,-1,30
 150 190 150 190 185 148.5 c 128,-1,31
 220 107 220 107 268 82.5 c 128,-1,32
 316 58 316 58 375 58 c 0,33,34
 435 58 435 58 484 84 c 128,-1,35
 533 110 533 110 567 152 c 128,-1,36
 601 194 601 194 619.5 247 c 128,-1,37
 638 300 638 300 638 355 c 0,38,39
 638 413 638 413 618.5 466.5 c 128,-1,40
 599 520 599 520 564 561 c 128,-1,41
 529 602 529 602 481 626.5 c 128,-1,42
 433 651 433 651 375 651 c 0,43,44
 315 651 315 651 266 625.5 c 128,-1,45
 217 600 217 600 183 558 c 128,-1,46
 149 516 149 516 130.5 463 c 128,-1,47
 112 410 112 410 112 355 c 0,28,29
EndSplineSet
EndChar

StartChar: multiply
Encoding: 215 215 154
Width: 457
GlyphClass: 2
Flags: W
LayerCount: 2
Fore
SplineSet
394 151 m 1,0,-1
 350 108 l 1,1,-1
 228 229 l 1,2,-1
 107 108 l 1,3,-1
 64 152 l 1,4,-1
 185 272 l 1,5,-1
 65 393 l 1,6,-1
 109 436 l 1,7,-1
 228 316 l 1,8,-1
 349 437 l 1,9,-1
 392 393 l 1,10,-1
 272 272 l 1,11,-1
 394 151 l 1,0,-1
EndSplineSet
EndChar

StartChar: Oslash
Encoding: 216 216 155
Width: 751
GlyphClass: 2
Flags: W
LayerCount: 2
Fore
SplineSet
650 710 m 1,0,-1
 593 625 l 1,1,2
 647 572 647 572 677.5 500.5 c 128,-1,3
 708 429 708 429 708 354 c 0,4,5
 708 283 708 283 682.5 218 c 128,-1,6
 657 153 657 153 612.5 103.5 c 128,-1,7
 568 54 568 54 507 24.5 c 128,-1,8
 446 -5 446 -5 375 -5 c 0,9,10
 327 -5 327 -5 285 8 c 128,-1,11
 243 21 243 21 207 44 c 1,12,-1
 178 0 l 1,13,-1
 101 0 l 1,14,-1
 156 83 l 1,15,16
 102 135 102 135 72 206.5 c 128,-1,17
 42 278 42 278 42 355 c 0,18,19
 42 426 42 426 67.5 491 c 128,-1,20
 93 556 93 556 138 606 c 128,-1,21
 183 656 183 656 244 685.5 c 128,-1,22
 305 715 305 715 376 715 c 0,23,24
 424 715 424 715 465.5 701.5 c 128,-1,25
 507 688 507 688 543 665 c 1,26,-1
 573 710 l 1,27,-1
 650 710 l 1,0,-1
112 355 m 0,28,29
 112 293 112 293 133.5 237 c 128,-1,30
 155 181 155 181 193 139 c 1,31,-1
 507 611 l 1,32,33
 478 630 478 630 445 640.5 c 128,-1,34
 412 651 412 651 375 651 c 0,35,36
 315 651 315 651 266 625.5 c 128,-1,37
 217 600 217 600 183 558 c 128,-1,38
 149 516 149 516 130.5 463 c 128,-1,39
 112 410 112 410 112 355 c 0,28,29
638 355 m 0,40,41
 638 416 638 416 616 471.5 c 128,-1,42
 594 527 594 527 556 569 c 1,43,-1
 242 97 l 1,44,45
 301 58 301 58 375 58 c 0,46,47
 435 58 435 58 484 84 c 128,-1,48
 533 110 533 110 567 152 c 128,-1,49
 601 194 601 194 619.5 247 c 128,-1,50
 638 300 638 300 638 355 c 0,40,41
EndSplineSet
EndChar

StartChar: Ugrave
Encoding: 217 217 156
Width: 755
GlyphClass: 2
Flags: W
LayerCount: 2
Fore
SplineSet
377 58 m 0,0,1
 444 58 444 58 488.5 83.5 c 128,-1,2
 533 109 533 109 559.5 150.5 c 128,-1,3
 586 192 586 192 596.5 245 c 128,-1,4
 607 298 607 298 607 352 c 2,5,-1
 607 710 l 1,6,-1
 677 710 l 1,7,-1
 677 352 l 2,8,9
 677 280 677 280 661 215.5 c 128,-1,10
 645 151 645 151 609.5 102 c 128,-1,11
 574 53 574 53 517 24 c 128,-1,12
 460 -5 460 -5 378 -5 c 0,13,14
 294 -5 294 -5 236.5 25.5 c 128,-1,15
 179 56 179 56 144 106 c 128,-1,16
 109 156 109 156 94 220 c 128,-1,17
 79 284 79 284 79 352 c 2,18,-1
 79 710 l 1,19,-1
 148 710 l 1,20,-1
 148 352 l 2,21,22
 148 296 148 296 159 243 c 128,-1,23
 170 190 170 190 196.5 149 c 128,-1,24
 223 108 223 108 267 83 c 128,-1,25
 311 58 311 58 377 58 c 0,0,1
285 917 m 1,26,-1
 356 917 l 1,27,-1
 416 824 l 1,28,-1
 372 807 l 1,29,-1
 285 917 l 1,26,-1
EndSplineSet
EndChar

StartChar: Uacute
Encoding: 218 218 157
Width: 755
GlyphClass: 2
Flags: W
LayerCount: 2
Fore
SplineSet
385 807 m 1,0,-1
 340 824 l 1,1,-1
 399 917 l 1,2,-1
 471 917 l 1,3,-1
 385 807 l 1,0,-1
377 58 m 0,4,5
 444 58 444 58 488.5 83.5 c 128,-1,6
 533 109 533 109 559.5 150.5 c 128,-1,7
 586 192 586 192 596.5 245 c 128,-1,8
 607 298 607 298 607 352 c 2,9,-1
 607 710 l 1,10,-1
 677 710 l 1,11,-1
 677 352 l 2,12,13
 677 280 677 280 661 215.5 c 128,-1,14
 645 151 645 151 609.5 102 c 128,-1,15
 574 53 574 53 517 24 c 128,-1,16
 460 -5 460 -5 378 -5 c 0,17,18
 294 -5 294 -5 236.5 25.5 c 128,-1,19
 179 56 179 56 144 106 c 128,-1,20
 109 156 109 156 94 220 c 128,-1,21
 79 284 79 284 79 352 c 2,22,-1
 79 710 l 1,23,-1
 148 710 l 1,24,-1
 148 352 l 2,25,26
 148 296 148 296 159 243 c 128,-1,27
 170 190 170 190 196.5 149 c 128,-1,28
 223 108 223 108 267 83 c 128,-1,29
 311 58 311 58 377 58 c 0,4,5
EndSplineSet
EndChar

StartChar: Ucircumflex
Encoding: 219 219 158
Width: 755
GlyphClass: 2
Flags: W
LayerCount: 2
Fore
SplineSet
255 832 m 1,0,-1
 353 917 l 1,1,-1
 403 917 l 1,2,-1
 502 832 l 1,3,-1
 463 811 l 1,4,-1
 378 874 l 1,5,-1
 293 811 l 1,6,-1
 255 832 l 1,0,-1
377 58 m 0,7,8
 444 58 444 58 488.5 83.5 c 128,-1,9
 533 109 533 109 559.5 150.5 c 128,-1,10
 586 192 586 192 596.5 245 c 128,-1,11
 607 298 607 298 607 352 c 2,12,-1
 607 710 l 1,13,-1
 677 710 l 1,14,-1
 677 352 l 2,15,16
 677 280 677 280 661 215.5 c 128,-1,17
 645 151 645 151 609.5 102 c 128,-1,18
 574 53 574 53 517 24 c 128,-1,19
 460 -5 460 -5 378 -5 c 0,20,21
 294 -5 294 -5 236.5 25.5 c 128,-1,22
 179 56 179 56 144 106 c 128,-1,23
 109 156 109 156 94 220 c 128,-1,24
 79 284 79 284 79 352 c 2,25,-1
 79 710 l 1,26,-1
 148 710 l 1,27,-1
 148 352 l 2,28,29
 148 296 148 296 159 243 c 128,-1,30
 170 190 170 190 196.5 149 c 128,-1,31
 223 108 223 108 267 83 c 128,-1,32
 311 58 311 58 377 58 c 0,7,8
EndSplineSet
EndChar

StartChar: Udieresis
Encoding: 220 220 159
Width: 755
GlyphClass: 2
Flags: W
LayerCount: 2
Fore
SplineSet
275 820 m 1,0,-1
 275 914 l 1,1,-1
 333 914 l 1,2,-1
 333 820 l 1,3,-1
 275 820 l 1,0,-1
424 820 m 1,4,-1
 424 914 l 1,5,-1
 482 914 l 1,6,-1
 482 820 l 1,7,-1
 424 820 l 1,4,-1
377 58 m 0,8,9
 444 58 444 58 488.5 83.5 c 128,-1,10
 533 109 533 109 559.5 150.5 c 128,-1,11
 586 192 586 192 596.5 245 c 128,-1,12
 607 298 607 298 607 352 c 2,13,-1
 607 710 l 1,14,-1
 677 710 l 1,15,-1
 677 352 l 2,16,17
 677 280 677 280 661 215.5 c 128,-1,18
 645 151 645 151 609.5 102 c 128,-1,19
 574 53 574 53 517 24 c 128,-1,20
 460 -5 460 -5 378 -5 c 0,21,22
 294 -5 294 -5 236.5 25.5 c 128,-1,23
 179 56 179 56 144 106 c 128,-1,24
 109 156 109 156 94 220 c 128,-1,25
 79 284 79 284 79 352 c 2,26,-1
 79 710 l 1,27,-1
 148 710 l 1,28,-1
 148 352 l 2,29,30
 148 296 148 296 159 243 c 128,-1,31
 170 190 170 190 196.5 149 c 128,-1,32
 223 108 223 108 267 83 c 128,-1,33
 311 58 311 58 377 58 c 0,8,9
EndSplineSet
EndChar

StartChar: Yacute
Encoding: 221 221 160
Width: 651
GlyphClass: 2
Flags: W
LayerCount: 2
Fore
SplineSet
93 710 m 1,0,-1
 325 328 l 1,1,-1
 559 710 l 1,2,-1
 635 710 l 1,3,-1
 360 264 l 1,4,-1
 360 0 l 1,5,-1
 290 0 l 1,6,-1
 290 266 l 1,7,-1
 16 710 l 1,8,-1
 93 710 l 1,0,-1
331 807 m 1,9,-1
 286 824 l 1,10,-1
 345 917 l 1,11,-1
 417 917 l 1,12,-1
 331 807 l 1,9,-1
EndSplineSet
EndChar

StartChar: Thorn
Encoding: 222 222 161
Width: 603
GlyphClass: 2
Flags: W
LayerCount: 2
Fore
SplineSet
364 569 m 2,0,1
 410 569 410 569 449 549.5 c 128,-1,2
 488 530 488 530 516 498.5 c 128,-1,3
 544 467 544 467 559.5 427 c 128,-1,4
 575 387 575 387 575 346 c 0,5,6
 575 302 575 302 560.5 261.5 c 128,-1,7
 546 221 546 221 519 190 c 128,-1,8
 492 159 492 159 454.5 140 c 128,-1,9
 417 121 417 121 371 121 c 2,10,-1
 159 121 l 1,11,-1
 159 0 l 1,12,-1
 89 0 l 1,13,-1
 89 710 l 1,14,-1
 159 710 l 1,15,-1
 159 569 l 1,16,-1
 364 569 l 2,0,1
368 184 m 2,17,18
 400 184 400 184 425.5 197.5 c 128,-1,19
 451 211 451 211 469 233.5 c 128,-1,20
 487 256 487 256 496.5 285.5 c 128,-1,21
 506 315 506 315 506 346 c 0,22,23
 506 378 506 378 494.5 407.5 c 128,-1,24
 483 437 483 437 463.5 459 c 128,-1,25
 444 481 444 481 417.5 494 c 128,-1,26
 391 507 391 507 362 507 c 2,27,-1
 159 507 l 1,28,-1
 159 184 l 1,29,-1
 368 184 l 2,17,18
EndSplineSet
EndChar

StartChar: germandbls
Encoding: 223 223 162
Width: 551
GlyphClass: 2
Flags: W
LayerCount: 2
Fore
SplineSet
238 57 m 1,0,1
 331 58 331 58 387 96 c 128,-1,2
 443 134 443 134 443 211 c 0,3,4
 443 246 443 246 431 275 c 128,-1,5
 419 304 419 304 397 324.5 c 128,-1,6
 375 345 375 345 344 356.5 c 128,-1,7
 313 368 313 368 276 368 c 2,8,-1
 257 368 l 1,9,-1
 257 430 l 1,10,-1
 275 430 l 2,11,12
 329 430 329 430 362.5 461.5 c 128,-1,13
 396 493 396 493 396 544 c 0,14,15
 396 571 396 571 386 591.5 c 128,-1,16
 376 612 376 612 359.5 626 c 128,-1,17
 343 640 343 640 320.5 647 c 128,-1,18
 298 654 298 654 273 654 c 0,19,20
 240 654 240 654 215 642.5 c 128,-1,21
 190 631 190 631 173.5 610.5 c 128,-1,22
 157 590 157 590 148.5 563 c 128,-1,23
 140 536 140 536 140 505 c 2,24,-1
 140 0 l 1,25,-1
 75 0 l 1,26,-1
 75 515 l 2,27,28
 75 559 75 559 90 595.5 c 128,-1,29
 105 632 105 632 131.5 658.5 c 128,-1,30
 158 685 158 685 194.5 699.5 c 128,-1,31
 231 714 231 714 275 714 c 0,32,33
 315 714 315 714 349 702 c 128,-1,34
 383 690 383 690 408 669 c 128,-1,35
 433 648 433 648 447 618.5 c 128,-1,36
 461 589 461 589 461 554 c 0,37,38
 461 527 461 527 452.5 502 c 128,-1,39
 444 477 444 477 430 457 c 128,-1,40
 416 437 416 437 397 422.5 c 128,-1,41
 378 408 378 408 356 403 c 1,42,43
 431 387 431 387 472 333.5 c 128,-1,44
 513 280 513 280 513 207 c 0,45,46
 513 156 513 156 493 117.5 c 128,-1,47
 473 79 473 79 437 52 c 128,-1,48
 401 25 401 25 350.5 10.5 c 128,-1,49
 300 -4 300 -4 238 -6 c 1,50,-1
 238 57 l 1,0,1
EndSplineSet
EndChar

StartChar: agrave
Encoding: 224 224 163
Width: 545
GlyphClass: 2
Flags: W
LayerCount: 2
Fore
SplineSet
206 -10 m 0,0,1
 169 -10 169 -10 137.5 2.5 c 128,-1,2
 106 15 106 15 82.5 37 c 128,-1,3
 59 59 59 59 46 88.5 c 128,-1,4
 33 118 33 118 33 152 c 256,5,6
 33 186 33 186 49 215 c 128,-1,7
 65 244 65 244 94 265 c 128,-1,8
 123 286 123 286 163 297.5 c 128,-1,9
 203 309 203 309 251 309 c 0,10,11
 291 309 291 309 332 302 c 128,-1,12
 373 295 373 295 405 282 c 1,13,-1
 405 329 l 2,14,15
 405 398 405 398 366 438.5 c 128,-1,16
 327 479 327 479 258 479 c 0,17,18
 218 479 218 479 176 463 c 128,-1,19
 134 447 134 447 91 417 c 1,20,-1
 67 462 l 1,21,22
 168 530 168 530 263 530 c 0,23,24
 361 530 361 530 417 475 c 128,-1,25
 473 420 473 420 473 323 c 2,26,-1
 473 88 l 2,27,28
 473 60 473 60 498 60 c 1,29,-1
 498 0 l 1,30,31
 481 -3 481 -3 472 -3 c 0,32,33
 446 -3 446 -3 431.5 10 c 128,-1,34
 417 23 417 23 416 46 c 2,35,-1
 414 87 l 1,36,37
 378 40 378 40 323.5 15 c 128,-1,38
 269 -10 269 -10 206 -10 c 0,0,1
222 42 m 0,39,40
 275 42 275 42 319.5 62 c 128,-1,41
 364 82 364 82 387 115 c 0,42,43
 396 124 396 124 400.5 134.5 c 128,-1,44
 405 145 405 145 405 154 c 2,45,-1
 405 239 l 1,46,47
 371 252 371 252 334.5 259 c 128,-1,48
 298 266 298 266 260 266 c 0,49,50
 188 266 188 266 143 236 c 128,-1,51
 98 206 98 206 98 157 c 0,52,53
 98 133 98 133 107.5 112 c 128,-1,54
 117 91 117 91 133.5 75.5 c 128,-1,55
 150 60 150 60 173 51 c 128,-1,56
 196 42 196 42 222 42 c 0,39,40
170 730 m 1,57,-1
 241 730 l 1,58,-1
 301 637 l 1,59,-1
 257 620 l 1,60,-1
 170 730 l 1,57,-1
EndSplineSet
EndChar

StartChar: aacute
Encoding: 225 225 164
Width: 545
GlyphClass: 2
Flags: W
LayerCount: 2
Fore
SplineSet
206 -10 m 0,0,1
 169 -10 169 -10 137.5 2.5 c 128,-1,2
 106 15 106 15 82.5 37 c 128,-1,3
 59 59 59 59 46 88.5 c 128,-1,4
 33 118 33 118 33 152 c 256,5,6
 33 186 33 186 49 215 c 128,-1,7
 65 244 65 244 94 265 c 128,-1,8
 123 286 123 286 163 297.5 c 128,-1,9
 203 309 203 309 251 309 c 0,10,11
 291 309 291 309 332 302 c 128,-1,12
 373 295 373 295 405 282 c 1,13,-1
 405 329 l 2,14,15
 405 398 405 398 366 438.5 c 128,-1,16
 327 479 327 479 258 479 c 0,17,18
 218 479 218 479 176 463 c 128,-1,19
 134 447 134 447 91 417 c 1,20,-1
 67 462 l 1,21,22
 168 530 168 530 263 530 c 0,23,24
 361 530 361 530 417 475 c 128,-1,25
 473 420 473 420 473 323 c 2,26,-1
 473 88 l 2,27,28
 473 60 473 60 498 60 c 1,29,-1
 498 0 l 1,30,31
 481 -3 481 -3 472 -3 c 0,32,33
 446 -3 446 -3 431.5 10 c 128,-1,34
 417 23 417 23 416 46 c 2,35,-1
 414 87 l 1,36,37
 378 40 378 40 323.5 15 c 128,-1,38
 269 -10 269 -10 206 -10 c 0,0,1
222 42 m 0,39,40
 275 42 275 42 319.5 62 c 128,-1,41
 364 82 364 82 387 115 c 0,42,43
 396 124 396 124 400.5 134.5 c 128,-1,44
 405 145 405 145 405 154 c 2,45,-1
 405 239 l 1,46,47
 371 252 371 252 334.5 259 c 128,-1,48
 298 266 298 266 260 266 c 0,49,50
 188 266 188 266 143 236 c 128,-1,51
 98 206 98 206 98 157 c 0,52,53
 98 133 98 133 107.5 112 c 128,-1,54
 117 91 117 91 133.5 75.5 c 128,-1,55
 150 60 150 60 173 51 c 128,-1,56
 196 42 196 42 222 42 c 0,39,40
270 620 m 1,57,-1
 225 637 l 1,58,-1
 284 730 l 1,59,-1
 356 730 l 1,60,-1
 270 620 l 1,57,-1
EndSplineSet
EndChar

StartChar: acircumflex
Encoding: 226 226 165
Width: 545
GlyphClass: 2
Flags: W
LayerCount: 2
Fore
SplineSet
206 -10 m 0,0,1
 169 -10 169 -10 137.5 2.5 c 128,-1,2
 106 15 106 15 82.5 37 c 128,-1,3
 59 59 59 59 46 88.5 c 128,-1,4
 33 118 33 118 33 152 c 256,5,6
 33 186 33 186 49 215 c 128,-1,7
 65 244 65 244 94 265 c 128,-1,8
 123 286 123 286 163 297.5 c 128,-1,9
 203 309 203 309 251 309 c 0,10,11
 291 309 291 309 332 302 c 128,-1,12
 373 295 373 295 405 282 c 1,13,-1
 405 329 l 2,14,15
 405 398 405 398 366 438.5 c 128,-1,16
 327 479 327 479 258 479 c 0,17,18
 218 479 218 479 176 463 c 128,-1,19
 134 447 134 447 91 417 c 1,20,-1
 67 462 l 1,21,22
 168 530 168 530 263 530 c 0,23,24
 361 530 361 530 417 475 c 128,-1,25
 473 420 473 420 473 323 c 2,26,-1
 473 88 l 2,27,28
 473 60 473 60 498 60 c 1,29,-1
 498 0 l 1,30,31
 481 -3 481 -3 472 -3 c 0,32,33
 446 -3 446 -3 431.5 10 c 128,-1,34
 417 23 417 23 416 46 c 2,35,-1
 414 87 l 1,36,37
 378 40 378 40 323.5 15 c 128,-1,38
 269 -10 269 -10 206 -10 c 0,0,1
222 42 m 0,39,40
 275 42 275 42 319.5 62 c 128,-1,41
 364 82 364 82 387 115 c 0,42,43
 396 124 396 124 400.5 134.5 c 128,-1,44
 405 145 405 145 405 154 c 2,45,-1
 405 239 l 1,46,47
 371 252 371 252 334.5 259 c 128,-1,48
 298 266 298 266 260 266 c 0,49,50
 188 266 188 266 143 236 c 128,-1,51
 98 206 98 206 98 157 c 0,52,53
 98 133 98 133 107.5 112 c 128,-1,54
 117 91 117 91 133.5 75.5 c 128,-1,55
 150 60 150 60 173 51 c 128,-1,56
 196 42 196 42 222 42 c 0,39,40
140 645 m 1,57,-1
 238 730 l 1,58,-1
 288 730 l 1,59,-1
 387 645 l 1,60,-1
 348 624 l 1,61,-1
 263 687 l 1,62,-1
 178 624 l 1,63,-1
 140 645 l 1,57,-1
EndSplineSet
EndChar

StartChar: atilde
Encoding: 227 227 166
Width: 545
GlyphClass: 2
Flags: W
LayerCount: 2
Fore
SplineSet
206 -10 m 0,0,1
 169 -10 169 -10 137.5 2.5 c 128,-1,2
 106 15 106 15 82.5 37 c 128,-1,3
 59 59 59 59 46 88.5 c 128,-1,4
 33 118 33 118 33 152 c 256,5,6
 33 186 33 186 49 215 c 128,-1,7
 65 244 65 244 94 265 c 128,-1,8
 123 286 123 286 163 297.5 c 128,-1,9
 203 309 203 309 251 309 c 0,10,11
 291 309 291 309 332 302 c 128,-1,12
 373 295 373 295 405 282 c 1,13,-1
 405 329 l 2,14,15
 405 398 405 398 366 438.5 c 128,-1,16
 327 479 327 479 258 479 c 0,17,18
 218 479 218 479 176 463 c 128,-1,19
 134 447 134 447 91 417 c 1,20,-1
 67 462 l 1,21,22
 168 530 168 530 263 530 c 0,23,24
 361 530 361 530 417 475 c 128,-1,25
 473 420 473 420 473 323 c 2,26,-1
 473 88 l 2,27,28
 473 60 473 60 498 60 c 1,29,-1
 498 0 l 1,30,31
 481 -3 481 -3 472 -3 c 0,32,33
 446 -3 446 -3 431.5 10 c 128,-1,34
 417 23 417 23 416 46 c 2,35,-1
 414 87 l 1,36,37
 378 40 378 40 323.5 15 c 128,-1,38
 269 -10 269 -10 206 -10 c 0,0,1
222 42 m 0,39,40
 275 42 275 42 319.5 62 c 128,-1,41
 364 82 364 82 387 115 c 0,42,43
 396 124 396 124 400.5 134.5 c 128,-1,44
 405 145 405 145 405 154 c 2,45,-1
 405 239 l 1,46,47
 371 252 371 252 334.5 259 c 128,-1,48
 298 266 298 266 260 266 c 0,49,50
 188 266 188 266 143 236 c 128,-1,51
 98 206 98 206 98 157 c 0,52,53
 98 133 98 133 107.5 112 c 128,-1,54
 117 91 117 91 133.5 75.5 c 128,-1,55
 150 60 150 60 173 51 c 128,-1,56
 196 42 196 42 222 42 c 0,39,40
325 638 m 0,57,58
 302 638 302 638 285.5 644 c 128,-1,59
 269 650 269 650 254.5 657.5 c 128,-1,60
 240 665 240 665 226.5 671.5 c 128,-1,61
 213 678 213 678 197 678 c 0,62,63
 180 678 180 678 170.5 671 c 128,-1,64
 161 664 161 664 155.5 655.5 c 128,-1,65
 150 647 150 647 148.5 639.5 c 128,-1,66
 147 632 147 632 147 630 c 2,67,-1
 105 630 l 1,68,69
 105 635 105 635 108.5 650.5 c 128,-1,70
 112 666 112 666 122 682 c 128,-1,71
 132 698 132 698 150 710.5 c 128,-1,72
 168 723 168 723 196 723 c 0,73,74
 217 723 217 723 232.5 716.5 c 128,-1,75
 248 710 248 710 262 702 c 128,-1,76
 276 694 276 694 290.5 687.5 c 128,-1,77
 305 681 305 681 324 681 c 256,78,79
 343 681 343 681 354.5 688 c 128,-1,80
 366 695 366 695 372 704 c 128,-1,81
 378 713 378 713 379.5 720.5 c 128,-1,82
 381 728 381 728 381 730 c 2,83,-1
 423 730 l 1,84,85
 423 725 423 725 419 710 c 128,-1,86
 415 695 415 695 404.5 679 c 128,-1,87
 394 663 394 663 374.5 650.5 c 128,-1,88
 355 638 355 638 325 638 c 0,57,58
EndSplineSet
EndChar

StartChar: adieresis
Encoding: 228 228 167
Width: 545
GlyphClass: 2
Flags: W
LayerCount: 2
Fore
SplineSet
206 -10 m 0,0,1
 169 -10 169 -10 137.5 2.5 c 128,-1,2
 106 15 106 15 82.5 37 c 128,-1,3
 59 59 59 59 46 88.5 c 128,-1,4
 33 118 33 118 33 152 c 256,5,6
 33 186 33 186 49 215 c 128,-1,7
 65 244 65 244 94 265 c 128,-1,8
 123 286 123 286 163 297.5 c 128,-1,9
 203 309 203 309 251 309 c 0,10,11
 291 309 291 309 332 302 c 128,-1,12
 373 295 373 295 405 282 c 1,13,-1
 405 329 l 2,14,15
 405 398 405 398 366 438.5 c 128,-1,16
 327 479 327 479 258 479 c 0,17,18
 218 479 218 479 176 463 c 128,-1,19
 134 447 134 447 91 417 c 1,20,-1
 67 462 l 1,21,22
 168 530 168 530 263 530 c 0,23,24
 361 530 361 530 417 475 c 128,-1,25
 473 420 473 420 473 323 c 2,26,-1
 473 88 l 2,27,28
 473 60 473 60 498 60 c 1,29,-1
 498 0 l 1,30,31
 481 -3 481 -3 472 -3 c 0,32,33
 446 -3 446 -3 431.5 10 c 128,-1,34
 417 23 417 23 416 46 c 2,35,-1
 414 87 l 1,36,37
 378 40 378 40 323.5 15 c 128,-1,38
 269 -10 269 -10 206 -10 c 0,0,1
222 42 m 0,39,40
 275 42 275 42 319.5 62 c 128,-1,41
 364 82 364 82 387 115 c 0,42,43
 396 124 396 124 400.5 134.5 c 128,-1,44
 405 145 405 145 405 154 c 2,45,-1
 405 239 l 1,46,47
 371 252 371 252 334.5 259 c 128,-1,48
 298 266 298 266 260 266 c 0,49,50
 188 266 188 266 143 236 c 128,-1,51
 98 206 98 206 98 157 c 0,52,53
 98 133 98 133 107.5 112 c 128,-1,54
 117 91 117 91 133.5 75.5 c 128,-1,55
 150 60 150 60 173 51 c 128,-1,56
 196 42 196 42 222 42 c 0,39,40
160 633 m 1,57,-1
 160 727 l 1,58,-1
 218 727 l 1,59,-1
 218 633 l 1,60,-1
 160 633 l 1,57,-1
309 633 m 1,61,-1
 309 727 l 1,62,-1
 367 727 l 1,63,-1
 367 633 l 1,64,-1
 309 633 l 1,61,-1
EndSplineSet
EndChar

StartChar: aring
Encoding: 229 229 168
Width: 545
GlyphClass: 2
Flags: W
LayerCount: 2
Fore
SplineSet
206 -10 m 0,0,1
 169 -10 169 -10 137.5 2.5 c 128,-1,2
 106 15 106 15 82.5 37 c 128,-1,3
 59 59 59 59 46 88.5 c 128,-1,4
 33 118 33 118 33 152 c 256,5,6
 33 186 33 186 49 215 c 128,-1,7
 65 244 65 244 94 265 c 128,-1,8
 123 286 123 286 163 297.5 c 128,-1,9
 203 309 203 309 251 309 c 0,10,11
 291 309 291 309 332 302 c 128,-1,12
 373 295 373 295 405 282 c 1,13,-1
 405 329 l 2,14,15
 405 398 405 398 366 438.5 c 128,-1,16
 327 479 327 479 258 479 c 0,17,18
 218 479 218 479 176 463 c 128,-1,19
 134 447 134 447 91 417 c 1,20,-1
 67 462 l 1,21,22
 168 530 168 530 263 530 c 0,23,24
 361 530 361 530 417 475 c 128,-1,25
 473 420 473 420 473 323 c 2,26,-1
 473 88 l 2,27,28
 473 60 473 60 498 60 c 1,29,-1
 498 0 l 1,30,31
 481 -3 481 -3 472 -3 c 0,32,33
 446 -3 446 -3 431.5 10 c 128,-1,34
 417 23 417 23 416 46 c 2,35,-1
 414 87 l 1,36,37
 378 40 378 40 323.5 15 c 128,-1,38
 269 -10 269 -10 206 -10 c 0,0,1
222 42 m 0,39,40
 275 42 275 42 319.5 62 c 128,-1,41
 364 82 364 82 387 115 c 0,42,43
 396 124 396 124 400.5 134.5 c 128,-1,44
 405 145 405 145 405 154 c 2,45,-1
 405 239 l 1,46,47
 371 252 371 252 334.5 259 c 128,-1,48
 298 266 298 266 260 266 c 0,49,50
 188 266 188 266 143 236 c 128,-1,51
 98 206 98 206 98 157 c 0,52,53
 98 133 98 133 107.5 112 c 128,-1,54
 117 91 117 91 133.5 75.5 c 128,-1,55
 150 60 150 60 173 51 c 128,-1,56
 196 42 196 42 222 42 c 0,39,40
189 665 m 0,57,58
 189 694 189 694 210 712 c 128,-1,59
 231 730 231 730 263 730 c 256,60,61
 295 730 295 730 316 712 c 128,-1,62
 337 694 337 694 337 665 c 0,63,64
 337 635 337 635 316 617 c 128,-1,65
 295 599 295 599 263 599 c 256,66,67
 231 599 231 599 210 617 c 128,-1,68
 189 635 189 635 189 665 c 0,57,58
263 703 m 256,69,70
 246 703 246 703 234.5 692.5 c 128,-1,71
 223 682 223 682 223 665 c 256,72,73
 223 648 223 648 234.5 637 c 128,-1,74
 246 626 246 626 263 626 c 0,75,76
 279 626 279 626 291.5 637 c 128,-1,77
 304 648 304 648 304 665 c 256,78,79
 304 682 304 682 292 692.5 c 128,-1,80
 280 703 280 703 263 703 c 256,69,70
EndSplineSet
EndChar

StartChar: ae
Encoding: 230 230 169
Width: 932
GlyphClass: 2
Flags: W
LayerCount: 2
Fore
SplineSet
205 -10 m 0,0,1
 169 -10 169 -10 137.5 2.5 c 128,-1,2
 106 15 106 15 82.5 37 c 128,-1,3
 59 59 59 59 46 88.5 c 128,-1,4
 33 118 33 118 33 152 c 256,5,6
 33 186 33 186 49 215 c 128,-1,7
 65 244 65 244 93.5 265 c 128,-1,8
 122 286 122 286 162 297.5 c 128,-1,9
 202 309 202 309 250 309 c 0,10,11
 285 309 285 309 320 303.5 c 128,-1,12
 355 298 355 298 384 289 c 1,13,14
 386 308 386 308 389.5 328 c 128,-1,15
 393 348 393 348 401 365 c 1,16,17
 391 419 391 419 354 449 c 128,-1,18
 317 479 317 479 257 479 c 0,19,20
 218 479 218 479 176 463 c 128,-1,21
 134 447 134 447 90 417 c 1,22,-1
 66 462 l 1,23,24
 169 530 169 530 263 530 c 0,25,26
 328 530 328 530 374 503 c 128,-1,27
 420 476 420 476 443 426 c 1,28,29
 475 473 475 473 527 501.5 c 128,-1,30
 579 530 579 530 642 530 c 0,31,32
 699 530 699 530 746.5 508.5 c 128,-1,33
 794 487 794 487 828.5 450.5 c 128,-1,34
 863 414 863 414 882.5 364.5 c 128,-1,35
 902 315 902 315 902 260 c 0,36,37
 902 256 902 256 901.5 247.5 c 128,-1,38
 901 239 901 239 901 236 c 2,39,-1
 448 236 l 1,40,41
 451 194 451 194 468 158.5 c 128,-1,42
 485 123 485 123 512 97 c 128,-1,43
 539 71 539 71 574 56.5 c 128,-1,44
 609 42 609 42 648 42 c 0,45,46
 673 42 673 42 698 49 c 128,-1,47
 723 56 723 56 744 68 c 128,-1,48
 765 80 765 80 781.5 97.5 c 128,-1,49
 798 115 798 115 807 136 c 1,50,-1
 867 120 l 1,51,52
 855 91 855 91 833 67.5 c 128,-1,53
 811 44 811 44 781.5 26.5 c 128,-1,54
 752 9 752 9 717.5 -0.5 c 128,-1,55
 683 -10 683 -10 645 -10 c 0,56,57
 576 -10 576 -10 520.5 21.5 c 128,-1,58
 465 53 465 53 430 105 c 1,59,60
 413 75 413 75 387.5 53 c 128,-1,61
 362 31 362 31 331 17 c 128,-1,62
 300 3 300 3 267.5 -3.5 c 128,-1,63
 235 -10 235 -10 205 -10 c 0,0,1
221 42 m 0,64,65
 275 42 275 42 319.5 62 c 128,-1,66
 364 82 364 82 387 115 c 0,67,68
 403 133 403 133 405 150 c 1,69,70
 395 170 395 170 390 196.5 c 128,-1,71
 385 223 385 223 384 246 c 1,72,73
 324 266 324 266 259 266 c 0,74,75
 187 266 187 266 142 236 c 128,-1,76
 97 206 97 206 97 157 c 0,77,78
 97 133 97 133 106.5 112 c 128,-1,79
 116 91 116 91 133 75.5 c 128,-1,80
 150 60 150 60 172.5 51 c 128,-1,81
 195 42 195 42 221 42 c 0,64,65
837 282 m 1,82,83
 834 325 834 325 817.5 360.5 c 128,-1,84
 801 396 801 396 775 422 c 128,-1,85
 749 448 749 448 715 462.5 c 128,-1,86
 681 477 681 477 641 477 c 256,87,88
 601 477 601 477 567 462.5 c 128,-1,89
 533 448 533 448 507 422 c 128,-1,90
 481 396 481 396 465.5 360 c 128,-1,91
 450 324 450 324 448 282 c 1,92,-1
 837 282 l 1,82,83
EndSplineSet
EndChar

StartChar: ccedilla
Encoding: 231 231 170
Width: 549
GlyphClass: 2
Flags: W
LayerCount: 2
Fore
SplineSet
223 -126 m 1,0,1
 237 -133 237 -133 261 -138.5 c 128,-1,2
 285 -144 285 -144 311 -144 c 0,3,4
 368 -144 368 -144 368 -109 c 0,5,6
 368 -89 368 -89 354.5 -81 c 128,-1,7
 341 -73 341 -73 318 -73 c 0,8,9
 297 -73 297 -73 274 -77.5 c 128,-1,10
 251 -82 251 -82 238 -87 c 1,11,-1
 280 -9 l 1,12,13
 227 -5 227 -5 183 17.5 c 128,-1,14
 139 40 139 40 107 77 c 128,-1,15
 75 114 75 114 57 161.5 c 128,-1,16
 39 209 39 209 39 262 c 0,17,18
 39 317 39 317 58 366 c 128,-1,19
 77 415 77 415 111.5 451.5 c 128,-1,20
 146 488 146 488 194 509 c 128,-1,21
 242 530 242 530 300 530 c 0,22,23
 374 530 374 530 429 496.5 c 128,-1,24
 484 463 484 463 512 406 c 1,25,-1
 446 385 l 1,26,27
 424 425 424 425 384.5 447.5 c 128,-1,28
 345 470 345 470 297 470 c 0,29,30
 257 470 257 470 222.5 454 c 128,-1,31
 188 438 188 438 162.5 410.5 c 128,-1,32
 137 383 137 383 122.5 345 c 128,-1,33
 108 307 108 307 108 262 c 0,34,35
 108 218 108 218 123 179 c 128,-1,36
 138 140 138 140 164 111.5 c 128,-1,37
 190 83 190 83 224.5 66.5 c 128,-1,38
 259 50 259 50 298 50 c 0,39,40
 323 50 323 50 347.5 57 c 128,-1,41
 372 64 372 64 393 76.5 c 128,-1,42
 414 89 414 89 429 105 c 128,-1,43
 444 121 444 121 450 139 c 1,44,-1
 517 119 l 1,45,46
 496 65 496 65 442 30.5 c 128,-1,47
 388 -4 388 -4 319 -9 c 1,48,-1
 293 -51 l 1,49,50
 302 -47 302 -47 312.5 -46 c 128,-1,51
 323 -45 323 -45 331 -45 c 0,52,53
 366 -45 366 -45 386.5 -60.5 c 128,-1,54
 407 -76 407 -76 407 -106 c 0,55,56
 407 -140 407 -140 381 -158 c 128,-1,57
 355 -176 355 -176 305 -176 c 0,58,59
 276 -176 276 -176 251 -170.5 c 128,-1,60
 226 -165 226 -165 206 -157 c 1,61,-1
 223 -126 l 1,0,1
EndSplineSet
EndChar

StartChar: egrave
Encoding: 232 232 171
Width: 587
GlyphClass: 2
Flags: W
LayerCount: 2
Fore
SplineSet
300 -10 m 0,0,1
 243 -10 243 -10 195.5 11.5 c 128,-1,2
 148 33 148 33 113 70.5 c 128,-1,3
 78 108 78 108 58.5 157 c 128,-1,4
 39 206 39 206 39 262 c 0,5,6
 39 317 39 317 58.5 365.5 c 128,-1,7
 78 414 78 414 112.5 450.5 c 128,-1,8
 147 487 147 487 195 508.5 c 128,-1,9
 243 530 243 530 299 530 c 0,10,11
 356 530 356 530 403.5 508.5 c 128,-1,12
 451 487 451 487 485 450 c 128,-1,13
 519 413 519 413 538 365 c 128,-1,14
 557 317 557 317 557 263 c 0,15,16
 557 255 557 255 557 247 c 128,-1,17
 557 239 557 239 556 236 c 2,18,-1
 110 236 l 1,19,20
 113 194 113 194 129.5 158.5 c 128,-1,21
 146 123 146 123 172 97 c 128,-1,22
 198 71 198 71 231.5 56.5 c 128,-1,23
 265 42 265 42 303 42 c 0,24,25
 328 42 328 42 353 49 c 128,-1,26
 378 56 378 56 399 68 c 128,-1,27
 420 80 420 80 437 97.5 c 128,-1,28
 454 115 454 115 463 136 c 1,29,-1
 522 120 l 1,30,31
 510 91 510 91 488 67.5 c 128,-1,32
 466 44 466 44 437 26.5 c 128,-1,33
 408 9 408 9 373 -0.5 c 128,-1,34
 338 -10 338 -10 300 -10 c 0,0,1
492 288 m 1,35,36
 489 330 489 330 472.5 364.5 c 128,-1,37
 456 399 456 399 430.5 424 c 128,-1,38
 405 449 405 449 371.5 463 c 128,-1,39
 338 477 338 477 300 477 c 256,40,41
 262 477 262 477 228 463 c 128,-1,42
 194 449 194 449 168.5 424 c 128,-1,43
 143 399 143 399 127.5 364 c 128,-1,44
 112 329 112 329 109 288 c 1,45,-1
 492 288 l 1,35,36
204 730 m 1,46,-1
 275 730 l 1,47,-1
 335 637 l 1,48,-1
 291 620 l 1,49,-1
 204 730 l 1,46,-1
EndSplineSet
EndChar

StartChar: eacute
Encoding: 233 233 172
Width: 587
GlyphClass: 2
Flags: W
LayerCount: 2
Fore
SplineSet
303 620 m 1,0,-1
 258 637 l 1,1,-1
 317 730 l 1,2,-1
 389 730 l 1,3,-1
 303 620 l 1,0,-1
300 -10 m 0,4,5
 243 -10 243 -10 195.5 11.5 c 128,-1,6
 148 33 148 33 113 70.5 c 128,-1,7
 78 108 78 108 58.5 157 c 128,-1,8
 39 206 39 206 39 262 c 0,9,10
 39 317 39 317 58.5 365.5 c 128,-1,11
 78 414 78 414 112.5 450.5 c 128,-1,12
 147 487 147 487 195 508.5 c 128,-1,13
 243 530 243 530 299 530 c 0,14,15
 356 530 356 530 403.5 508.5 c 128,-1,16
 451 487 451 487 485 450 c 128,-1,17
 519 413 519 413 538 365 c 128,-1,18
 557 317 557 317 557 263 c 0,19,20
 557 255 557 255 557 247 c 128,-1,21
 557 239 557 239 556 236 c 2,22,-1
 110 236 l 1,23,24
 113 194 113 194 129.5 158.5 c 128,-1,25
 146 123 146 123 172 97 c 128,-1,26
 198 71 198 71 231.5 56.5 c 128,-1,27
 265 42 265 42 303 42 c 0,28,29
 328 42 328 42 353 49 c 128,-1,30
 378 56 378 56 399 68 c 128,-1,31
 420 80 420 80 437 97.5 c 128,-1,32
 454 115 454 115 463 136 c 1,33,-1
 522 120 l 1,34,35
 510 91 510 91 488 67.5 c 128,-1,36
 466 44 466 44 437 26.5 c 128,-1,37
 408 9 408 9 373 -0.5 c 128,-1,38
 338 -10 338 -10 300 -10 c 0,4,5
492 288 m 1,39,40
 489 330 489 330 472.5 364.5 c 128,-1,41
 456 399 456 399 430.5 424 c 128,-1,42
 405 449 405 449 371.5 463 c 128,-1,43
 338 477 338 477 300 477 c 256,44,45
 262 477 262 477 228 463 c 128,-1,46
 194 449 194 449 168.5 424 c 128,-1,47
 143 399 143 399 127.5 364 c 128,-1,48
 112 329 112 329 109 288 c 1,49,-1
 492 288 l 1,39,40
EndSplineSet
EndChar

StartChar: ecircumflex
Encoding: 234 234 173
Width: 587
GlyphClass: 2
Flags: W
LayerCount: 2
Fore
SplineSet
174 645 m 1,0,-1
 272 730 l 1,1,-1
 322 730 l 1,2,-1
 421 645 l 1,3,-1
 382 624 l 1,4,-1
 297 687 l 1,5,-1
 212 624 l 1,6,-1
 174 645 l 1,0,-1
300 -10 m 0,7,8
 243 -10 243 -10 195.5 11.5 c 128,-1,9
 148 33 148 33 113 70.5 c 128,-1,10
 78 108 78 108 58.5 157 c 128,-1,11
 39 206 39 206 39 262 c 0,12,13
 39 317 39 317 58.5 365.5 c 128,-1,14
 78 414 78 414 112.5 450.5 c 128,-1,15
 147 487 147 487 195 508.5 c 128,-1,16
 243 530 243 530 299 530 c 0,17,18
 356 530 356 530 403.5 508.5 c 128,-1,19
 451 487 451 487 485 450 c 128,-1,20
 519 413 519 413 538 365 c 128,-1,21
 557 317 557 317 557 263 c 0,22,23
 557 255 557 255 557 247 c 128,-1,24
 557 239 557 239 556 236 c 2,25,-1
 110 236 l 1,26,27
 113 194 113 194 129.5 158.5 c 128,-1,28
 146 123 146 123 172 97 c 128,-1,29
 198 71 198 71 231.5 56.5 c 128,-1,30
 265 42 265 42 303 42 c 0,31,32
 328 42 328 42 353 49 c 128,-1,33
 378 56 378 56 399 68 c 128,-1,34
 420 80 420 80 437 97.5 c 128,-1,35
 454 115 454 115 463 136 c 1,36,-1
 522 120 l 1,37,38
 510 91 510 91 488 67.5 c 128,-1,39
 466 44 466 44 437 26.5 c 128,-1,40
 408 9 408 9 373 -0.5 c 128,-1,41
 338 -10 338 -10 300 -10 c 0,7,8
492 288 m 1,42,43
 489 330 489 330 472.5 364.5 c 128,-1,44
 456 399 456 399 430.5 424 c 128,-1,45
 405 449 405 449 371.5 463 c 128,-1,46
 338 477 338 477 300 477 c 256,47,48
 262 477 262 477 228 463 c 128,-1,49
 194 449 194 449 168.5 424 c 128,-1,50
 143 399 143 399 127.5 364 c 128,-1,51
 112 329 112 329 109 288 c 1,52,-1
 492 288 l 1,42,43
EndSplineSet
EndChar

StartChar: edieresis
Encoding: 235 235 174
Width: 587
GlyphClass: 2
Flags: W
LayerCount: 2
Fore
SplineSet
193 633 m 1,0,-1
 193 727 l 1,1,-1
 251 727 l 1,2,-1
 251 633 l 1,3,-1
 193 633 l 1,0,-1
342 633 m 1,4,-1
 342 727 l 1,5,-1
 400 727 l 1,6,-1
 400 633 l 1,7,-1
 342 633 l 1,4,-1
300 -10 m 0,8,9
 243 -10 243 -10 195.5 11.5 c 128,-1,10
 148 33 148 33 113 70.5 c 128,-1,11
 78 108 78 108 58.5 157 c 128,-1,12
 39 206 39 206 39 262 c 0,13,14
 39 317 39 317 58.5 365.5 c 128,-1,15
 78 414 78 414 112.5 450.5 c 128,-1,16
 147 487 147 487 195 508.5 c 128,-1,17
 243 530 243 530 299 530 c 0,18,19
 356 530 356 530 403.5 508.5 c 128,-1,20
 451 487 451 487 485 450 c 128,-1,21
 519 413 519 413 538 365 c 128,-1,22
 557 317 557 317 557 263 c 0,23,24
 557 255 557 255 557 247 c 128,-1,25
 557 239 557 239 556 236 c 2,26,-1
 110 236 l 1,27,28
 113 194 113 194 129.5 158.5 c 128,-1,29
 146 123 146 123 172 97 c 128,-1,30
 198 71 198 71 231.5 56.5 c 128,-1,31
 265 42 265 42 303 42 c 0,32,33
 328 42 328 42 353 49 c 128,-1,34
 378 56 378 56 399 68 c 128,-1,35
 420 80 420 80 437 97.5 c 128,-1,36
 454 115 454 115 463 136 c 1,37,-1
 522 120 l 1,38,39
 510 91 510 91 488 67.5 c 128,-1,40
 466 44 466 44 437 26.5 c 128,-1,41
 408 9 408 9 373 -0.5 c 128,-1,42
 338 -10 338 -10 300 -10 c 0,8,9
492 288 m 1,43,44
 489 330 489 330 472.5 364.5 c 128,-1,45
 456 399 456 399 430.5 424 c 128,-1,46
 405 449 405 449 371.5 463 c 128,-1,47
 338 477 338 477 300 477 c 256,48,49
 262 477 262 477 228 463 c 128,-1,50
 194 449 194 449 168.5 424 c 128,-1,51
 143 399 143 399 127.5 364 c 128,-1,52
 112 329 112 329 109 288 c 1,53,-1
 492 288 l 1,43,44
EndSplineSet
EndChar

StartChar: igrave
Encoding: 236 236 175
Width: 218
GlyphClass: 2
Flags: W
LayerCount: 2
Fore
SplineSet
75 0 m 1,0,-1
 75 521 l 1,1,-1
 143 521 l 1,2,-1
 143 0 l 1,3,-1
 75 0 l 1,0,-1
16 730 m 1,4,-1
 87 730 l 1,5,-1
 147 637 l 1,6,-1
 103 620 l 1,7,-1
 16 730 l 1,4,-1
EndSplineSet
EndChar

StartChar: iacute
Encoding: 237 237 176
Width: 218
GlyphClass: 2
Flags: W
LayerCount: 2
Fore
SplineSet
115 620 m 1,0,-1
 70 637 l 1,1,-1
 129 730 l 1,2,-1
 201 730 l 1,3,-1
 115 620 l 1,0,-1
75 0 m 1,4,-1
 75 521 l 1,5,-1
 143 521 l 1,6,-1
 143 0 l 1,7,-1
 75 0 l 1,4,-1
EndSplineSet
EndChar

StartChar: icircumflex
Encoding: 238 238 177
Width: 218
GlyphClass: 2
Flags: W
LayerCount: 2
Fore
SplineSet
-14 645 m 1,0,-1
 84 730 l 1,1,-1
 134 730 l 1,2,-1
 233 645 l 1,3,-1
 194 624 l 1,4,-1
 109 687 l 1,5,-1
 24 624 l 1,6,-1
 -14 645 l 1,0,-1
75 0 m 1,7,-1
 75 521 l 1,8,-1
 143 521 l 1,9,-1
 143 0 l 1,10,-1
 75 0 l 1,7,-1
EndSplineSet
EndChar

StartChar: idieresis
Encoding: 239 239 178
Width: 218
GlyphClass: 2
Flags: W
LayerCount: 2
Fore
SplineSet
5 633 m 1,0,-1
 5 727 l 1,1,-1
 63 727 l 1,2,-1
 63 633 l 1,3,-1
 5 633 l 1,0,-1
154 633 m 1,4,-1
 154 727 l 1,5,-1
 212 727 l 1,6,-1
 212 633 l 1,7,-1
 154 633 l 1,4,-1
75 0 m 1,8,-1
 75 521 l 1,9,-1
 143 521 l 1,10,-1
 143 0 l 1,11,-1
 75 0 l 1,8,-1
EndSplineSet
EndChar

StartChar: eth
Encoding: 240 240 179
Width: 602
GlyphClass: 2
Flags: W
LayerCount: 2
Fore
SplineSet
495 683 m 1,0,-1
 413 632 l 1,1,2
 456 590 456 590 484 544.5 c 128,-1,3
 512 499 512 499 528.5 453.5 c 128,-1,4
 545 408 545 408 552 363.5 c 128,-1,5
 559 319 559 319 559 277 c 0,6,7
 559 212 559 212 538 159.5 c 128,-1,8
 517 107 517 107 481 69 c 128,-1,9
 445 31 445 31 397.5 10.5 c 128,-1,10
 350 -10 350 -10 296 -10 c 0,11,12
 244 -10 244 -10 197.5 9 c 128,-1,13
 151 28 151 28 116.5 61 c 128,-1,14
 82 94 82 94 62 138 c 128,-1,15
 42 182 42 182 42 233 c 0,16,17
 42 282 42 282 61.5 326 c 128,-1,18
 81 370 81 370 114 403 c 128,-1,19
 147 436 147 436 191.5 455 c 128,-1,20
 236 474 236 474 287 474 c 0,21,22
 354 474 354 474 408.5 441.5 c 128,-1,23
 463 409 463 409 490 357 c 1,24,25
 480 420 480 420 452 482 c 128,-1,26
 424 544 424 544 361 606 c 1,27,-1
 249 536 l 1,28,-1
 227 567 l 1,29,-1
 333 632 l 1,30,31
 277 680 277 680 190 730 c 1,32,-1
 286 730 l 1,33,34
 341 697 341 697 386 658 c 1,35,-1
 473 713 l 1,36,-1
 495 683 l 1,0,-1
111 232 m 256,37,38
 111 194 111 194 125.5 161 c 128,-1,39
 140 128 140 128 165.5 103 c 128,-1,40
 191 78 191 78 225 64 c 128,-1,41
 259 50 259 50 298 50 c 0,42,43
 338 50 338 50 373 65.5 c 128,-1,44
 408 81 408 81 434 107 c 128,-1,45
 460 133 460 133 475 167.5 c 128,-1,46
 490 202 490 202 490 241 c 0,47,48
 490 278 490 278 475 310 c 128,-1,49
 460 342 460 342 434.5 366 c 128,-1,50
 409 390 409 390 374.5 403.5 c 128,-1,51
 340 417 340 417 301 417 c 256,52,53
 262 417 262 417 227 402.5 c 128,-1,54
 192 388 192 388 166.5 363 c 128,-1,55
 141 338 141 338 126 304 c 128,-1,56
 111 270 111 270 111 232 c 256,37,38
EndSplineSet
EndChar

StartChar: ntilde
Encoding: 241 241 180
Width: 583
GlyphClass: 2
Flags: W
LayerCount: 2
Fore
SplineSet
513 0 m 1,0,-1
 445 0 l 1,1,-1
 445 291 l 2,2,3
 445 384 445 384 417.5 426 c 128,-1,4
 390 468 390 468 333 468 c 0,5,6
 303 468 303 468 273 457 c 128,-1,7
 243 446 243 446 217.5 426 c 128,-1,8
 192 406 192 406 172 378.5 c 128,-1,9
 152 351 152 351 143 319 c 1,10,-1
 143 0 l 1,11,-1
 75 0 l 1,12,-1
 75 521 l 1,13,-1
 137 521 l 1,14,-1
 137 403 l 1,15,16
 169 460 169 460 228.5 495 c 128,-1,17
 288 530 288 530 358 530 c 0,18,19
 401 530 401 530 431 514 c 128,-1,20
 461 498 461 498 479 469 c 128,-1,21
 497 440 497 440 505 398 c 128,-1,22
 513 356 513 356 513 305 c 2,23,-1
 513 0 l 1,0,-1
358 638 m 0,24,25
 335 638 335 638 318.5 644 c 128,-1,26
 302 650 302 650 287.5 657.5 c 128,-1,27
 273 665 273 665 259.5 671.5 c 128,-1,28
 246 678 246 678 230 678 c 0,29,30
 213 678 213 678 203.5 671 c 128,-1,31
 194 664 194 664 188.5 655.5 c 128,-1,32
 183 647 183 647 181.5 639.5 c 128,-1,33
 180 632 180 632 180 630 c 2,34,-1
 138 630 l 1,35,36
 138 635 138 635 141.5 650.5 c 128,-1,37
 145 666 145 666 155 682 c 128,-1,38
 165 698 165 698 183 710.5 c 128,-1,39
 201 723 201 723 229 723 c 0,40,41
 250 723 250 723 265.5 716.5 c 128,-1,42
 281 710 281 710 295 702 c 128,-1,43
 309 694 309 694 323.5 687.5 c 128,-1,44
 338 681 338 681 357 681 c 256,45,46
 376 681 376 681 387.5 688 c 128,-1,47
 399 695 399 695 405 704 c 128,-1,48
 411 713 411 713 412.5 720.5 c 128,-1,49
 414 728 414 728 414 730 c 2,50,-1
 456 730 l 1,51,52
 456 725 456 725 452 710 c 128,-1,53
 448 695 448 695 437.5 679 c 128,-1,54
 427 663 427 663 407.5 650.5 c 128,-1,55
 388 638 388 638 358 638 c 0,24,25
EndSplineSet
EndChar

StartChar: ograve
Encoding: 242 242 181
Width: 595
GlyphClass: 2
Flags: W
LayerCount: 2
Fore
SplineSet
297 -10 m 256,0,1
 240 -10 240 -10 193 11.5 c 128,-1,2
 146 33 146 33 111.5 70 c 128,-1,3
 77 107 77 107 58 156 c 128,-1,4
 39 205 39 205 39 259 c 0,5,6
 39 314 39 314 58.5 363 c 128,-1,7
 78 412 78 412 112.5 449 c 128,-1,8
 147 486 147 486 194 508 c 128,-1,9
 241 530 241 530 297 530 c 256,10,11
 353 530 353 530 400.5 508 c 128,-1,12
 448 486 448 486 482.5 449 c 128,-1,13
 517 412 517 412 536.5 363 c 128,-1,14
 556 314 556 314 556 259 c 0,15,16
 556 205 556 205 537 156 c 128,-1,17
 518 107 518 107 483.5 70 c 128,-1,18
 449 33 449 33 401.5 11.5 c 128,-1,19
 354 -10 354 -10 297 -10 c 256,0,1
108 258 m 256,20,21
 108 214 108 214 123 176.5 c 128,-1,22
 138 139 138 139 163.5 110.5 c 128,-1,23
 189 82 189 82 223.5 66 c 128,-1,24
 258 50 258 50 297 50 c 256,25,26
 336 50 336 50 370.5 66.5 c 128,-1,27
 405 83 405 83 431 111.5 c 128,-1,28
 457 140 457 140 472 178 c 128,-1,29
 487 216 487 216 487 260 c 0,30,31
 487 303 487 303 472 341.5 c 128,-1,32
 457 380 457 380 431 408.5 c 128,-1,33
 405 437 405 437 370.5 453.5 c 128,-1,34
 336 470 336 470 297 470 c 256,35,36
 258 470 258 470 224 453.5 c 128,-1,37
 190 437 190 437 164 408 c 128,-1,38
 138 379 138 379 123 340.5 c 128,-1,39
 108 302 108 302 108 258 c 256,20,21
205 730 m 1,40,-1
 276 730 l 1,41,-1
 336 637 l 1,42,-1
 292 620 l 1,43,-1
 205 730 l 1,40,-1
EndSplineSet
EndChar

StartChar: oacute
Encoding: 243 243 182
Width: 595
GlyphClass: 2
Flags: W
LayerCount: 2
Fore
SplineSet
303 620 m 1,0,-1
 258 637 l 1,1,-1
 317 730 l 1,2,-1
 389 730 l 1,3,-1
 303 620 l 1,0,-1
297 -10 m 256,4,5
 240 -10 240 -10 193 11.5 c 128,-1,6
 146 33 146 33 111.5 70 c 128,-1,7
 77 107 77 107 58 156 c 128,-1,8
 39 205 39 205 39 259 c 0,9,10
 39 314 39 314 58.5 363 c 128,-1,11
 78 412 78 412 112.5 449 c 128,-1,12
 147 486 147 486 194 508 c 128,-1,13
 241 530 241 530 297 530 c 256,14,15
 353 530 353 530 400.5 508 c 128,-1,16
 448 486 448 486 482.5 449 c 128,-1,17
 517 412 517 412 536.5 363 c 128,-1,18
 556 314 556 314 556 259 c 0,19,20
 556 205 556 205 537 156 c 128,-1,21
 518 107 518 107 483.5 70 c 128,-1,22
 449 33 449 33 401.5 11.5 c 128,-1,23
 354 -10 354 -10 297 -10 c 256,4,5
108 258 m 256,24,25
 108 214 108 214 123 176.5 c 128,-1,26
 138 139 138 139 163.5 110.5 c 128,-1,27
 189 82 189 82 223.5 66 c 128,-1,28
 258 50 258 50 297 50 c 256,29,30
 336 50 336 50 370.5 66.5 c 128,-1,31
 405 83 405 83 431 111.5 c 128,-1,32
 457 140 457 140 472 178 c 128,-1,33
 487 216 487 216 487 260 c 0,34,35
 487 303 487 303 472 341.5 c 128,-1,36
 457 380 457 380 431 408.5 c 128,-1,37
 405 437 405 437 370.5 453.5 c 128,-1,38
 336 470 336 470 297 470 c 256,39,40
 258 470 258 470 224 453.5 c 128,-1,41
 190 437 190 437 164 408 c 128,-1,42
 138 379 138 379 123 340.5 c 128,-1,43
 108 302 108 302 108 258 c 256,24,25
EndSplineSet
EndChar

StartChar: ocircumflex
Encoding: 244 244 183
Width: 595
GlyphClass: 2
Flags: W
LayerCount: 2
Fore
SplineSet
174 645 m 1,0,-1
 272 730 l 1,1,-1
 322 730 l 1,2,-1
 421 645 l 1,3,-1
 382 624 l 1,4,-1
 297 687 l 1,5,-1
 212 624 l 1,6,-1
 174 645 l 1,0,-1
297 -10 m 256,7,8
 240 -10 240 -10 193 11.5 c 128,-1,9
 146 33 146 33 111.5 70 c 128,-1,10
 77 107 77 107 58 156 c 128,-1,11
 39 205 39 205 39 259 c 0,12,13
 39 314 39 314 58.5 363 c 128,-1,14
 78 412 78 412 112.5 449 c 128,-1,15
 147 486 147 486 194 508 c 128,-1,16
 241 530 241 530 297 530 c 256,17,18
 353 530 353 530 400.5 508 c 128,-1,19
 448 486 448 486 482.5 449 c 128,-1,20
 517 412 517 412 536.5 363 c 128,-1,21
 556 314 556 314 556 259 c 0,22,23
 556 205 556 205 537 156 c 128,-1,24
 518 107 518 107 483.5 70 c 128,-1,25
 449 33 449 33 401.5 11.5 c 128,-1,26
 354 -10 354 -10 297 -10 c 256,7,8
108 258 m 256,27,28
 108 214 108 214 123 176.5 c 128,-1,29
 138 139 138 139 163.5 110.5 c 128,-1,30
 189 82 189 82 223.5 66 c 128,-1,31
 258 50 258 50 297 50 c 256,32,33
 336 50 336 50 370.5 66.5 c 128,-1,34
 405 83 405 83 431 111.5 c 128,-1,35
 457 140 457 140 472 178 c 128,-1,36
 487 216 487 216 487 260 c 0,37,38
 487 303 487 303 472 341.5 c 128,-1,39
 457 380 457 380 431 408.5 c 128,-1,40
 405 437 405 437 370.5 453.5 c 128,-1,41
 336 470 336 470 297 470 c 256,42,43
 258 470 258 470 224 453.5 c 128,-1,44
 190 437 190 437 164 408 c 128,-1,45
 138 379 138 379 123 340.5 c 128,-1,46
 108 302 108 302 108 258 c 256,27,28
EndSplineSet
EndChar

StartChar: otilde
Encoding: 245 245 184
Width: 595
GlyphClass: 2
Flags: W
LayerCount: 2
Fore
SplineSet
297 -10 m 256,0,1
 240 -10 240 -10 193 11.5 c 128,-1,2
 146 33 146 33 111.5 70 c 128,-1,3
 77 107 77 107 58 156 c 128,-1,4
 39 205 39 205 39 259 c 0,5,6
 39 314 39 314 58.5 363 c 128,-1,7
 78 412 78 412 112.5 449 c 128,-1,8
 147 486 147 486 194 508 c 128,-1,9
 241 530 241 530 297 530 c 256,10,11
 353 530 353 530 400.5 508 c 128,-1,12
 448 486 448 486 482.5 449 c 128,-1,13
 517 412 517 412 536.5 363 c 128,-1,14
 556 314 556 314 556 259 c 0,15,16
 556 205 556 205 537 156 c 128,-1,17
 518 107 518 107 483.5 70 c 128,-1,18
 449 33 449 33 401.5 11.5 c 128,-1,19
 354 -10 354 -10 297 -10 c 256,0,1
108 258 m 256,20,21
 108 214 108 214 123 176.5 c 128,-1,22
 138 139 138 139 163.5 110.5 c 128,-1,23
 189 82 189 82 223.5 66 c 128,-1,24
 258 50 258 50 297 50 c 256,25,26
 336 50 336 50 370.5 66.5 c 128,-1,27
 405 83 405 83 431 111.5 c 128,-1,28
 457 140 457 140 472 178 c 128,-1,29
 487 216 487 216 487 260 c 0,30,31
 487 303 487 303 472 341.5 c 128,-1,32
 457 380 457 380 431 408.5 c 128,-1,33
 405 437 405 437 370.5 453.5 c 128,-1,34
 336 470 336 470 297 470 c 256,35,36
 258 470 258 470 224 453.5 c 128,-1,37
 190 437 190 437 164 408 c 128,-1,38
 138 379 138 379 123 340.5 c 128,-1,39
 108 302 108 302 108 258 c 256,20,21
360 638 m 0,40,41
 337 638 337 638 320.5 644 c 128,-1,42
 304 650 304 650 289.5 657.5 c 128,-1,43
 275 665 275 665 261.5 671.5 c 128,-1,44
 248 678 248 678 232 678 c 0,45,46
 215 678 215 678 205.5 671 c 128,-1,47
 196 664 196 664 190.5 655.5 c 128,-1,48
 185 647 185 647 183.5 639.5 c 128,-1,49
 182 632 182 632 182 630 c 2,50,-1
 140 630 l 1,51,52
 140 635 140 635 143.5 650.5 c 128,-1,53
 147 666 147 666 157 682 c 128,-1,54
 167 698 167 698 185 710.5 c 128,-1,55
 203 723 203 723 231 723 c 0,56,57
 252 723 252 723 267.5 716.5 c 128,-1,58
 283 710 283 710 297 702 c 128,-1,59
 311 694 311 694 325.5 687.5 c 128,-1,60
 340 681 340 681 359 681 c 256,61,62
 378 681 378 681 389.5 688 c 128,-1,63
 401 695 401 695 407 704 c 128,-1,64
 413 713 413 713 414.5 720.5 c 128,-1,65
 416 728 416 728 416 730 c 2,66,-1
 458 730 l 1,67,68
 458 725 458 725 454 710 c 128,-1,69
 450 695 450 695 439.5 679 c 128,-1,70
 429 663 429 663 409.5 650.5 c 128,-1,71
 390 638 390 638 360 638 c 0,40,41
EndSplineSet
EndChar

StartChar: odieresis
Encoding: 246 246 185
Width: 595
GlyphClass: 2
Flags: W
LayerCount: 2
Fore
SplineSet
194 633 m 1,0,-1
 194 727 l 1,1,-1
 252 727 l 1,2,-1
 252 633 l 1,3,-1
 194 633 l 1,0,-1
343 633 m 1,4,-1
 343 727 l 1,5,-1
 401 727 l 1,6,-1
 401 633 l 1,7,-1
 343 633 l 1,4,-1
297 -10 m 256,8,9
 240 -10 240 -10 193 11.5 c 128,-1,10
 146 33 146 33 111.5 70 c 128,-1,11
 77 107 77 107 58 156 c 128,-1,12
 39 205 39 205 39 259 c 0,13,14
 39 314 39 314 58.5 363 c 128,-1,15
 78 412 78 412 112.5 449 c 128,-1,16
 147 486 147 486 194 508 c 128,-1,17
 241 530 241 530 297 530 c 256,18,19
 353 530 353 530 400.5 508 c 128,-1,20
 448 486 448 486 482.5 449 c 128,-1,21
 517 412 517 412 536.5 363 c 128,-1,22
 556 314 556 314 556 259 c 0,23,24
 556 205 556 205 537 156 c 128,-1,25
 518 107 518 107 483.5 70 c 128,-1,26
 449 33 449 33 401.5 11.5 c 128,-1,27
 354 -10 354 -10 297 -10 c 256,8,9
108 258 m 256,28,29
 108 214 108 214 123 176.5 c 128,-1,30
 138 139 138 139 163.5 110.5 c 128,-1,31
 189 82 189 82 223.5 66 c 128,-1,32
 258 50 258 50 297 50 c 256,33,34
 336 50 336 50 370.5 66.5 c 128,-1,35
 405 83 405 83 431 111.5 c 128,-1,36
 457 140 457 140 472 178 c 128,-1,37
 487 216 487 216 487 260 c 0,38,39
 487 303 487 303 472 341.5 c 128,-1,40
 457 380 457 380 431 408.5 c 128,-1,41
 405 437 405 437 370.5 453.5 c 128,-1,42
 336 470 336 470 297 470 c 256,43,44
 258 470 258 470 224 453.5 c 128,-1,45
 190 437 190 437 164 408 c 128,-1,46
 138 379 138 379 123 340.5 c 128,-1,47
 108 302 108 302 108 258 c 256,28,29
EndSplineSet
EndChar

StartChar: divide
Encoding: 247 247 186
Width: 537
GlyphClass: 2
Flags: W
LayerCount: 2
Fore
SplineSet
239 399 m 1,0,-1
 239 490 l 1,1,-1
 298 490 l 1,2,-1
 298 399 l 1,3,-1
 239 399 l 1,0,-1
239 74 m 1,4,-1
 239 164 l 1,5,-1
 298 164 l 1,6,-1
 298 74 l 1,7,-1
 239 74 l 1,4,-1
67 254 m 1,8,-1
 67 311 l 1,9,-1
 470 311 l 1,10,-1
 470 254 l 1,11,-1
 67 254 l 1,8,-1
EndSplineSet
EndChar

StartChar: oslash
Encoding: 248 248 187
Width: 595
GlyphClass: 2
Flags: W
LayerCount: 2
Fore
SplineSet
93 -1 m 1,0,-1
 132 50 l 1,1,2
 88 88 88 88 63.5 142 c 128,-1,3
 39 196 39 196 39 259 c 0,4,5
 39 314 39 314 58.5 363 c 128,-1,6
 78 412 78 412 112.5 449 c 128,-1,7
 147 486 147 486 194 508 c 128,-1,8
 241 530 241 530 297 530 c 0,9,10
 335 530 335 530 369 520 c 128,-1,11
 403 510 403 510 432 491 c 1,12,-1
 455 523 l 1,13,-1
 502 523 l 1,14,-1
 461 469 l 1,15,16
 506 431 506 431 531 376.5 c 128,-1,17
 556 322 556 322 556 259 c 0,18,19
 556 205 556 205 537 156 c 128,-1,20
 518 107 518 107 483.5 70 c 128,-1,21
 449 33 449 33 401.5 11.5 c 128,-1,22
 354 -10 354 -10 297 -10 c 0,23,24
 259 -10 259 -10 224.5 0 c 128,-1,25
 190 10 190 10 161 28 c 1,26,-1
 139 -1 l 1,27,-1
 93 -1 l 1,0,-1
297 50 m 0,28,29
 336 50 336 50 370.5 66.5 c 128,-1,30
 405 83 405 83 431 111.5 c 128,-1,31
 457 140 457 140 472 178 c 128,-1,32
 487 216 487 216 487 260 c 0,33,34
 487 307 487 307 469.5 347 c 128,-1,35
 452 387 452 387 423 416 c 1,36,-1
 199 80 l 1,37,38
 243 50 243 50 297 50 c 0,28,29
108 258 m 0,39,40
 108 210 108 210 125 170.5 c 128,-1,41
 142 131 142 131 171 102 c 1,42,-1
 395 439 l 1,43,44
 350 470 350 470 297 470 c 0,45,46
 258 470 258 470 224 453.5 c 128,-1,47
 190 437 190 437 164 408 c 128,-1,48
 138 379 138 379 123 340.5 c 128,-1,49
 108 302 108 302 108 258 c 0,39,40
EndSplineSet
EndChar

StartChar: ugrave
Encoding: 249 249 188
Width: 594
GlyphClass: 2
Flags: W
LayerCount: 2
Fore
SplineSet
238 -10 m 0,0,1
 153 -10 153 -10 111.5 46.5 c 128,-1,2
 70 103 70 103 70 215 c 2,3,-1
 70 521 l 1,4,-1
 138 521 l 1,5,-1
 138 227 l 2,6,7
 138 50 138 50 259 50 c 0,8,9
 289 50 289 50 318 60 c 128,-1,10
 347 70 347 70 371.5 89 c 128,-1,11
 396 108 396 108 415.5 134 c 128,-1,12
 435 160 435 160 447 193 c 1,13,-1
 447 521 l 1,14,-1
 515 521 l 1,15,-1
 515 88 l 2,16,17
 515 60 515 60 539 60 c 1,18,-1
 539 0 l 1,19,20
 527 -2 527 -2 519.5 -2 c 128,-1,21
 512 -2 512 -2 509 -2 c 0,22,23
 485 -1 485 -1 470 15 c 128,-1,24
 455 31 455 31 455 58 c 2,25,-1
 455 118 l 1,26,27
 421 57 421 57 362.5 23.5 c 128,-1,28
 304 -10 304 -10 238 -10 c 0,0,1
198 730 m 1,29,-1
 269 730 l 1,30,-1
 329 637 l 1,31,-1
 285 620 l 1,32,-1
 198 730 l 1,29,-1
EndSplineSet
EndChar

StartChar: uacute
Encoding: 250 250 189
Width: 594
GlyphClass: 2
Flags: W
LayerCount: 2
Fore
SplineSet
297 620 m 1,0,-1
 252 637 l 1,1,-1
 311 730 l 1,2,-1
 383 730 l 1,3,-1
 297 620 l 1,0,-1
238 -10 m 0,4,5
 153 -10 153 -10 111.5 46.5 c 128,-1,6
 70 103 70 103 70 215 c 2,7,-1
 70 521 l 1,8,-1
 138 521 l 1,9,-1
 138 227 l 2,10,11
 138 50 138 50 259 50 c 0,12,13
 289 50 289 50 318 60 c 128,-1,14
 347 70 347 70 371.5 89 c 128,-1,15
 396 108 396 108 415.5 134 c 128,-1,16
 435 160 435 160 447 193 c 1,17,-1
 447 521 l 1,18,-1
 515 521 l 1,19,-1
 515 88 l 2,20,21
 515 60 515 60 539 60 c 1,22,-1
 539 0 l 1,23,24
 527 -2 527 -2 519.5 -2 c 128,-1,25
 512 -2 512 -2 509 -2 c 0,26,27
 485 -1 485 -1 470 15 c 128,-1,28
 455 31 455 31 455 58 c 2,29,-1
 455 118 l 1,30,31
 421 57 421 57 362.5 23.5 c 128,-1,32
 304 -10 304 -10 238 -10 c 0,4,5
EndSplineSet
EndChar

StartChar: ucircumflex
Encoding: 251 251 190
Width: 594
GlyphClass: 2
Flags: W
LayerCount: 2
Fore
SplineSet
167 645 m 1,0,-1
 265 730 l 1,1,-1
 315 730 l 1,2,-1
 414 645 l 1,3,-1
 375 624 l 1,4,-1
 290 687 l 1,5,-1
 205 624 l 1,6,-1
 167 645 l 1,0,-1
238 -10 m 0,7,8
 153 -10 153 -10 111.5 46.5 c 128,-1,9
 70 103 70 103 70 215 c 2,10,-1
 70 521 l 1,11,-1
 138 521 l 1,12,-1
 138 227 l 2,13,14
 138 50 138 50 259 50 c 0,15,16
 289 50 289 50 318 60 c 128,-1,17
 347 70 347 70 371.5 89 c 128,-1,18
 396 108 396 108 415.5 134 c 128,-1,19
 435 160 435 160 447 193 c 1,20,-1
 447 521 l 1,21,-1
 515 521 l 1,22,-1
 515 88 l 2,23,24
 515 60 515 60 539 60 c 1,25,-1
 539 0 l 1,26,27
 527 -2 527 -2 519.5 -2 c 128,-1,28
 512 -2 512 -2 509 -2 c 0,29,30
 485 -1 485 -1 470 15 c 128,-1,31
 455 31 455 31 455 58 c 2,32,-1
 455 118 l 1,33,34
 421 57 421 57 362.5 23.5 c 128,-1,35
 304 -10 304 -10 238 -10 c 0,7,8
EndSplineSet
EndChar

StartChar: udieresis
Encoding: 252 252 191
Width: 594
GlyphClass: 2
Flags: W
LayerCount: 2
Fore
SplineSet
187 633 m 1,0,-1
 187 727 l 1,1,-1
 245 727 l 1,2,-1
 245 633 l 1,3,-1
 187 633 l 1,0,-1
336 633 m 1,4,-1
 336 727 l 1,5,-1
 394 727 l 1,6,-1
 394 633 l 1,7,-1
 336 633 l 1,4,-1
238 -10 m 0,8,9
 153 -10 153 -10 111.5 46.5 c 128,-1,10
 70 103 70 103 70 215 c 2,11,-1
 70 521 l 1,12,-1
 138 521 l 1,13,-1
 138 227 l 2,14,15
 138 50 138 50 259 50 c 0,16,17
 289 50 289 50 318 60 c 128,-1,18
 347 70 347 70 371.5 89 c 128,-1,19
 396 108 396 108 415.5 134 c 128,-1,20
 435 160 435 160 447 193 c 1,21,-1
 447 521 l 1,22,-1
 515 521 l 1,23,-1
 515 88 l 2,24,25
 515 60 515 60 539 60 c 1,26,-1
 539 0 l 1,27,28
 527 -2 527 -2 519.5 -2 c 128,-1,29
 512 -2 512 -2 509 -2 c 0,30,31
 485 -1 485 -1 470 15 c 128,-1,32
 455 31 455 31 455 58 c 2,33,-1
 455 118 l 1,34,35
 421 57 421 57 362.5 23.5 c 128,-1,36
 304 -10 304 -10 238 -10 c 0,8,9
EndSplineSet
EndChar

StartChar: yacute
Encoding: 253 253 192
Width: 542
GlyphClass: 2
Flags: W
LayerCount: 2
Fore
SplineSet
105 -160 m 1,0,1
 113 -161 113 -161 120.5 -161.5 c 128,-1,2
 128 -162 128 -162 135 -162 c 0,3,4
 153 -162 153 -162 163.5 -157 c 128,-1,5
 174 -152 174 -152 184 -135 c 128,-1,6
 194 -118 194 -118 206.5 -86 c 128,-1,7
 219 -54 219 -54 242 0 c 1,8,-1
 15 521 l 1,9,-1
 85 521 l 1,10,-1
 278 63 l 1,11,-1
 457 521 l 1,12,-1
 522 521 l 1,13,-1
 252 -151 l 2,14,15
 241 -180 241 -180 215.5 -201.5 c 128,-1,16
 190 -223 190 -223 146 -223 c 0,17,18
 136 -223 136 -223 127 -222.5 c 128,-1,19
 118 -222 118 -222 105 -220 c 1,20,-1
 105 -160 l 1,0,1
285 620 m 1,21,-1
 240 637 l 1,22,-1
 299 730 l 1,23,-1
 371 730 l 1,24,-1
 285 620 l 1,21,-1
EndSplineSet
EndChar

StartChar: thorn
Encoding: 254 254 193
Width: 603
GlyphClass: 2
Flags: W
LayerCount: 2
Fore
SplineSet
565 257 m 0,0,1
 564 203 564 203 544 153.5 c 128,-1,2
 524 104 524 104 489.5 66.5 c 128,-1,3
 455 29 455 29 409 6.5 c 128,-1,4
 363 -16 363 -16 309 -16 c 0,5,6
 254 -16 254 -16 210.5 11 c 128,-1,7
 167 38 167 38 144 74 c 1,8,-1
 144 -213 l 1,9,-1
 75 -213 l 1,10,-1
 75 710 l 1,11,-1
 144 710 l 1,12,-1
 144 434 l 1,13,14
 173 475 173 475 214.5 503.5 c 128,-1,15
 256 532 256 532 318 532 c 0,16,17
 376 532 376 532 421.5 507.5 c 128,-1,18
 467 483 467 483 499 443.5 c 128,-1,19
 531 404 531 404 548 355 c 128,-1,20
 565 306 565 306 565 257 c 0,0,1
495 258 m 256,21,22
 495 299 495 299 482 337.5 c 128,-1,23
 469 376 469 376 445.5 405.5 c 128,-1,24
 422 435 422 435 388.5 452.5 c 128,-1,25
 355 470 355 470 315 470 c 0,26,27
 285 470 285 470 259 460 c 128,-1,28
 233 450 233 450 211.5 433 c 128,-1,29
 190 416 190 416 173 394 c 128,-1,30
 156 372 156 372 144 348 c 1,31,-1
 144 172 l 2,32,33
 144 148 144 148 160 125 c 128,-1,34
 176 102 176 102 200 85 c 128,-1,35
 224 68 224 68 253 57.5 c 128,-1,36
 282 47 282 47 308 47 c 0,37,38
 349 47 349 47 383.5 65 c 128,-1,39
 418 83 418 83 442.5 112 c 128,-1,40
 467 141 467 141 481 179 c 128,-1,41
 495 217 495 217 495 258 c 256,21,22
EndSplineSet
EndChar

StartChar: ydieresis
Encoding: 255 255 194
Width: 542
GlyphClass: 2
Flags: W
LayerCount: 2
Fore
SplineSet
105 -160 m 1,0,1
 113 -161 113 -161 120.5 -161.5 c 128,-1,2
 128 -162 128 -162 135 -162 c 0,3,4
 153 -162 153 -162 163.5 -157 c 128,-1,5
 174 -152 174 -152 184 -135 c 128,-1,6
 194 -118 194 -118 206.5 -86 c 128,-1,7
 219 -54 219 -54 242 0 c 1,8,-1
 15 521 l 1,9,-1
 85 521 l 1,10,-1
 278 63 l 1,11,-1
 457 521 l 1,12,-1
 522 521 l 1,13,-1
 252 -151 l 2,14,15
 241 -180 241 -180 215.5 -201.5 c 128,-1,16
 190 -223 190 -223 146 -223 c 0,17,18
 136 -223 136 -223 127 -222.5 c 128,-1,19
 118 -222 118 -222 105 -220 c 1,20,-1
 105 -160 l 1,0,1
175 633 m 1,21,-1
 175 727 l 1,22,-1
 233 727 l 1,23,-1
 233 633 l 1,24,-1
 175 633 l 1,21,-1
324 633 m 1,25,-1
 324 727 l 1,26,-1
 382 727 l 1,27,-1
 382 633 l 1,28,-1
 324 633 l 1,25,-1
EndSplineSet
EndChar

StartChar: Amacron
Encoding: 256 256 195
Width: 676
GlyphClass: 2
Flags: W
LayerCount: 2
Fore
SplineSet
309 710 m 1,0,-1
 368 710 l 1,1,-1
 663 0 l 1,2,-1
 589 0 l 1,3,-1
 497 222 l 1,4,-1
 178 222 l 1,5,-1
 87 0 l 1,6,-1
 12 0 l 1,7,-1
 309 710 l 1,0,-1
481 277 m 1,8,-1
 338 628 l 1,9,-1
 193 277 l 1,10,-1
 481 277 l 1,8,-1
194 850 m 1,11,-1
 194 897 l 1,12,-1
 483 897 l 1,13,-1
 483 850 l 1,14,-1
 194 850 l 1,11,-1
EndSplineSet
EndChar

StartChar: amacron
Encoding: 257 257 196
Width: 545
GlyphClass: 2
Flags: W
LayerCount: 2
Fore
SplineSet
206 -10 m 0,0,1
 169 -10 169 -10 137.5 2.5 c 128,-1,2
 106 15 106 15 82.5 37 c 128,-1,3
 59 59 59 59 46 88.5 c 128,-1,4
 33 118 33 118 33 152 c 256,5,6
 33 186 33 186 49 215 c 128,-1,7
 65 244 65 244 94 265 c 128,-1,8
 123 286 123 286 163 297.5 c 128,-1,9
 203 309 203 309 251 309 c 0,10,11
 291 309 291 309 332 302 c 128,-1,12
 373 295 373 295 405 282 c 1,13,-1
 405 329 l 2,14,15
 405 398 405 398 366 438.5 c 128,-1,16
 327 479 327 479 258 479 c 0,17,18
 218 479 218 479 176 463 c 128,-1,19
 134 447 134 447 91 417 c 1,20,-1
 67 462 l 1,21,22
 168 530 168 530 263 530 c 0,23,24
 361 530 361 530 417 475 c 128,-1,25
 473 420 473 420 473 323 c 2,26,-1
 473 88 l 2,27,28
 473 60 473 60 498 60 c 1,29,-1
 498 0 l 1,30,31
 481 -3 481 -3 472 -3 c 0,32,33
 446 -3 446 -3 431.5 10 c 128,-1,34
 417 23 417 23 416 46 c 2,35,-1
 414 87 l 1,36,37
 378 40 378 40 323.5 15 c 128,-1,38
 269 -10 269 -10 206 -10 c 0,0,1
222 42 m 0,39,40
 275 42 275 42 319.5 62 c 128,-1,41
 364 82 364 82 387 115 c 0,42,43
 396 124 396 124 400.5 134.5 c 128,-1,44
 405 145 405 145 405 154 c 2,45,-1
 405 239 l 1,46,47
 371 252 371 252 334.5 259 c 128,-1,48
 298 266 298 266 260 266 c 0,49,50
 188 266 188 266 143 236 c 128,-1,51
 98 206 98 206 98 157 c 0,52,53
 98 133 98 133 107.5 112 c 128,-1,54
 117 91 117 91 133.5 75.5 c 128,-1,55
 150 60 150 60 173 51 c 128,-1,56
 196 42 196 42 222 42 c 0,39,40
119 663 m 1,57,-1
 119 710 l 1,58,-1
 408 710 l 1,59,-1
 408 663 l 1,60,-1
 119 663 l 1,57,-1
EndSplineSet
EndChar

StartChar: Abreve
Encoding: 258 258 197
Width: 676
GlyphClass: 2
Flags: W
LayerCount: 2
Fore
SplineSet
309 710 m 1,0,-1
 368 710 l 1,1,-1
 663 0 l 1,2,-1
 589 0 l 1,3,-1
 497 222 l 1,4,-1
 178 222 l 1,5,-1
 87 0 l 1,6,-1
 12 0 l 1,7,-1
 309 710 l 1,0,-1
481 277 m 1,8,-1
 338 628 l 1,9,-1
 193 277 l 1,10,-1
 481 277 l 1,8,-1
338 851 m 0,11,12
 359 851 359 851 375.5 870 c 128,-1,13
 392 889 392 889 395 917 c 1,14,-1
 436 917 l 1,15,16
 436 896 436 896 428.5 877.5 c 128,-1,17
 421 859 421 859 407.5 845.5 c 128,-1,18
 394 832 394 832 376 824 c 128,-1,19
 358 816 358 816 338 816 c 0,20,21
 296 816 296 816 268 845 c 128,-1,22
 240 874 240 874 240 917 c 1,23,-1
 282 917 l 1,24,25
 282 891 282 891 299 871 c 128,-1,26
 316 851 316 851 338 851 c 0,11,12
EndSplineSet
EndChar

StartChar: abreve
Encoding: 259 259 198
Width: 545
GlyphClass: 2
Flags: W
LayerCount: 2
Fore
SplineSet
206 -10 m 0,0,1
 169 -10 169 -10 137.5 2.5 c 128,-1,2
 106 15 106 15 82.5 37 c 128,-1,3
 59 59 59 59 46 88.5 c 128,-1,4
 33 118 33 118 33 152 c 256,5,6
 33 186 33 186 49 215 c 128,-1,7
 65 244 65 244 94 265 c 128,-1,8
 123 286 123 286 163 297.5 c 128,-1,9
 203 309 203 309 251 309 c 0,10,11
 291 309 291 309 332 302 c 128,-1,12
 373 295 373 295 405 282 c 1,13,-1
 405 329 l 2,14,15
 405 398 405 398 366 438.5 c 128,-1,16
 327 479 327 479 258 479 c 0,17,18
 218 479 218 479 176 463 c 128,-1,19
 134 447 134 447 91 417 c 1,20,-1
 67 462 l 1,21,22
 168 530 168 530 263 530 c 0,23,24
 361 530 361 530 417 475 c 128,-1,25
 473 420 473 420 473 323 c 2,26,-1
 473 88 l 2,27,28
 473 60 473 60 498 60 c 1,29,-1
 498 0 l 1,30,31
 481 -3 481 -3 472 -3 c 0,32,33
 446 -3 446 -3 431.5 10 c 128,-1,34
 417 23 417 23 416 46 c 2,35,-1
 414 87 l 1,36,37
 378 40 378 40 323.5 15 c 128,-1,38
 269 -10 269 -10 206 -10 c 0,0,1
222 42 m 0,39,40
 275 42 275 42 319.5 62 c 128,-1,41
 364 82 364 82 387 115 c 0,42,43
 396 124 396 124 400.5 134.5 c 128,-1,44
 405 145 405 145 405 154 c 2,45,-1
 405 239 l 1,46,47
 371 252 371 252 334.5 259 c 128,-1,48
 298 266 298 266 260 266 c 0,49,50
 188 266 188 266 143 236 c 128,-1,51
 98 206 98 206 98 157 c 0,52,53
 98 133 98 133 107.5 112 c 128,-1,54
 117 91 117 91 133.5 75.5 c 128,-1,55
 150 60 150 60 173 51 c 128,-1,56
 196 42 196 42 222 42 c 0,39,40
263 664 m 0,57,58
 284 664 284 664 300.5 683 c 128,-1,59
 317 702 317 702 320 730 c 1,60,-1
 361 730 l 1,61,62
 361 709 361 709 353.5 690.5 c 128,-1,63
 346 672 346 672 332.5 658.5 c 128,-1,64
 319 645 319 645 301 637 c 128,-1,65
 283 629 283 629 263 629 c 0,66,67
 221 629 221 629 193 658 c 128,-1,68
 165 687 165 687 165 730 c 1,69,-1
 207 730 l 1,70,71
 207 704 207 704 224 684 c 128,-1,72
 241 664 241 664 263 664 c 0,57,58
EndSplineSet
EndChar

StartChar: Aogonek
Encoding: 260 260 199
Width: 675
GlyphClass: 2
Flags: W
LayerCount: 2
Fore
SplineSet
614 -175 m 1,0,1
 577 -167 577 -167 558 -147.5 c 128,-1,2
 539 -128 539 -128 539 -102 c 0,3,4
 539 -77 539 -77 557 -52 c 128,-1,5
 575 -27 575 -27 614 0 c 1,6,-1
 589 0 l 1,7,-1
 497 222 l 1,8,-1
 178 222 l 1,9,-1
 87 0 l 1,10,-1
 12 0 l 1,11,-1
 309 710 l 1,12,-1
 368 710 l 1,13,-1
 663 0 l 1,14,15
 618 -28 618 -28 599.5 -49.5 c 128,-1,16
 581 -71 581 -71 581 -93 c 0,17,18
 581 -130 581 -130 633 -137 c 1,19,-1
 614 -175 l 1,0,1
481 277 m 1,20,-1
 338 628 l 1,21,-1
 193 277 l 1,22,-1
 481 277 l 1,20,-1
EndSplineSet
EndChar

StartChar: aogonek
Encoding: 261 261 200
Width: 545
GlyphClass: 2
Flags: W
LayerCount: 2
Fore
SplineSet
449 -175 m 1,0,1
 412 -167 412 -167 393 -147.5 c 128,-1,2
 374 -128 374 -128 374 -102 c 0,3,4
 374 -77 374 -77 392 -52 c 128,-1,5
 410 -27 410 -27 449 0 c 1,6,7
 418 9 418 9 416 46 c 2,8,-1
 414 87 l 1,9,10
 378 40 378 40 323.5 15 c 128,-1,11
 269 -10 269 -10 206 -10 c 0,12,13
 169 -10 169 -10 137.5 2.5 c 128,-1,14
 106 15 106 15 82.5 37 c 128,-1,15
 59 59 59 59 46 88.5 c 128,-1,16
 33 118 33 118 33 152 c 256,17,18
 33 186 33 186 49 215 c 128,-1,19
 65 244 65 244 94 265 c 128,-1,20
 123 286 123 286 163 297.5 c 128,-1,21
 203 309 203 309 251 309 c 0,22,23
 291 309 291 309 332 302 c 128,-1,24
 373 295 373 295 405 282 c 1,25,-1
 405 329 l 2,26,27
 405 398 405 398 366 438.5 c 128,-1,28
 327 479 327 479 258 479 c 0,29,30
 218 479 218 479 176 463 c 128,-1,31
 134 447 134 447 91 417 c 1,32,-1
 67 462 l 1,33,34
 168 530 168 530 263 530 c 0,35,36
 361 530 361 530 417 475 c 128,-1,37
 473 420 473 420 473 323 c 2,38,-1
 473 88 l 2,39,40
 473 60 473 60 498 60 c 1,41,-1
 498 0 l 1,42,43
 453 -28 453 -28 434.5 -49.5 c 128,-1,44
 416 -71 416 -71 416 -93 c 0,45,46
 416 -130 416 -130 468 -137 c 1,47,-1
 449 -175 l 1,0,1
222 42 m 0,48,49
 275 42 275 42 319.5 62 c 128,-1,50
 364 82 364 82 387 115 c 0,51,52
 396 124 396 124 400.5 134.5 c 128,-1,53
 405 145 405 145 405 154 c 2,54,-1
 405 239 l 1,55,56
 371 252 371 252 334.5 259 c 128,-1,57
 298 266 298 266 260 266 c 0,58,59
 188 266 188 266 143 236 c 128,-1,60
 98 206 98 206 98 157 c 0,61,62
 98 133 98 133 107.5 112 c 128,-1,63
 117 91 117 91 133.5 75.5 c 128,-1,64
 150 60 150 60 173 51 c 128,-1,65
 196 42 196 42 222 42 c 0,48,49
EndSplineSet
EndChar

StartChar: Cacute
Encoding: 262 262 201
Width: 686
GlyphClass: 2
Flags: W
LayerCount: 2
Fore
SplineSet
384 807 m 1,0,-1
 339 824 l 1,1,-1
 398 917 l 1,2,-1
 470 917 l 1,3,-1
 384 807 l 1,0,-1
42 360 m 0,4,5
 42 424 42 424 64.5 487.5 c 128,-1,6
 87 551 87 551 130 601 c 128,-1,7
 173 651 173 651 236 682.5 c 128,-1,8
 299 714 299 714 379 714 c 0,9,10
 474 714 474 714 541.5 671 c 128,-1,11
 609 628 609 628 641 559 c 1,12,-1
 586 525 l 1,13,14
 569 560 569 560 544.5 584 c 128,-1,15
 520 608 520 608 492 623 c 128,-1,16
 464 638 464 638 434 644.5 c 128,-1,17
 404 651 404 651 375 651 c 0,18,19
 311 651 311 651 262 625 c 128,-1,20
 213 599 213 599 179.5 557 c 128,-1,21
 146 515 146 515 129 462.5 c 128,-1,22
 112 410 112 410 112 356 c 0,23,24
 112 297 112 297 132.5 243 c 128,-1,25
 153 189 153 189 188.5 147.5 c 128,-1,26
 224 106 224 106 272.5 81.5 c 128,-1,27
 321 57 321 57 378 57 c 0,28,29
 408 57 408 57 439.5 64.5 c 128,-1,30
 471 72 471 72 500.5 88.5 c 128,-1,31
 530 105 530 105 555 129.5 c 128,-1,32
 580 154 580 154 597 189 c 1,33,-1
 655 159 l 1,34,35
 638 119 638 119 607 88.5 c 128,-1,36
 576 58 576 58 538 37 c 128,-1,37
 500 16 500 16 457.5 5 c 128,-1,38
 415 -6 415 -6 374 -6 c 0,39,40
 301 -6 301 -6 240 26 c 128,-1,41
 179 58 179 58 135 109.5 c 128,-1,42
 91 161 91 161 66.5 226.5 c 128,-1,43
 42 292 42 292 42 360 c 0,4,5
EndSplineSet
EndChar

StartChar: cacute
Encoding: 263 263 202
Width: 549
GlyphClass: 2
Flags: W
LayerCount: 2
Fore
SplineSet
304 620 m 1,0,-1
 259 637 l 1,1,-1
 318 730 l 1,2,-1
 390 730 l 1,3,-1
 304 620 l 1,0,-1
39 262 m 0,4,5
 39 317 39 317 58 366 c 128,-1,6
 77 415 77 415 111.5 451.5 c 128,-1,7
 146 488 146 488 194 509 c 128,-1,8
 242 530 242 530 300 530 c 0,9,10
 374 530 374 530 429 496.5 c 128,-1,11
 484 463 484 463 512 406 c 1,12,-1
 446 385 l 1,13,14
 424 425 424 425 384.5 447.5 c 128,-1,15
 345 470 345 470 297 470 c 0,16,17
 257 470 257 470 222.5 454 c 128,-1,18
 188 438 188 438 162.5 410.5 c 128,-1,19
 137 383 137 383 122.5 345 c 128,-1,20
 108 307 108 307 108 262 c 0,21,22
 108 218 108 218 123 179 c 128,-1,23
 138 140 138 140 164 111.5 c 128,-1,24
 190 83 190 83 224.5 66.5 c 128,-1,25
 259 50 259 50 298 50 c 0,26,27
 323 50 323 50 347.5 57 c 128,-1,28
 372 64 372 64 393 76.5 c 128,-1,29
 414 89 414 89 429 105 c 128,-1,30
 444 121 444 121 450 139 c 1,31,-1
 517 119 l 1,32,33
 506 91 506 91 485 67.5 c 128,-1,34
 464 44 464 44 435.5 26.5 c 128,-1,35
 407 9 407 9 372.5 -0.5 c 128,-1,36
 338 -10 338 -10 301 -10 c 0,37,38
 244 -10 244 -10 196 11.5 c 128,-1,39
 148 33 148 33 113 70.5 c 128,-1,40
 78 108 78 108 58.5 157 c 128,-1,41
 39 206 39 206 39 262 c 0,4,5
EndSplineSet
EndChar

StartChar: Ccircumflex
Encoding: 264 264 203
Width: 686
GlyphClass: 2
Flags: W
LayerCount: 2
Fore
SplineSet
254 832 m 1,0,-1
 352 917 l 1,1,-1
 402 917 l 1,2,-1
 501 832 l 1,3,-1
 462 811 l 1,4,-1
 377 874 l 1,5,-1
 292 811 l 1,6,-1
 254 832 l 1,0,-1
42 360 m 0,7,8
 42 424 42 424 64.5 487.5 c 128,-1,9
 87 551 87 551 130 601 c 128,-1,10
 173 651 173 651 236 682.5 c 128,-1,11
 299 714 299 714 379 714 c 0,12,13
 474 714 474 714 541.5 671 c 128,-1,14
 609 628 609 628 641 559 c 1,15,-1
 586 525 l 1,16,17
 569 560 569 560 544.5 584 c 128,-1,18
 520 608 520 608 492 623 c 128,-1,19
 464 638 464 638 434 644.5 c 128,-1,20
 404 651 404 651 375 651 c 0,21,22
 311 651 311 651 262 625 c 128,-1,23
 213 599 213 599 179.5 557 c 128,-1,24
 146 515 146 515 129 462.5 c 128,-1,25
 112 410 112 410 112 356 c 0,26,27
 112 297 112 297 132.5 243 c 128,-1,28
 153 189 153 189 188.5 147.5 c 128,-1,29
 224 106 224 106 272.5 81.5 c 128,-1,30
 321 57 321 57 378 57 c 0,31,32
 408 57 408 57 439.5 64.5 c 128,-1,33
 471 72 471 72 500.5 88.5 c 128,-1,34
 530 105 530 105 555 129.5 c 128,-1,35
 580 154 580 154 597 189 c 1,36,-1
 655 159 l 1,37,38
 638 119 638 119 607 88.5 c 128,-1,39
 576 58 576 58 538 37 c 128,-1,40
 500 16 500 16 457.5 5 c 128,-1,41
 415 -6 415 -6 374 -6 c 0,42,43
 301 -6 301 -6 240 26 c 128,-1,44
 179 58 179 58 135 109.5 c 128,-1,45
 91 161 91 161 66.5 226.5 c 128,-1,46
 42 292 42 292 42 360 c 0,7,8
EndSplineSet
EndChar

StartChar: ccircumflex
Encoding: 265 265 204
Width: 549
GlyphClass: 2
Flags: W
LayerCount: 2
Fore
SplineSet
175 645 m 1,0,-1
 273 730 l 1,1,-1
 323 730 l 1,2,-1
 422 645 l 1,3,-1
 383 624 l 1,4,-1
 298 687 l 1,5,-1
 213 624 l 1,6,-1
 175 645 l 1,0,-1
39 262 m 0,7,8
 39 317 39 317 58 366 c 128,-1,9
 77 415 77 415 111.5 451.5 c 128,-1,10
 146 488 146 488 194 509 c 128,-1,11
 242 530 242 530 300 530 c 0,12,13
 374 530 374 530 429 496.5 c 128,-1,14
 484 463 484 463 512 406 c 1,15,-1
 446 385 l 1,16,17
 424 425 424 425 384.5 447.5 c 128,-1,18
 345 470 345 470 297 470 c 0,19,20
 257 470 257 470 222.5 454 c 128,-1,21
 188 438 188 438 162.5 410.5 c 128,-1,22
 137 383 137 383 122.5 345 c 128,-1,23
 108 307 108 307 108 262 c 0,24,25
 108 218 108 218 123 179 c 128,-1,26
 138 140 138 140 164 111.5 c 128,-1,27
 190 83 190 83 224.5 66.5 c 128,-1,28
 259 50 259 50 298 50 c 0,29,30
 323 50 323 50 347.5 57 c 128,-1,31
 372 64 372 64 393 76.5 c 128,-1,32
 414 89 414 89 429 105 c 128,-1,33
 444 121 444 121 450 139 c 1,34,-1
 517 119 l 1,35,36
 506 91 506 91 485 67.5 c 128,-1,37
 464 44 464 44 435.5 26.5 c 128,-1,38
 407 9 407 9 372.5 -0.5 c 128,-1,39
 338 -10 338 -10 301 -10 c 0,40,41
 244 -10 244 -10 196 11.5 c 128,-1,42
 148 33 148 33 113 70.5 c 128,-1,43
 78 108 78 108 58.5 157 c 128,-1,44
 39 206 39 206 39 262 c 0,7,8
EndSplineSet
EndChar

